<?xml version="1.0" encoding="UTF-8" standalone="no"?>
<svg
   xmlns:dc="http://purl.org/dc/elements/1.1/"
   xmlns:cc="http://creativecommons.org/ns#"
   xmlns:rdf="http://www.w3.org/1999/02/22-rdf-syntax-ns#"
   xmlns:svg="http://www.w3.org/2000/svg"
   xmlns="http://www.w3.org/2000/svg"
   id="svg4593"
   version="1.1"
   height="27.33"
   width="27.330999">
  <defs
     id="defs7" />
  <metadata
     id="metadata4590">
    <rdf:RDF>
      <cc:Work
         rdf:about="">
        <dc:format>image/svg+xml</dc:format>
        <dc:type
           rdf:resource="http://purl.org/dc/dcmitype/StillImage" />
        <dc:title></dc:title>
      </cc:Work>
    </rdf:RDF>
  </metadata>
  <path
     style="display:inline;fill:#3c9aec;stroke-width:3.77952719"
     id="path2-6"
     d="m 27.330595,1.506491 v 24.310677 c 0,0.83573 -0.677178,1.506785 -1.50686,1.506785 H 18.856894 V 16.745622 h 3.550526 l 0.530759,-4.123957 h -4.08737 V 9.9862768 c 0,-1.195729 0.329575,-2.007118 2.043704,-2.007118 h 2.184 V 4.288337 c -0.378255,-0.04876 -1.671534,-0.164788 -3.184479,-0.164788 -3.14793,0 -5.307515,1.921663 -5.307515,5.4538963 V 12.62159 h -3.562733 v 4.123956 h 3.562733 V 27.33 H 1.506822 C 0.677178,27.33 0,26.652822 0,25.823178 V 1.506416 C 0,0.67673395 0.677178,-4.0604578e-4 1.506822,-4.0604578e-4 h 24.31079 c 0.835805,0 1.512983,0.67713999578 1.512983,1.50682204578 z" />
</svg>
