<?xml version="1.0" encoding="UTF-8" standalone="no"?>
<svg
   xmlns:dc="http://purl.org/dc/elements/1.1/"
   xmlns:cc="http://creativecommons.org/ns#"
   xmlns:rdf="http://www.w3.org/1999/02/22-rdf-syntax-ns#"
   xmlns:svg="http://www.w3.org/2000/svg"
   xmlns="http://www.w3.org/2000/svg"
   id="svg4593"
   version="1.1"
   height="27.33"
   width="27.346001">
  <defs
     id="defs7" />
  <metadata
     id="metadata4590">
    <rdf:RDF>
      <cc:Work
         rdf:about="">
        <dc:format>image/svg+xml</dc:format>
        <dc:type
           rdf:resource="http://purl.org/dc/dcmitype/StillImage" />
        <dc:title></dc:title>
      </cc:Work>
    </rdf:RDF>
  </metadata>
  <path
     d="m 13.668041,6.6625371 c -3.8777311,0 -7.0055036,3.1277342 -7.0055036,7.0054649 0,3.877731 3.1277725,7.005542 7.0055036,7.005542 3.877731,0 7.005503,-3.127811 7.005503,-7.005542 0,-3.8777307 -3.127772,-7.0054649 -7.005503,-7.0054649 z m 0,11.5599869 c -2.505943,0 -4.5545218,-2.042497 -4.5545218,-4.554522 0,-2.511986 2.0424598,-4.5544455 4.5545218,-4.5544455 2.511948,0 4.554484,2.0424595 4.554484,4.5544455 0,2.512025 -2.048655,4.554522 -4.554484,4.554522 z M 22.594108,6.3759483 c 0,0.9084566 -0.731638,1.6340126 -1.634013,1.6340126 -0.908494,0 -1.633975,-0.7316377 -1.633975,-1.6340126 0,-0.9023373 0.731601,-1.6340131 1.633975,-1.6340131 0.902375,0 1.634013,0.7316758 1.634013,1.6340131 z M 27.23396,8.034325 C 27.130461,5.8454928 26.630337,3.9066462 25.026807,2.3092358 23.429435,0.71178763 21.490551,0.2118154 19.30168,0.10212067 c -2.255918,-0.12805263 -9.017517,-0.12805263 -11.2734358,0 C 5.8454931,0.20562055 3.9066465,0.70570601 2.3031168,2.3031543 0.69958711,3.9005269 0.20573428,5.8394111 0.09603955,8.0282814 c -0.12805273,2.2559186 -0.12805273,9.0174796 0,11.2734366 0.10349978,2.188832 0.60354756,4.127679 2.20707725,5.725165 1.6035297,1.59741 3.5363325,2.097345 5.7251274,2.207077 2.2559188,0.128053 9.0175548,0.128053 11.2734358,0 2.188871,-0.1035 4.127755,-0.603624 5.725127,-2.207077 1.597448,-1.597486 2.097421,-3.536333 2.207153,-5.725165 0.128053,-2.255957 0.128053,-9.011474 0,-11.267393 z m -2.914389,13.687891 c -0.475608,1.195045 -1.396228,2.11574 -2.597355,2.597354 -1.798593,0.713394 -6.066525,0.548739 -8.054175,0.548739 -1.987688,0 -6.2617024,0.158649 -8.0542138,-0.548739 -1.1950075,-0.475532 -2.1156651,-1.39619 -2.597317,-2.597354 -0.7133934,-1.798593 -0.548738,-6.066563 -0.548738,-8.054214 0,-1.987612 -0.1586493,-6.2616637 0.548738,-8.0541752 0.4755326,-1.1950075 1.3961901,-2.115665 2.597317,-2.5973547 1.7986307,-0.7133178 6.0665258,-0.5487002 8.0542138,-0.5487002 1.98765,0 6.261664,-0.1586494 8.054175,0.5487002 1.195045,0.4756081 2.115704,1.3962279 2.597355,2.5973547 0.713318,1.798631 0.5487,6.0665632 0.5487,8.0541752 0,1.987651 0.164694,6.261702 -0.5487,8.054214 z"
     id="path6-7"
     style="display:inline;fill:#3c9aec;stroke-width:3.77736592" />
</svg>
