<?xml version="1.0" encoding="UTF-8" standalone="no"?>
<svg
   xmlns:dc="http://purl.org/dc/elements/1.1/"
   xmlns:cc="http://creativecommons.org/ns#"
   xmlns:rdf="http://www.w3.org/1999/02/22-rdf-syntax-ns#"
   xmlns:svg="http://www.w3.org/2000/svg"
   xmlns="http://www.w3.org/2000/svg"
   id="svg4593"
   version="1.1"
   height="27.33"
   width="33.317001">
  <defs
     id="defs7" />
  <metadata
     id="metadata4590">
    <rdf:RDF>
      <cc:Work
         rdf:about="">
        <dc:format>image/svg+xml</dc:format>
        <dc:type
           rdf:resource="http://purl.org/dc/dcmitype/StillImage" />
        <dc:title></dc:title>
      </cc:Work>
    </rdf:RDF>
  </metadata>
  <path
     style="display:inline;fill:#3c9aec;stroke-width:3.77952719"
     id="path10-5"
     d="M 32.620806,5.617328 C 32.237751,4.174531 31.108768,3.038254 29.675269,2.652629 27.077071,1.951942 16.658501,1.951942 16.658501,1.951942 c 0,0 -10.4184573,0 -13.0167683,0.700687 C 2.2082707,3.03833 1.0793257,4.174531 0.69611967,5.617328 -6.9328613e-5,8.232459 -6.9328613e-5,13.68866 -6.9328613e-5,13.68866 c 0,0 0,5.456164 0.696188998613,8.071332 0.38320603,1.442759 1.51215103,2.531717 2.94561303,2.917304 2.598311,0.700762 13.0167683,0.700762 13.0167683,0.700762 0,0 10.418494,0 13.016768,-0.700762 1.433499,-0.385587 2.562482,-1.474545 2.945537,-2.917304 0.696265,-2.615168 0.696265,-8.071332 0.696265,-8.071332 0,0 0,-5.456201 -0.696265,-8.071332 z M 13.251068,18.642449 V 8.734833 l 8.707842,4.953903 z" />
</svg>
