<?xml version="1.0" encoding="UTF-8" standalone="no"?>
<svg
   xmlns:dc="http://purl.org/dc/elements/1.1/"
   xmlns:cc="http://creativecommons.org/ns#"
   xmlns:rdf="http://www.w3.org/1999/02/22-rdf-syntax-ns#"
   xmlns:svg="http://www.w3.org/2000/svg"
   xmlns="http://www.w3.org/2000/svg"
   id="svg4676"
   version="1.1"
   viewBox="0 0 210 297"
   height="297mm"
   width="210mm">
  <defs
     id="defs4670" />
  <metadata
     id="metadata4673">
    <rdf:RDF>
      <cc:Work
         rdf:about="">
        <dc:format>image/svg+xml</dc:format>
        <dc:type
           rdf:resource="http://purl.org/dc/dcmitype/StillImage" />
        <dc:title></dc:title>
      </cc:Work>
    </rdf:RDF>
  </metadata>
  <path
     style="display:inline;fill:#f9f9f9;fill-opacity:0.97254902;stroke-width:0.02411958"
     d="m 85.977483,218.34242 v 2.793 c 0,0.3715 -0.29185,0.6681 -0.66329,0.6681 -0.36903,0 -0.726,-0.299 -0.726,-0.6681 v -2.793 c 0,-0.3642 0.35697,-0.6633 0.726,-0.6633 0.36421,0 0.66329,0.2991 0.66329,0.6633 z m 0.26049,3.7868 c 0,0.3955 0.31838,0.7139 0.71394,0.7139 h 0.47998 l 0.007,1.4737 c 0,0.89001 1.33141,0.88281 1.33141,0 v -1.4737 h 0.89725 v 1.4737 c 0,0.88521 1.33864,0.88761 1.33864,0 v -1.4737 h 0.48721 c 0.39073,0 0.70912,-0.3184 0.70912,-0.7139 v -4.3271 h -5.96478 z m 5.98165,-4.5611 h -6.00818 c 0,-1.0323 0.61746,-1.9295 1.534,-2.3974 l -0.46068,-0.8515 c -0.0676,-0.1181 0.10371,-0.1929 0.1616,-0.092 l 0.46792,0.8587 c 0.84177,-0.3739 1.80897,-0.3546 2.61216,0 l 0.4655,-0.8563 c 0.0603,-0.1037 0.22913,-0.026 0.16161,0.092 l -0.46069,0.8491 c 0.90931,0.4679 1.52676,1.3651 1.52676,2.3974 z m -4.11721,-1.3386 c 0,-0.1375 -0.11095,-0.2533 -0.25325,-0.2533 -0.13749,0 -0.24602,0.1158 -0.24602,0.2533 0,0.1375 0.11095,0.2533 0.24602,0.2533 0.1423,0 0.25325,-0.1158 0.25325,-0.2533 z m 2.73517,0 c 0,-0.1375 -0.11095,-0.2533 -0.24602,-0.2533 -0.14231,0 -0.25326,0.1158 -0.25326,0.2533 0,0.1375 0.11095,0.2533 0.25326,0.2533 0.13507,0 0.24602,-0.1158 0.24602,-0.2533 z m 2.28654,1.4496 c -0.3642,0 -0.6633,0.2918 -0.6633,0.6633 v 2.793 c 0,0.3715 0.2991,0.6681 0.6633,0.6681 0.37144,0 0.72599,-0.299 0.72599,-0.6681 v -2.793 c 0,-0.3715 -0.35696,-0.6633 -0.72599,-0.6633 z"
     id="path5192" />
  <path
     style="display:inline;fill:#3c9aec;stroke-width:0.99999994"
     id="path2-6"
     d="m 110.0015,217.15464 v 6.4322 c 0,0.22112 -0.17917,0.39867 -0.39869,0.39867 h -1.84331 v -2.79885 h 0.93941 l 0.14043,-1.09113 h -1.08145 v -0.69728 c 0,-0.31637 0.0872,-0.53105 0.54073,-0.53105 h 0.57785 v -0.97653 c -0.10008,-0.0129 -0.44226,-0.0436 -0.84256,-0.0436 -0.83289,0 -1.40428,0.50844 -1.40428,1.44301 v 0.80543 h -0.94264 v 1.09113 h 0.94264 v 2.80047 h -3.46067 c -0.21951,0 -0.39868,-0.17917 -0.39868,-0.39868 v -6.43381 c 0,-0.21952 0.17917,-0.39868 0.39868,-0.39868 h 6.43223 c 0.22114,0 0.40031,0.17916 0.40031,0.39868 z" />
  <path
     style="display:inline;fill:#3c9aec;stroke-width:0.99999994"
     id="path6-7"
     d="m 117.80335,218.82414 c -1.02657,0 -1.8546,0.82802 -1.8546,1.85459 0,1.02657 0.82803,1.85461 1.8546,1.85461 1.02657,0 1.8546,-0.82804 1.8546,-1.85461 0,-1.02657 -0.82803,-1.85459 -1.8546,-1.85459 z m 0,3.06033 c -0.66341,0 -1.20574,-0.54072 -1.20574,-1.20574 0,-0.66501 0.54071,-1.20572 1.20574,-1.20572 0.665,0 1.20573,0.54071 1.20573,1.20572 0,0.66502 -0.54235,1.20574 -1.20573,1.20574 z m 2.36304,-3.1362 c 0,0.2405 -0.19369,0.43258 -0.43258,0.43258 -0.24051,0 -0.43257,-0.19369 -0.43257,-0.43258 0,-0.23888 0.19368,-0.43258 0.43257,-0.43258 0.23889,0 0.43258,0.1937 0.43258,0.43258 z m 1.22833,0.43903 c -0.0274,-0.57946 -0.1598,-1.09274 -0.58431,-1.51563 -0.42288,-0.4229 -0.93617,-0.55526 -1.51564,-0.5843 -0.59722,-0.0339 -2.38725,-0.0339 -2.98447,0 -0.57785,0.0274 -1.09113,0.15979 -1.51564,0.58269 -0.42451,0.42288 -0.55525,0.93617 -0.58429,1.51564 -0.0339,0.59722 -0.0339,2.38724 0,2.98447 0.0274,0.57946 0.15978,1.09274 0.58429,1.51565 0.42451,0.42289 0.93619,0.55524 1.51564,0.58429 0.59722,0.0339 2.38726,0.0339 2.98447,0 0.57947,-0.0274 1.09276,-0.1598 1.51564,-0.58429 0.4229,-0.42291 0.55526,-0.93619 0.58431,-1.51565 0.0339,-0.59723 0.0339,-2.38565 0,-2.98287 z m -0.77154,3.62366 c -0.12591,0.31637 -0.36963,0.56011 -0.68761,0.68761 -0.47615,0.18886 -1.60602,0.14527 -2.13222,0.14527 -0.52621,0 -1.65769,0.042 -2.13223,-0.14527 -0.31636,-0.12589 -0.56009,-0.36962 -0.6876,-0.68761 -0.18886,-0.47615 -0.14527,-1.60603 -0.14527,-2.13223 0,-0.52619 -0.042,-1.65768 0.14527,-2.13222 0.12589,-0.31636 0.36962,-0.56009 0.6876,-0.68761 0.47616,-0.18884 1.60602,-0.14526 2.13223,-0.14526 0.5262,0 1.65768,-0.042 2.13222,0.14526 0.31637,0.12591 0.5601,0.36963 0.68761,0.68761 0.18884,0.47616 0.14526,1.60603 0.14526,2.13222 0,0.5262 0.0436,1.65769 -0.14526,2.13223 z" />
  <path
     style="display:inline;fill:#3c9aec;stroke-width:0.99999994"
     id="path10-5"
     d="m 133.69212,218.33131 c -0.10135,-0.38174 -0.40006,-0.68238 -0.77934,-0.78441 -0.68744,-0.18539 -3.44402,-0.18539 -3.44402,-0.18539 0,0 -2.75655,0 -3.44402,0.18539 -0.37927,0.10205 -0.67797,0.40267 -0.77936,0.78441 -0.1842,0.69192 -0.1842,2.13554 -0.1842,2.13554 0,0 0,1.44361 0.1842,2.13554 0.10139,0.38173 0.40009,0.66985 0.77936,0.77187 0.68747,0.18541 3.44402,0.18541 3.44402,0.18541 0,0 2.75656,0 3.44402,-0.18541 0.37928,-0.10202 0.67799,-0.39014 0.77934,-0.77187 0.18422,-0.69193 0.18422,-2.13554 0.18422,-2.13554 0,0 0,-1.44362 -0.18422,-2.13554 z m -5.12491,3.44623 v -2.62139 l 2.30395,1.31072 z" />
</svg>
