<?xml version="1.0" encoding="UTF-8" standalone="no"?>
<svg
   xmlns:dc="http://purl.org/dc/elements/1.1/"
   xmlns:cc="http://creativecommons.org/ns#"
   xmlns:rdf="http://www.w3.org/1999/02/22-rdf-syntax-ns#"
   xmlns:svg="http://www.w3.org/2000/svg"
   xmlns="http://www.w3.org/2000/svg"
   width="9.2620001"
   height="10.802"
   version="1.1"
   id="svg4593">
  <defs
     id="defs7" />
  <metadata
     id="metadata4590">
    <rdf:RDF>
      <cc:Work
         rdf:about="">
        <dc:format>image/svg+xml</dc:format>
        <dc:type
           rdf:resource="http://purl.org/dc/dcmitype/StillImage" />
        <dc:title></dc:title>
      </cc:Work>
    </rdf:RDF>
  </metadata>
  <path
     id="path5192"
     d="m 1.38929,4.1627898 v 2.793 c 0,0.3715 -0.29185,0.6681 -0.66329,0.6681 -0.36903,0 -0.726,-0.299 -0.726,-0.6681 v -2.793 c 0,-0.3642 0.35697,-0.6633 0.726,-0.6633 0.36421,0 0.66329,0.2991 0.66329,0.6633 z m 0.26049,3.7868 c 0,0.3955 0.31838,0.7139 0.71394,0.7139 H 2.8437 l 0.007,1.4737002 c 0,0.89001 1.331411,0.88281 1.331411,0 V 8.6634898 h 0.89725 V 10.13719 c 0,0.88521 1.33864,0.88761 1.33864,0 V 8.6634898 h 0.48721 c 0.39073,0 0.70912,-0.3184 0.70912,-0.7139 v -4.3271 H 1.64955 Z m 5.981651,-4.5611 H 1.62325 c 0,-1.0323 0.61746,-1.9295 1.534,-2.3974 l -0.46068,-0.8515 c -0.0676,-0.1181 0.10371,-0.1929 0.1616,-0.092 l 0.46792,0.8587 c 0.841771,-0.3739 1.808971,-0.3546 2.612161,0 l 0.4655,-0.8563 c 0.0603,-0.1037 0.22913,-0.026 0.16161,0.092 l -0.46069,0.8491 c 0.90931,0.4679 1.52676,1.3651 1.52676,2.3974 z m -4.11721,-1.3386 c 0,-0.1375 -0.11095,-0.2533 -0.253251,-0.2533 -0.13749,0 -0.24602,0.1158 -0.24602,0.2533 0,0.1375 0.11095,0.2533 0.24602,0.2533 0.142301,0 0.253251,-0.1158 0.253251,-0.2533 z m 2.73517,0 c 0,-0.1375 -0.11095,-0.2533 -0.24602,-0.2533 -0.14231,0 -0.25326,0.1158 -0.25326,0.2533 0,0.1375 0.11095,0.2533 0.25326,0.2533 0.13507,0 0.24602,-0.1158 0.24602,-0.2533 z m 2.28654,1.4496 c -0.3642,0 -0.6633,0.2918 -0.6633,0.6633 v 2.793 c 0,0.3715 0.2991,0.6681 0.6633,0.6681 0.37144,0 0.72599,-0.299 0.72599,-0.6681 v -2.793 c 0,-0.3715 -0.35696,-0.6633 -0.72599,-0.6633 z"
     style="display:inline;fill:#f9f9f9;fill-opacity:0.97254902;stroke-width:0.02411958" />
</svg>
