<?xml version="1.0" encoding="UTF-8" standalone="no"?>
<svg
   xmlns:dc="http://purl.org/dc/elements/1.1/"
   xmlns:cc="http://creativecommons.org/ns#"
   xmlns:rdf="http://www.w3.org/1999/02/22-rdf-syntax-ns#"
   xmlns:svg="http://www.w3.org/2000/svg"
   xmlns="http://www.w3.org/2000/svg"
   height="395.267"
   width="1243.467"
   xml:space="preserve"
   viewBox="0 0 1243.467 395.26701"
   y="0px"
   x="0px"
   id="Layer_1"
   version="1.1"><metadata
     id="metadata13"><rdf:RDF><cc:Work
         rdf:about=""><dc:format>image/svg+xml</dc:format><dc:type
           rdf:resource="http://purl.org/dc/dcmitype/StillImage" /><dc:title></dc:title></cc:Work></rdf:RDF></metadata><defs
     id="defs11" /><style
     id="style2"
     type="text/css">
	.st0{fill-rule:evenodd;clip-rule:evenodd;fill:#448CCB;}
	.st1{fill-rule:evenodd;clip-rule:evenodd;fill:none;stroke:#000000;stroke-width:0.5669;stroke-miterlimit:22.9256;}
</style><path
     style="clip-rule:evenodd;fill:#3697eb;fill-rule:evenodd;fill-opacity:1"
     id="path4"
     d="m 171.48345,225.08354 c 5.6,-0.5 10,4 10,10 0,13.4 -27.6,15.6 -35.1,15.6 -38.6,0 -69.900001,-31.3 -69.900001,-69.9 0,-38.6 31.300001,-69.9 69.900001,-69.9 35.4,0 65.2,26.5 69.4,61.6 l 0.4,4.4 c 0.1,1.3 0.1,2.6 0.1,4 v 1.1 l -0.4,59.2 c 0,6.7 -2.9,9.8 -8.5,9.8 -5.1,0 -9.5,-2 -9.6,-9.5 0,-5.9 0,-44.8 0,-60.7 0,-28.6 -22.9,-51.4 -51.4,-51.4 -28.4,0 -51.400001,23 -51.400001,51.4 0,28.4 23.000001,51.4 51.400001,51.4 14.2,0 21.1,-6.8 25.1,-7.1 z m 769.5,-109.1 c 4.1,0 7.5,2.9 8.3,6.7 0,0.5 0.2,2.3 0.1,2.7 -0.3,24.1 0.1,41.5 0,65.7 0.3,5.4 1.7,10.7 4,15.6 7.7,16 24.3,24.6 41.7,24.6 17.39995,0 35.99995,-8.2 43.69995,-24.6 2.3,-4.8 3.4,-10 3.4,-15.4 0.5,-22.6 0.7,-45.2 0.7,-67.8 l 0.2,-0.7 c 0.8,-4.1 4.4,-7.1 8.7,-7.1 5.6,0 9.1,4.5 8.8,10.5 0,39.7 0.3,72.6 -0.3,112.3 -0.4,23.8 -8.3,47.9 -29.8,60.5 -23.8,13.5 -55.59995,7.3 -76.59995,-10.5 -7.7,-7.3 0.7,-20.9 13.2,-11.4 9.1,6.5 23.1,12.3 33.69995,11.9 31.8,-1.2 42.3,-22.8 42.4,-52.9 0,-1.7 0.1,-3.3 0.1,-5 -12.5,14 -29,19.8 -48.09995,19.8 -15.7,0 -31.9,-7.1 -43.5,-17.5 -12.1,-10.8 -19.9,-25.4 -19.8,-41.8 l 0.5,-65.9 c 0,-0.4 0.1,-2.3 0.1,-2.7 1,-4.1 4.4,-7 8.5,-7 z m -285.1,-1.5 c 4.9,0 8.9,3.7 9.5,8.4 l 0.1,1 c 0,28.3 -0.2,49.8 0.9,78.1 0.6,15.9 13.1,29.1 29.3,29.1 8.6,0 16.2,-2.6 21.9,-9.3 3.7,-4.4 6.3,-10.4 7.2,-16.1 1.3,-8.2 1.7,-82.8 1.8,-82.8 0.6,-4.3 4.3,-7.7 8.8,-7.7 4.5,0 8.2,3.3 8.8,7.7 0,0.1 0,2.2 0,2.4 l -1.1,79.2 c -1.3,25.2 -22.1,45 -47.4,45 -16,0 -30.9,-8.1 -39.6,-21.4 -8.7,13.3 -23.6,21.4 -39.6,21.4 -25.3,0 -46,-19.9 -47.3,-45.2 l -0.5,-75.8 c 0,-1.9 0,-2.8 0,-4.4 0,-2.7 1.8,-8.6 8.2,-8.7 7,-0.2 9.5,3.6 9.5,8.7 0.1,9.5 0.4,71.2 0.9,78.1 0.1,0.3 0.2,0.6 0.2,0.9 l 0.1,0.8 c 1,15.4 13.4,27.1 28.9,27.1 15.9,0 28.7,-13.4 29.1,-29.1 0.7,-28.3 1.1,-49.6 0.7,-77.8 0.4,-5.3 3.6,-9.6 9.6,-9.6 z m 451.09995,52.5 v 9.4 c 0,6.1 0,12.2 0,18.3 v 45.3 c 0.1,4.5 -1.6,10.9 -9.5,10.8 -7,-0.1 -9.7,-3.8 -9.6,-10.7 l -0.1,-71.4 c 0,-0.1 0,-0.2 0,-0.2 v -0.1 c 2.6,-35.2 33.2,-59.5 67.6,-59.5 0.5,0 0.9,0 1.4,0 5.4,0.1 10.1,2.8 10.1,8.9 0,4.2 -3,7.8 -7,8.6 -1,0.2 -3.5,0.2 -4.6,0.2 -9.2,0 -20.4,3.9 -28,9 -10.6,7 -18.9,18.3 -20.3,31.4 z m -655.69995,58 c -5.6,-0.5 -10,4 -10,10 0,13.4 27.6,15.6 35.1,15.6 38.6,0 69.9,-31.3 69.9,-69.9 0,-38.6 -31.3,-69.9 -69.9,-69.9 -35.4,0 -65.2,26.5 -69.4,61.6 l -0.4,4.4 c -0.1,1.3 -0.1,2.6 -0.1,4 v 1.1 l 0.3,115.1 c 0,6.7 3.4,9.1 8.9,9.2 5.9,0.1 9.2,-2.1 9.2,-9.6 0.1,-7.5 0,-0.5 0,-0.6 v -1.2 c 0,-21 0,-93 0,-114 0,-28.6 22.9,-51.4 51.4,-51.4 28.4,0 51.4,23 51.4,51.4 0,28.4 -23,51.4 -51.4,51.4 -14.1,-0.1 -21,-6.8 -25,-7.2 z m -162.9,0 c -5.6,-0.5 -10,4 -10,10 0,13.4 27.6,15.6 35.1,15.6 38.6,0 69.9,-31.3 69.9,-69.9 0,-38.6 -31.3,-69.9 -69.9,-69.9 -35.4,0 -65.2,26.5 -69.4,61.6 l -0.4,4.4 c -0.1,1.3 -0.1,2.6 -0.1,4 v 1.1 l 0.3,115.1 c 0,6.7 3.4,9.1 8.9,9.2 5.9,0.1 9.2,-2.1 9.2,-9.6 0.1,-7.5 0,-0.5 0,-0.6 v -1.2 c 0,-21 0,-93 0,-114 0,-28.6 22.9,-51.4 51.4,-51.4 28.4,0 51.4,23 51.4,51.4 0,28.4 -23,51.4 -51.4,51.4 -14.1,-0.1 -21,-6.8 -25,-7.2 z m 572.9,0.1 c 5.6,-0.5 10,4 10,10 0,13.4 -27.6,15.6 -35.1,15.6 -38.6,0 -69.9,-31.3 -69.9,-69.9 0,-38.6 31.3,-69.9 69.9,-69.9 35.4,0 65.2,26.5 69.4,61.6 l 0.4,4.4 c 0.1,1.3 0.1,2.6 0.1,4 v 1.1 l -0.4,59.2 c 0,6.7 -2.9,9.8 -8.5,9.8 -5.1,0 -9.5,-2 -9.6,-9.5 0,-5.9 0,-44.8 0,-60.7 0,-28.6 -22.9,-51.4 -51.4,-51.4 -28.4,0 -51.4,23 -51.4,51.4 0,28.4 23,51.4 51.4,51.4 14.1,0 21,-6.8 25.1,-7.1 z"
     class="st0" /></svg>