<?xml version="1.0" encoding="UTF-8" standalone="no"?>
<svg
   xmlns:dc="http://purl.org/dc/elements/1.1/"
   xmlns:cc="http://creativecommons.org/ns#"
   xmlns:rdf="http://www.w3.org/1999/02/22-rdf-syntax-ns#"
   xmlns:svg="http://www.w3.org/2000/svg"
   xmlns="http://www.w3.org/2000/svg"
   id="svg5130"
   version="1.1"
   viewBox="0 0 26.722916 26.722917"
   height="101"
   width="101">
  <defs
     id="defs5124" />
  <metadata
     id="metadata5127">
    <rdf:RDF>
      <cc:Work
         rdf:about="">
        <dc:format>image/svg+xml</dc:format>
        <dc:type
           rdf:resource="http://purl.org/dc/dcmitype/StillImage" />
        <dc:title></dc:title>
      </cc:Work>
    </rdf:RDF>
  </metadata>
  <g
     transform="translate(0,-270.27708)"
     id="layer1">
    <g
       transform="matrix(0.26458333,0,0,0.26458333,-31.630937,270.36968)"
       style="fill:#3697eb"
       id="Facebook">
      <path
         style="fill:#3697eb"
         id="path4"
         d="m 194.1,2 h -12.5 c -14,0 -23.1,9.3 -23.1,23.7 V 36.6 H 146 c -1.1,0 -2,0.9 -2,2 v 15.8 c 0,1.1 0.9,2 2,2 h 12.5 v 39.9 c 0,1.1 0.9,2 2,2 h 16.4 c 1.1,0 2,-0.9 2,-2 v -40 h 14.7 c 1.1,0 2,-0.9 2,-2 V 38.5 c 0,-0.5 -0.2,-1 -0.6,-1.4 -0.4,-0.4 -0.9,-0.6 -1.4,-0.6 h -14.7 v -9.2 c 0,-4.4 1.1,-6.7 6.8,-6.7 h 8.4 c 1.1,0 2,-0.9 2,-2 V 3.9 c -0.1,-1 -1,-1.9 -2,-1.9 z"
         class="st0" />
    </g>
  </g>
</svg>
