<?xml version="1.0" encoding="UTF-8" standalone="no"?>
<svg
   xmlns:dc="http://purl.org/dc/elements/1.1/"
   xmlns:cc="http://creativecommons.org/ns#"
   xmlns:rdf="http://www.w3.org/1999/02/22-rdf-syntax-ns#"
   xmlns:svg="http://www.w3.org/2000/svg"
   xmlns="http://www.w3.org/2000/svg"
   id="svg5130"
   version="1.1"
   viewBox="0 0 26.722916 26.722917"
   height="101"
   width="101">
  <defs
     id="defs5124" />
  <metadata
     id="metadata5127">
    <rdf:RDF>
      <cc:Work
         rdf:about="">
        <dc:format>image/svg+xml</dc:format>
        <dc:type
           rdf:resource="http://purl.org/dc/dcmitype/StillImage" />
        <dc:title></dc:title>
      </cc:Work>
    </rdf:RDF>
  </metadata>
  <g
     transform="translate(0,-270.27708)"
     id="layer1">
    <g
       transform="matrix(0.26458333,0,0,0.26458333,-0.08120634,270.40937)"
       style="fill:#3697eb"
       id="Notification">
      <g
         style="fill:#3697eb"
         id="g11">
        <g
           style="fill:#3697eb"
           id="g9">
          <path
             style="fill:#3697eb"
             id="path7"
             d="M 90.6,83 83.7,71.6 C 80.5,66.3 78.9,60.3 78.9,54.1 V 44 c 0,-12.7 -8.4,-23.4 -20,-26.8 V 10 c 0,-4.4 -3.6,-8 -8,-8 -4.4,0 -8,3.6 -8,8 v 7.2 c -11.6,3.5 -20,14.2 -20,26.8 v 10 c 0,6.2 -1.7,12.2 -4.8,17.5 l -7,11.5 c -0.4,0.6 -0.4,1.4 0,2 0.4,0.6 1,1 1.7,1 h 76 c 0.7,0 1.4,-0.4 1.7,-1 0.4,-0.6 0.4,-1.4 0.1,-2 z"
             class="st0" />
        </g>
      </g>
      <g
         style="fill:#3697eb"
         id="g17">
        <g
           style="fill:#3697eb"
           id="g15">
          <path
             style="fill:#3697eb"
             id="path13"
             d="m 38.2,90 c 2.3,4.7 7,8 12.6,8 5.6,0 10.3,-3.3 12.6,-8 z"
             class="st0" />
        </g>
      </g>
    </g>
  </g>
</svg>
