<?xml version="1.0" encoding="UTF-8" standalone="no"?>
<svg
   xmlns:dc="http://purl.org/dc/elements/1.1/"
   xmlns:cc="http://creativecommons.org/ns#"
   xmlns:rdf="http://www.w3.org/1999/02/22-rdf-syntax-ns#"
   xmlns:svg="http://www.w3.org/2000/svg"
   xmlns="http://www.w3.org/2000/svg"
   id="svg5130"
   version="1.1"
   viewBox="0 0 26.722916 26.722917"
   height="101"
   width="101">
  <defs
     id="defs5124" />
  <metadata
     id="metadata5127">
    <rdf:RDF>
      <cc:Work
         rdf:about="">
        <dc:format>image/svg+xml</dc:format>
        <dc:type
           rdf:resource="http://purl.org/dc/dcmitype/StillImage" />
        <dc:title></dc:title>
      </cc:Work>
    </rdf:RDF>
  </metadata>
  <g
     transform="translate(0,-270.27708)"
     id="layer1">
    <g
       transform="matrix(0.25857007,0,0,0.25857007,0.43295475,208.65322)"
       style="fill:#3697eb"
       id="Infinity">
      <path
         style="fill:#3697eb"
         id="path52"
         d="M 79.5,268 C 69.1,268 57.7,273.8 50,282.6 42.3,273.8 30.9,268 20.5,268 10.6,268 0,273.8 0,290 c 0,16.2 10.6,22 20.5,22 v 0 c 10.4,0 21.8,-5.8 29.5,-14.6 7.7,8.8 19.1,14.6 29.5,14.6 9.9,0 20.5,-5.8 20.5,-22 0,-16.2 -10.6,-22 -20.5,-22 z m -59,35.2 c -7.6,0 -11.4,-4.4 -11.4,-13.2 0,-8.8 3.8,-13.2 11.4,-13.2 8.4,0 18.1,5.4 24,13.2 -5.9,7.8 -15.6,13.2 -24,13.2 z m 59,0 c -8.4,0 -18.1,-5.4 -24,-13.2 6,-7.8 15.7,-13.2 24,-13.2 7.6,0 11.4,4.4 11.4,13.2 0,8.8 -3.8,13.2 -11.4,13.2 z"
         class="st0" />
    </g>
  </g>
</svg>
