<?xml version="1.0" encoding="UTF-8" standalone="no"?>
<svg
   xmlns:dc="http://purl.org/dc/elements/1.1/"
   xmlns:cc="http://creativecommons.org/ns#"
   xmlns:rdf="http://www.w3.org/1999/02/22-rdf-syntax-ns#"
   xmlns:svg="http://www.w3.org/2000/svg"
   xmlns="http://www.w3.org/2000/svg"
   xmlns:xlink="http://www.w3.org/1999/xlink"
   xmlns:sodipodi="http://sodipodi.sourceforge.net/DTD/sodipodi-0.dtd"
   xmlns:inkscape="http://www.inkscape.org/namespaces/inkscape"
   id="svg5231"
   version="1.1"
   viewBox="0 0 58.208333 111.125"
   height="420"
   width="220"
   sodipodi:docname="screen-social-media.svg"
   inkscape:version="0.92.1 r15371">
  <sodipodi:namedview
     pagecolor="#ffffff"
     bordercolor="#666666"
     borderopacity="1"
     objecttolerance="10"
     gridtolerance="10"
     guidetolerance="10"
     inkscape:pageopacity="0"
     inkscape:pageshadow="2"
     inkscape:window-width="1920"
     inkscape:window-height="1028"
     id="namedview6601"
     showgrid="false"
     inkscape:zoom="3.1786136"
     inkscape:cx="93.683706"
     inkscape:cy="283.31408"
     inkscape:window-x="0"
     inkscape:window-y="0"
     inkscape:window-maximized="1"
     inkscape:current-layer="svg5231" />
  <defs
     id="defs5225">
    <linearGradient
       id="linearGradient7211">
      <stop
         style="stop-color:#33445f;stop-opacity:0.12987013"
         offset="0"
         id="stop7207" />
      <stop
         id="stop7213"
         offset="0.47223946"
         style="stop-color:#424750;stop-opacity:0.7019608" />
      <stop
         style="stop-color:#33445f;stop-opacity:0;"
         offset="1"
         id="stop7209" />
    </linearGradient>
    <filter
       height="1.007207"
       y="-0.0036034775"
       width="1.0143723"
       x="-0.0071861306"
       id="filter4908-6"
       style="color-interpolation-filters:sRGB">
      <feGaussianBlur
         id="feGaussianBlur4910-3"
         stdDeviation="0.16452951" />
    </filter>
    <filter
       height="1.0178903"
       y="-0.0089451401"
       width="1.036447"
       x="-0.018223526"
       id="filter4577-7"
       style="color-interpolation-filters:sRGB">
      <feGaussianBlur
         id="feGaussianBlur4579-7"
         stdDeviation="0.4001667" />
    </filter>
    <filter
       height="1.0056283"
       y="-0.0028141416"
       width="1.0099896"
       x="-0.0049948203"
       id="filter4916-1"
       style="color-interpolation-filters:sRGB">
      <feGaussianBlur
         id="feGaussianBlur4918-3"
         stdDeviation="0.098722652" />
    </filter>
    <filter
       height="1.024"
       y="-0.012"
       width="1.024"
       x="-0.012"
       id="filter5039-1"
       style="color-interpolation-filters:sRGB">
      <feGaussianBlur
         id="feGaussianBlur5041-0"
         stdDeviation="0.0078818125" />
    </filter>
    <filter
       height="1.024"
       y="-0.012"
       width="1.024"
       x="-0.012"
       id="filter5015-7"
       style="color-interpolation-filters:sRGB">
      <feGaussianBlur
         id="feGaussianBlur5017-2"
         stdDeviation="0.0060729522" />
    </filter>
    <filter
       height="1.2869353"
       y="-0.14346766"
       width="1.0237398"
       x="-0.01186988"
       id="filter4963-9"
       style="color-interpolation-filters:sRGB">
      <feGaussianBlur
         id="feGaussianBlur4965-6"
         stdDeviation="0.04889952" />
    </filter>
    <filter
       height="1.0129493"
       y="-0.0064747045"
       width="1.1636733"
       x="-0.081836641"
       id="filter4863-4"
       style="color-interpolation-filters:sRGB">
      <feGaussianBlur
         id="feGaussianBlur4865-4"
         stdDeviation="0.26543101" />
    </filter>
    <linearGradient
       gradientUnits="userSpaceOnUse"
       y2="183.7554"
       x2="-730.53308"
       y1="159.70114"
       x1="-730.80035"
       id="linearGradient4902-3"
       xlink:href="#linearGradient4900" />
    <linearGradient
       id="linearGradient4900">
      <stop
         id="stop4896"
         offset="0"
         style="stop-color:#33445f;stop-opacity:1;" />
      <stop
         id="stop4898"
         offset="1"
         style="stop-color:#33445f;stop-opacity:0;" />
    </linearGradient>
    <filter
       height="1.0129493"
       y="-0.0064747045"
       width="1.1636733"
       x="-0.081836641"
       id="filter4863-5-7"
       style="color-interpolation-filters:sRGB">
      <feGaussianBlur
         id="feGaussianBlur4865-8-5"
         stdDeviation="0.26543101" />
    </filter>
    <linearGradient
       gradientUnits="userSpaceOnUse"
       y2="183.7554"
       x2="-730.53308"
       y1="159.70114"
       x1="-730.80035"
       id="linearGradient4902-3-2"
       xlink:href="#linearGradient4900" />
    <filter
       style="color-interpolation-filters:sRGB"
       id="filter4916-1-4"
       x="-0.0049948203"
       width="1.0099896"
       y="-0.0028141416"
       height="1.0056283">
      <feGaussianBlur
         stdDeviation="0.098722652"
         id="feGaussianBlur4918-3-8" />
    </filter>
  </defs>
  <metadata
     id="metadata5228">
    <rdf:RDF>
      <cc:Work
         rdf:about="">
        <dc:format>image/svg+xml</dc:format>
        <dc:type
           rdf:resource="http://purl.org/dc/dcmitype/StillImage" />
        <dc:title />
      </cc:Work>
    </rdf:RDF>
  </metadata>
  <rect
     style="fill:#ffffff;stroke:none;stroke-width:0.07534195"
     x="5.2776408"
     id="rect41"
     height="72.243675"
     width="47.909958"
     class="st1"
     y="22.45648" />
  <rect
     style="fill:#3f3f3f;stroke-width:0.06367426"
     y="13.205624"
     x="5.2776408"
     id="rect5"
     height="10.28202"
     width="47.909958"
     class="st0" />
  <g
     id="g13"
     transform="matrix(0.06346925,0,0,0.06346925,5.27764,13.205622)">
    <rect
       style="fill:#ffffff"
       id="rect7"
       height="2"
       width="35.700001"
       class="st1"
       y="66"
       x="60.299999" />
    <rect
       style="fill:#ffffff"
       id="rect9"
       height="2"
       width="35.700001"
       class="st1"
       y="94"
       x="60.299999" />
    <rect
       style="fill:#ffffff"
       id="rect11"
       height="2"
       width="35.700001"
       class="st1"
       y="80"
       x="60.299999" />
  </g>
  <g
     id="g37"
     transform="matrix(0.06346925,0,0,0.06346925,5.27764,13.205622)">
    <path
       style="fill:#ffffff"
       inkscape:connector-curvature="0"
       id="path15"
       d="m 157.8,71.9 c -0.8,-1 -2,-1.7 -3.4,-2.3 -1.4,-0.6 -3,-0.9 -4.8,-0.9 -2.6,0 -4.6,0.5 -5.8,1.5 -1.2,1 -1.8,2.3 -1.8,4.1 0,0.9 0.2,1.6 0.5,2.2 0.3,0.6 0.8,1.1 1.5,1.5 0.7,0.4 1.5,0.8 2.6,1.1 1,0.3 2.3,0.6 3.7,0.9 1.6,0.3 3,0.7 4.3,1.1 1.3,0.4 2.4,0.9 3.3,1.6 0.9,0.6 1.6,1.4 2.1,2.3 0.5,0.9 0.7,2 0.7,3.4 0,1.4 -0.3,2.6 -0.8,3.6 -0.5,1 -1.3,1.8 -2.2,2.5 -1,0.7 -2.1,1.2 -3.4,1.5 -1.3,0.3 -2.8,0.5 -4.3,0.5 -4.6,0 -8.6,-1.4 -12,-4.3 l 1.5,-2.4 c 0.5,0.6 1.2,1.1 1.9,1.6 0.7,0.5 1.6,0.9 2.5,1.3 0.9,0.4 1.9,0.7 2.9,0.9 1,0.2 2.1,0.3 3.3,0.3 2.4,0 4.2,-0.4 5.6,-1.3 1.3,-0.9 2,-2.1 2,-3.9 0,-0.9 -0.2,-1.7 -0.6,-2.3 -0.4,-0.6 -0.9,-1.2 -1.7,-1.6 -0.8,-0.5 -1.7,-0.9 -2.8,-1.2 -1.1,-0.3 -2.4,-0.7 -3.9,-1 -1.6,-0.4 -2.9,-0.7 -4.1,-1.1 -1.2,-0.4 -2.2,-0.9 -3,-1.5 -0.8,-0.6 -1.4,-1.3 -1.8,-2.1 -0.4,-0.8 -0.6,-1.8 -0.6,-3 0,-1.4 0.3,-2.6 0.8,-3.7 0.5,-1.1 1.3,-2 2.2,-2.7 1,-0.7 2.1,-1.3 3.4,-1.6 1.3,-0.4 2.7,-0.6 4.3,-0.6 2,0 3.8,0.3 5.3,0.9 1.6,0.6 3,1.4 4.2,2.5 z"
       class="st1" />
    <path
       style="fill:#ffffff"
       inkscape:connector-curvature="0"
       id="path17"
       d="m 174.6,96.5 c -1.6,0 -3.1,-0.3 -4.4,-0.9 -1.3,-0.6 -2.5,-1.4 -3.4,-2.5 -1,-1 -1.7,-2.2 -2.2,-3.6 -0.5,-1.4 -0.8,-2.8 -0.8,-4.3 0,-1.5 0.3,-3 0.8,-4.4 0.5,-1.4 1.3,-2.6 2.3,-3.6 1,-1 2.1,-1.9 3.4,-2.5 1.3,-0.6 2.8,-0.9 4.3,-0.9 1.6,0 3,0.3 4.3,0.9 1.3,0.6 2.5,1.4 3.4,2.5 1,1 1.7,2.2 2.3,3.6 0.5,1.4 0.8,2.8 0.8,4.4 0,1.5 -0.3,3 -0.8,4.3 -0.5,1.4 -1.3,2.6 -2.2,3.6 -1,1 -2.1,1.9 -3.4,2.5 -1.4,0.6 -2.8,0.9 -4.4,0.9 z m -8,-11.2 c 0,1.2 0.2,2.4 0.6,3.4 0.4,1.1 1,2 1.7,2.8 0.7,0.8 1.6,1.4 2.5,1.9 1,0.4 2,0.7 3.1,0.7 1.1,0 2.1,-0.2 3.1,-0.7 1,-0.5 1.8,-1.1 2.5,-1.9 0.7,-0.8 1.3,-1.7 1.7,-2.8 0.4,-1.1 0.6,-2.2 0.6,-3.4 0,-1.2 -0.2,-2.3 -0.6,-3.4 -0.4,-1.1 -1,-2 -1.7,-2.8 -0.7,-0.8 -1.6,-1.4 -2.5,-1.9 -0.9,-0.5 -2,-0.7 -3.1,-0.7 -1.1,0 -2.1,0.2 -3.1,0.7 -1,0.5 -1.8,1.1 -2.5,1.9 -0.7,0.8 -1.3,1.8 -1.7,2.8 -0.4,1 -0.6,2.1 -0.6,3.4 z"
       class="st1" />
    <path
       style="fill:#ffffff"
       inkscape:connector-curvature="0"
       id="path19"
       d="m 188.7,85.1 c 0,-1.5 0.3,-3 0.8,-4.4 0.5,-1.4 1.3,-2.6 2.2,-3.6 1,-1 2.1,-1.8 3.5,-2.4 1.3,-0.6 2.8,-0.9 4.5,-0.9 2.1,0 3.9,0.5 5.4,1.4 1.5,0.9 2.7,2.2 3.5,3.8 l -2.8,0.9 c -0.6,-1.1 -1.5,-2 -2.6,-2.6 -1.1,-0.6 -2.3,-0.9 -3.7,-0.9 -1.1,0 -2.2,0.2 -3.1,0.7 -1,0.4 -1.8,1.1 -2.5,1.8 -0.7,0.8 -1.3,1.7 -1.7,2.8 -0.4,1.1 -0.6,2.2 -0.6,3.5 0,1.2 0.2,2.4 0.6,3.5 0.4,1.1 1,2 1.7,2.8 0.7,0.8 1.6,1.4 2.5,1.9 1,0.5 2,0.7 3.1,0.7 0.7,0 1.4,-0.1 2.1,-0.3 0.7,-0.2 1.3,-0.5 1.9,-0.8 0.6,-0.4 1.1,-0.7 1.5,-1.2 0.4,-0.4 0.7,-0.9 0.9,-1.4 l 2.8,0.8 c -0.3,0.8 -0.8,1.5 -1.3,2.2 -0.6,0.7 -1.3,1.2 -2.1,1.7 -0.8,0.5 -1.7,0.9 -2.6,1.1 -0.9,0.2 -2,0.4 -3,0.4 -1.6,0 -3.1,-0.3 -4.4,-0.9 -1.3,-0.6 -2.5,-1.4 -3.5,-2.5 -1,-1.1 -1.7,-2.3 -2.3,-3.6 -0.5,-1.4 -0.8,-2.9 -0.8,-4.5 z"
       class="st1" />
    <path
       style="fill:#ffffff"
       inkscape:connector-curvature="0"
       id="path21"
       d="m 213.3,69.7 v -4.2 h 2.9 v 4.2 z m 0,26.4 V 74.2 h 2.9 v 21.9 z"
       class="st1" />
    <path
       style="fill:#ffffff"
       inkscape:connector-curvature="0"
       id="path23"
       d="m 227.9,96.5 c -1,0 -2,-0.2 -2.9,-0.5 -0.9,-0.3 -1.7,-0.8 -2.3,-1.4 -0.7,-0.6 -1.2,-1.3 -1.5,-2.2 -0.4,-0.8 -0.5,-1.7 -0.5,-2.7 0,-1 0.2,-1.8 0.7,-2.6 0.4,-0.8 1.1,-1.5 1.9,-2.1 0.8,-0.6 1.8,-1 2.9,-1.4 1.1,-0.3 2.4,-0.5 3.7,-0.5 1.1,0 2.3,0.1 3.4,0.3 1.1,0.2 2.2,0.5 3.1,0.8 v -2 c 0,-1.9 -0.5,-3.5 -1.6,-4.6 -1.1,-1.1 -2.6,-1.7 -4.5,-1.7 -1.1,0 -2.3,0.2 -3.4,0.7 -1.2,0.4 -2.4,1.1 -3.6,1.9 l -1,-1.9 c 2.8,-1.9 5.6,-2.9 8.2,-2.9 2.7,0 4.9,0.8 6.5,2.3 1.6,1.5 2.4,3.7 2.4,6.4 v 9.9 c 0,0.8 0.3,1.2 1,1.2 V 96 c -0.5,0.1 -0.8,0.1 -1.1,0.1 -0.7,0 -1.3,-0.2 -1.7,-0.5 -0.4,-0.4 -0.6,-0.9 -0.7,-1.5 l -0.1,-1.7 c -1,1.3 -2.3,2.3 -3.8,3 -1.7,0.8 -3.3,1.1 -5.1,1.1 z m 0.7,-2.1 c 1.5,0 2.8,-0.3 4.1,-0.8 1.2,-0.6 2.2,-1.3 2.8,-2.2 0.3,-0.3 0.4,-0.5 0.6,-0.8 0.1,-0.3 0.2,-0.6 0.2,-0.8 v -3.6 c -1,-0.4 -1.9,-0.6 -3,-0.8 -1,-0.2 -2.1,-0.3 -3.1,-0.3 -2,0 -3.7,0.4 -4.9,1.3 -1.3,0.8 -1.9,1.9 -1.9,3.3 0,0.7 0.1,1.3 0.4,1.9 0.3,0.6 0.6,1.1 1.1,1.5 0.5,0.4 1,0.8 1.7,1 0.6,0.1 1.3,0.3 2,0.3 z"
       class="st1" />
    <path
       style="fill:#ffffff"
       inkscape:connector-curvature="0"
       id="path25"
       d="m 245.5,65.5 h 2.9 v 25.7 c 0,0.8 0.2,1.4 0.7,1.9 0.5,0.5 1.1,0.7 1.9,0.7 0.3,0 0.7,0 1.1,-0.1 0.4,-0.1 0.8,-0.2 1.2,-0.3 l 0.5,2.3 c -0.5,0.2 -1.2,0.4 -2,0.5 -0.8,0.1 -1.4,0.2 -2,0.2 -1.3,0 -2.4,-0.4 -3.1,-1.1 -0.8,-0.7 -1.1,-1.8 -1.1,-3.1 V 65.5 Z"
       class="st1" />
    <path
       style="fill:#ffffff"
       inkscape:connector-curvature="0"
       id="path27"
       d="M 293.2,96.1 V 71.6 l -10.9,18.9 h -1.7 L 269.7,71.6 v 24.5 h -2.9 V 66.3 h 3 l 11.6,20.4 11.7,-20.4 h 3 v 29.8 z"
       class="st1" />
    <path
       style="fill:#ffffff"
       inkscape:connector-curvature="0"
       id="path29"
       d="m 312.2,96.5 c -1.6,0 -3.1,-0.3 -4.4,-0.9 -1.3,-0.6 -2.5,-1.4 -3.5,-2.5 -1,-1.1 -1.7,-2.3 -2.3,-3.6 -0.5,-1.4 -0.8,-2.8 -0.8,-4.4 0,-1.5 0.3,-3 0.8,-4.3 0.5,-1.4 1.3,-2.5 2.3,-3.6 1,-1 2.1,-1.8 3.5,-2.4 1.3,-0.6 2.8,-0.9 4.4,-0.9 1.6,0 3.1,0.3 4.4,0.9 1.3,0.6 2.5,1.4 3.4,2.5 1,1 1.7,2.2 2.2,3.6 0.5,1.3 0.8,2.8 0.8,4.3 0,0.2 0,0.4 0,0.7 0,0.2 0,0.4 0,0.5 h -18.7 c 0.1,1.2 0.4,2.3 0.8,3.3 0.5,1 1.1,1.9 1.8,2.6 0.7,0.7 1.6,1.3 2.5,1.7 0.9,0.4 1.9,0.6 3,0.6 0.7,0 1.4,-0.1 2.1,-0.3 0.7,-0.2 1.3,-0.5 1.9,-0.8 0.6,-0.3 1.1,-0.7 1.6,-1.2 0.5,-0.5 0.8,-1 1.1,-1.6 l 2.5,0.7 c -0.3,0.8 -0.8,1.5 -1.4,2.2 -0.6,0.7 -1.3,1.2 -2.1,1.7 -0.8,0.5 -1.7,0.9 -2.7,1.1 -1.2,0 -2.2,0.1 -3.2,0.1 z m 8,-12.5 c -0.1,-1.2 -0.4,-2.2 -0.8,-3.2 -0.5,-1 -1,-1.8 -1.8,-2.5 -0.7,-0.7 -1.5,-1.2 -2.5,-1.6 -0.9,-0.4 -1.9,-0.6 -3,-0.6 -1.1,0 -2.1,0.2 -3,0.6 -1,0.4 -1.8,0.9 -2.5,1.6 -0.7,0.7 -1.3,1.5 -1.7,2.5 -0.4,1 -0.7,2 -0.8,3.2 z"
       class="st1" />
    <path
       style="fill:#ffffff"
       inkscape:connector-curvature="0"
       id="path31"
       d="m 336.3,96.5 c -1.5,0 -2.9,-0.3 -4.2,-0.9 -1.3,-0.6 -2.4,-1.5 -3.3,-2.5 -0.9,-1 -1.6,-2.2 -2.2,-3.6 -0.5,-1.4 -0.8,-2.8 -0.8,-4.3 0,-1.5 0.3,-3 0.8,-4.4 0.5,-1.4 1.2,-2.6 2.1,-3.6 0.9,-1 1.9,-1.9 3.2,-2.5 1.2,-0.6 2.6,-0.9 4,-0.9 1.8,0 3.5,0.5 4.9,1.4 1.4,0.9 2.5,2.1 3.4,3.5 V 65.5 h 2.9 v 27 c 0,0.8 0.3,1.2 1,1.2 v 2.5 c -0.4,0.1 -0.8,0.1 -1,0.1 -0.7,0 -1.3,-0.2 -1.8,-0.7 -0.5,-0.4 -0.8,-1 -0.8,-1.6 v -2.1 c -0.9,1.4 -2,2.6 -3.5,3.4 -1.5,0.8 -3.1,1.2 -4.7,1.2 z M 337,94 c 0.7,0 1.4,-0.1 2.2,-0.4 0.8,-0.3 1.5,-0.7 2.2,-1.2 0.7,-0.5 1.3,-1.1 1.8,-1.7 0.5,-0.7 0.8,-1.4 0.9,-2.1 v -6.8 c -0.3,-0.8 -0.7,-1.5 -1.2,-2.1 -0.5,-0.7 -1.1,-1.2 -1.8,-1.7 -0.7,-0.5 -1.4,-0.9 -2.2,-1.2 -0.8,-0.3 -1.6,-0.4 -2.3,-0.4 -1.2,0 -2.2,0.3 -3.2,0.8 -1,0.5 -1.8,1.2 -2.5,2 -0.7,0.8 -1.2,1.8 -1.6,2.8 -0.4,1.1 -0.5,2.2 -0.5,3.3 0,1.2 0.2,2.3 0.6,3.4 0.4,1.1 1,2 1.7,2.8 0.7,0.8 1.6,1.4 2.6,1.9 1.1,0.4 2.1,0.6 3.3,0.6 z"
       class="st1" />
    <path
       style="fill:#ffffff"
       inkscape:connector-curvature="0"
       id="path33"
       d="m 353.5,69.7 v -4.2 h 2.9 v 4.2 z m 0,26.4 V 74.2 h 2.9 v 21.9 z"
       class="st1" />
    <path
       style="fill:#ffffff"
       inkscape:connector-curvature="0"
       id="path35"
       d="m 368.1,96.5 c -1,0 -2,-0.2 -2.9,-0.5 -0.9,-0.3 -1.7,-0.8 -2.3,-1.4 -0.7,-0.6 -1.2,-1.3 -1.5,-2.2 -0.4,-0.8 -0.5,-1.7 -0.5,-2.7 0,-1 0.2,-1.8 0.7,-2.6 0.5,-0.8 1.1,-1.5 1.9,-2.1 0.8,-0.6 1.8,-1 2.9,-1.4 1.1,-0.3 2.4,-0.5 3.7,-0.5 1.1,0 2.3,0.1 3.4,0.3 1.1,0.2 2.2,0.5 3.1,0.8 v -2 c 0,-1.9 -0.5,-3.5 -1.6,-4.6 -1.1,-1.1 -2.6,-1.7 -4.5,-1.7 -1.1,0 -2.3,0.2 -3.4,0.7 -1.2,0.4 -2.4,1.1 -3.6,1.9 l -1,-1.9 c 2.8,-1.9 5.6,-2.9 8.2,-2.9 2.7,0 4.9,0.8 6.5,2.3 1.6,1.5 2.4,3.7 2.4,6.4 v 9.9 c 0,0.8 0.3,1.2 1,1.2 V 96 c -0.5,0.1 -0.8,0.1 -1.1,0.1 -0.7,0 -1.3,-0.2 -1.7,-0.5 -0.4,-0.4 -0.6,-0.9 -0.7,-1.5 L 377,92.4 c -1,1.3 -2.3,2.3 -3.8,3 -1.7,0.8 -3.3,1.1 -5.1,1.1 z m 0.7,-2.1 c 1.5,0 2.8,-0.3 4.1,-0.8 1.2,-0.6 2.2,-1.3 2.8,-2.2 0.3,-0.3 0.4,-0.5 0.6,-0.8 0.2,-0.3 0.2,-0.6 0.2,-0.8 v -3.6 c -1,-0.4 -1.9,-0.6 -3,-0.8 -1,-0.2 -2.1,-0.3 -3.1,-0.3 -2,0 -3.7,0.4 -4.9,1.3 -1.3,0.8 -1.9,1.9 -1.9,3.3 0,0.7 0.1,1.3 0.4,1.9 0.3,0.6 0.6,1.1 1.1,1.5 0.5,0.4 1,0.8 1.7,1 0.7,0.2 1.3,0.3 2,0.3 z"
       class="st1" />
  </g>
  <rect
     style="fill:#f9f9f9;stroke-width:0.06346925;stroke:none"
     x="5.2776408"
     id="rect39"
     height="6.5627213"
     width="47.60194"
     class="st2"
     y="23.487644" />
  <rect
     style="fill:#f9f9f9;stroke-width:0.06346925;stroke:none"
     x="5.2776408"
     id="rect43"
     height="6.537333"
     width="47.60194"
     class="st2"
     y="36.530575" />
  <g
     id="g49"
     transform="matrix(0.06346925,0,0,0.06346925,5.27764,13.205622)">
    <path
       style="fill:#438bc9"
       inkscape:connector-curvature="0"
       id="path47"
       d="m 89.7,188.6 h -6.6 c -7.4,0 -12.2,4.9 -12.2,12.5 v 5.8 h -6.6 c -0.6,0 -1,0.5 -1,1 v 8.3 c 0,0.6 0.5,1 1,1 H 71 v 21 c 0,0.6 0.5,1 1,1 h 8.6 c 0.6,0 1,-0.5 1,-1 v -21 h 7.7 c 0.6,0 1,-0.5 1,-1 v -8.3 c 0,-0.3 -0.1,-0.5 -0.3,-0.7 -0.2,-0.2 -0.5,-0.3 -0.7,-0.3 H 81.6 V 202 c 0,-2.3 0.6,-3.5 3.6,-3.5 h 4.4 c 0.6,0 1,-0.5 1,-1 v -7.7 c 0.1,-0.7 -0.3,-1.2 -0.9,-1.2 z"
       class="st3" />
  </g>
  <g
     id="g55"
     transform="matrix(0.06346925,0,0,0.06346925,5.27764,13.205622)">
    <path
       style="fill:#438bc9"
       inkscape:connector-curvature="0"
       id="path51"
       d="m 70.4,525.5 h 8 c -1.4,3.9 -5.2,6.8 -9.6,6.7 -5.4,0 -9.8,-4.3 -10,-9.7 -0.2,-5.8 4.4,-10.5 10.1,-10.5 2.6,0 5,1 6.8,2.6 0.4,0.4 1.1,0.4 1.5,0 l 2.9,-2.8 c 0.5,-0.4 0.5,-1.2 0,-1.6 -2.8,-2.7 -6.7,-4.4 -10.9,-4.5 -9,-0.2 -16.6,7.2 -16.6,16.2 -0.1,9.1 7.3,16.4 16.3,16.4 8.7,0 15.8,-6.8 16.3,-15.4 0,-0.1 0,-3.7 0,-3.7 H 70.4 c -0.6,0 -1.1,0.5 -1.1,1.1 v 4 c 0,0.7 0.5,1.2 1.1,1.2 z"
       class="st3" />
    <path
       style="fill:#438bc9"
       inkscape:connector-curvature="0"
       id="path53"
       d="m 98.6,519.6 v -3.9 c 0,-0.5 -0.4,-1 -1,-1 h -3.3 c -0.5,0 -1,0.4 -1,1 v 3.9 h -3.9 c -0.5,0 -1,0.4 -1,1 v 3.3 c 0,0.5 0.4,1 1,1 h 3.9 v 3.9 c 0,0.5 0.4,1 1,1 h 3.3 c 0.5,0 1,-0.4 1,-1 v -3.9 h 3.9 c 0.5,0 1,-0.4 1,-1 v -3.3 c 0,-0.5 -0.4,-1 -1,-1 z"
       class="st3" />
  </g>
  <path
     style="fill:#438bc9;stroke-width:0.06346925"
     inkscape:connector-curvature="0"
     id="path57"
     d="m 11.63726,32.322572 c -0.0698,0.0317 -0.13964,0.0508 -0.20945,0.0698 0.0762,-0.0762 0.13963,-0.17137 0.17137,-0.27292 v 0 c 0.0127,-0.0317 -0.0254,-0.0571 -0.0508,-0.0381 v 0 c -0.10155,0.0571 -0.20945,0.10155 -0.31735,0.13329 -0.006,0 -0.0127,0 -0.019,0 -0.019,0 -0.0381,-0.006 -0.0571,-0.019 -0.12059,-0.1079 -0.27292,-0.16502 -0.43159,-0.16502 -0.0698,0 -0.13963,0.0127 -0.20945,0.0317 -0.20945,0.0635 -0.37447,0.24119 -0.42524,0.45698 -0.019,0.0825 -0.0254,0.16502 -0.0127,0.24118 0,0.006 -0.006,0.0127 -0.006,0.019 -0.006,0.006 -0.0127,0.006 -0.019,0.006 0,0 0,0 0,0 -0.46332,-0.0444 -0.88222,-0.26657 -1.18052,-0.62834 v 0 c -0.0127,-0.019 -0.0444,-0.019 -0.0571,0.006 v 0 c -0.0571,0.10155 -0.0889,0.2158 -0.0889,0.33004 0,0.17772 0.0698,0.34274 0.19675,0.46333 -0.0508,-0.0127 -0.10155,-0.0317 -0.15232,-0.0571 v 0 c -0.0254,-0.0127 -0.0508,0.006 -0.0508,0.0317 v 0 c -0.006,0.26657 0.15233,0.49506 0.38082,0.60296 -0.006,0 -0.006,0 -0.0127,0 -0.0381,0 -0.0762,-0.006 -0.1079,-0.0127 v 0 c -0.0254,-0.006 -0.0444,0.019 -0.0381,0.0444 v 0 c 0.0762,0.23484 0.27927,0.40621 0.52045,0.44429 -0.2031,0.13328 -0.43159,0.2031 -0.67912,0.2031 h -0.0762 c -0.0254,0 -0.0444,0.0127 -0.0508,0.0381 -0.006,0.0254 0.006,0.0444 0.0254,0.0571 0.27292,0.15868 0.58392,0.24119 0.90126,0.24119 0.27927,0 0.53949,-0.0571 0.76798,-0.16502 0.2158,-0.10155 0.4062,-0.24119 0.56488,-0.42525 0.14598,-0.17137 0.26657,-0.36177 0.34273,-0.57757 0.0762,-0.2031 0.11425,-0.42524 0.11425,-0.63469 v -0.0127 c 0,-0.0317 0.0127,-0.0635 0.0444,-0.0889 0.10156,-0.0825 0.19041,-0.17772 0.26023,-0.28561 v 0 c 0.019,-0.0127 -0.006,-0.0508 -0.0381,-0.0381 z"
     class="st3" />
  <g
     id="g65"
     transform="matrix(0.06346925,0,0,0.06346925,5.27764,13.205622)">
    <path
       style="fill:#438bc9"
       inkscape:connector-curvature="0"
       id="path59"
       d="M 88.4,393.7 H 65.7 c -7.7,0 -14,6.3 -14,14 v 22.7 c 0,7.7 6.3,14 14,14 h 22.7 c 7.7,0 14,-6.3 14,-14 v -22.7 c -0.1,-7.7 -6.3,-14 -14,-14 z m 9.4,36.7 c 0,5.2 -4.2,9.5 -9.5,9.5 H 65.7 c -5.2,0 -9.5,-4.2 -9.5,-9.5 v -22.7 c 0,-5.2 4.2,-9.5 9.5,-9.5 h 22.7 c 5.2,0 9.5,4.2 9.5,9.5 z"
       class="st3" />
    <path
       style="fill:#438bc9"
       inkscape:connector-curvature="0"
       id="path61"
       d="m 77,406 c -7.2,0 -13,5.8 -13,13 0,7.2 5.8,13 13,13 7.2,0 13,-5.8 13,-13 0.1,-7.1 -5.8,-13 -13,-13 z m 0,21.6 c -4.7,0 -8.5,-3.8 -8.5,-8.5 0,-4.7 3.8,-8.5 8.5,-8.5 4.7,0 8.5,3.8 8.5,8.5 0.1,4.7 -3.7,8.5 -8.5,8.5 z"
       class="st3" />
    <path
       style="fill:#438bc9"
       inkscape:connector-curvature="0"
       id="path63"
       d="m 90.6,402.2 c -0.9,0 -1.7,0.4 -2.3,1 -0.6,0.6 -1,1.5 -1,2.3 0,0.9 0.4,1.7 1,2.3 0.6,0.6 1.5,1 2.3,1 0.9,0 1.7,-0.4 2.3,-1 0.6,-0.6 1,-1.5 1,-2.3 0,-0.9 -0.4,-1.7 -1,-2.3 -0.6,-0.6 -1.4,-1 -2.3,-1 z"
       class="st3" />
  </g>
  <rect
     style="fill:#3f3f3f;stroke-width:0.06367426"
     x="5.2776408"
     id="rect67"
     height="3.1734629"
     width="47.909958"
     class="st0"
     y="94.700142" />
  <g
     id="g85"
     transform="matrix(0.06346925,0,0,0.06346925,5.27764,13.205622)">
    <path
       style="fill:#3f3f3f"
       inkscape:connector-curvature="0"
       id="path69"
       d="m 140.1,222 v -17 h 11.2 v 1.5 h -9.5 v 6.3 h 8 v 1.4 h -8 v 7.9 h -1.7 z"
       class="st0" />
    <path
       style="fill:#3f3f3f"
       inkscape:connector-curvature="0"
       id="path71"
       d="m 155,222.2 c -0.6,0 -1.1,-0.1 -1.6,-0.3 -0.5,-0.2 -0.9,-0.5 -1.3,-0.8 -0.4,-0.4 -0.7,-0.8 -0.9,-1.2 -0.2,-0.5 -0.3,-1 -0.3,-1.5 0,-0.5 0.1,-1 0.4,-1.5 0.3,-0.5 0.6,-0.9 1.1,-1.2 0.5,-0.3 1,-0.6 1.7,-0.8 0.6,-0.2 1.3,-0.3 2.1,-0.3 0.6,0 1.3,0.1 1.9,0.2 0.7,0.1 1.2,0.3 1.8,0.5 v -1.1 c 0,-1.1 -0.3,-2 -0.9,-2.6 -0.6,-0.6 -1.5,-1 -2.6,-1 -0.6,0 -1.3,0.1 -2,0.4 -0.7,0.3 -1.4,0.6 -2,1.1 l -0.6,-1.1 c 1.6,-1.1 3.2,-1.6 4.7,-1.6 1.6,0 2.8,0.4 3.7,1.3 0.9,0.9 1.3,2.1 1.3,3.6 v 5.6 c 0,0.4 0.2,0.7 0.6,0.7 v 1.4 c -0.3,0 -0.5,0.1 -0.6,0.1 -0.4,0 -0.7,-0.1 -1,-0.3 -0.2,-0.2 -0.4,-0.5 -0.4,-0.9 v -1 c -0.6,0.8 -1.3,1.3 -2.2,1.7 -0.9,0.4 -1.9,0.6 -2.9,0.6 z m 0.4,-1.2 c 0.8,0 1.6,-0.2 2.3,-0.5 0.7,-0.3 1.3,-0.7 1.6,-1.3 0.1,-0.1 0.3,-0.3 0.3,-0.5 0.1,-0.2 0.1,-0.3 0.1,-0.5 v -2 c -0.5,-0.2 -1.1,-0.4 -1.7,-0.5 -0.6,-0.1 -1.2,-0.2 -1.8,-0.2 -1.2,0 -2.1,0.2 -2.8,0.7 -0.7,0.5 -1.1,1.1 -1.1,1.9 0,0.4 0.1,0.7 0.2,1.1 0.2,0.3 0.4,0.6 0.6,0.9 0.3,0.2 0.6,0.4 0.9,0.6 0.3,0.2 1,0.3 1.4,0.3 z"
       class="st0" />
    <path
       style="fill:#3f3f3f"
       inkscape:connector-curvature="0"
       id="path73"
       d="m 164.1,215.7 c 0,-0.9 0.2,-1.7 0.5,-2.5 0.3,-0.8 0.7,-1.5 1.3,-2.1 0.6,-0.6 1.2,-1 2,-1.4 0.8,-0.3 1.6,-0.5 2.5,-0.5 1.2,0 2.2,0.3 3.1,0.8 0.9,0.5 1.5,1.3 2,2.2 l -1.6,0.5 c -0.4,-0.6 -0.8,-1.1 -1.5,-1.5 -0.6,-0.4 -1.3,-0.5 -2.1,-0.5 -0.6,0 -1.2,0.1 -1.8,0.4 -0.6,0.3 -1,0.6 -1.4,1 -0.4,0.4 -0.7,1 -1,1.6 -0.3,0.6 -0.3,1.3 -0.3,2 0,0.7 0.1,1.4 0.4,2 0.2,0.6 0.6,1.2 1,1.6 0.4,0.5 0.9,0.8 1.5,1.1 0.6,0.3 1.1,0.4 1.8,0.4 0.4,0 0.8,-0.1 1.2,-0.2 0.4,-0.1 0.8,-0.3 1.1,-0.5 0.3,-0.2 0.6,-0.4 0.9,-0.7 0.2,-0.3 0.4,-0.5 0.5,-0.8 l 1.6,0.5 c -0.2,0.4 -0.4,0.9 -0.8,1.2 -0.3,0.4 -0.7,0.7 -1.2,1 -0.5,0.3 -1,0.5 -1.5,0.6 -0.6,0.2 -1.1,0.2 -1.7,0.2 -0.9,0 -1.8,-0.2 -2.5,-0.5 -0.8,-0.3 -1.4,-0.8 -2,-1.4 -0.6,-0.6 -1,-1.3 -1.3,-2.1 -0.5,-0.7 -0.7,-1.5 -0.7,-2.4 z"
       class="st0" />
    <path
       style="fill:#3f3f3f"
       inkscape:connector-curvature="0"
       id="path75"
       d="m 183.4,222.2 c -0.9,0 -1.7,-0.2 -2.5,-0.5 -0.8,-0.3 -1.4,-0.8 -2,-1.4 -0.6,-0.6 -1,-1.3 -1.3,-2.1 -0.3,-0.8 -0.5,-1.6 -0.5,-2.5 0,-0.9 0.2,-1.7 0.5,-2.5 0.3,-0.8 0.7,-1.5 1.3,-2 0.6,-0.6 1.2,-1 2,-1.4 0.8,-0.3 1.6,-0.5 2.5,-0.5 0.9,0 1.7,0.2 2.5,0.5 0.8,0.3 1.4,0.8 2,1.4 0.5,0.6 1,1.3 1.3,2 0.3,0.8 0.5,1.6 0.5,2.4 0,0.1 0,0.3 0,0.4 0,0.1 0,0.2 0,0.3 H 179 c 0,0.7 0.2,1.3 0.5,1.9 0.3,0.6 0.6,1.1 1,1.5 0.4,0.4 0.9,0.7 1.4,1 0.5,0.2 1.1,0.3 1.7,0.3 0.4,0 0.8,-0.1 1.2,-0.2 0.4,-0.1 0.8,-0.3 1.1,-0.5 0.3,-0.2 0.6,-0.4 0.9,-0.7 0.3,-0.3 0.5,-0.6 0.6,-0.9 l 1.4,0.4 c -0.2,0.5 -0.5,0.9 -0.8,1.3 -0.4,0.4 -0.8,0.7 -1.2,1 -0.5,0.3 -1,0.5 -1.5,0.6 -0.7,0.2 -1.3,0.2 -1.9,0.2 z m 4.6,-7.1 c 0,-0.7 -0.2,-1.3 -0.5,-1.8 -0.3,-0.6 -0.6,-1 -1,-1.4 -0.4,-0.4 -0.9,-0.7 -1.4,-0.9 -0.5,-0.2 -1.1,-0.3 -1.7,-0.3 -0.6,0 -1.2,0.1 -1.7,0.3 -0.5,0.2 -1,0.5 -1.4,0.9 -0.4,0.4 -0.7,0.9 -1,1.4 -0.2,0.6 -0.4,1.2 -0.4,1.8 z"
       class="st0" />
    <path
       style="fill:#3f3f3f"
       inkscape:connector-curvature="0"
       id="path77"
       d="m 198.2,222.2 c -1,0 -1.9,-0.2 -2.7,-0.7 -0.8,-0.5 -1.5,-1.1 -1.9,-1.9 v 2.4 h -1.5 v -17.5 h 1.6 v 7.6 c 0.6,-0.8 1.2,-1.5 2,-2.1 0.8,-0.5 1.7,-0.8 2.7,-0.8 0.9,0 1.7,0.2 2.4,0.6 0.7,0.4 1.3,0.9 1.8,1.5 0.5,0.6 0.9,1.3 1.1,2.1 0.3,0.8 0.4,1.6 0.4,2.4 0,0.9 -0.2,1.7 -0.5,2.5 -0.3,0.8 -0.7,1.5 -1.2,2.1 -0.5,0.6 -1.2,1 -1.9,1.4 -0.6,0.3 -1.4,0.4 -2.3,0.4 z m -0.3,-1.4 c 0.7,0 1.3,-0.1 1.9,-0.4 0.6,-0.3 1.1,-0.7 1.5,-1.1 0.4,-0.5 0.7,-1 1,-1.6 0.2,-0.6 0.3,-1.2 0.3,-1.9 0,-0.7 -0.1,-1.3 -0.3,-1.9 -0.2,-0.6 -0.5,-1.1 -0.9,-1.6 -0.4,-0.5 -0.9,-0.8 -1.4,-1.1 -0.6,-0.3 -1.2,-0.4 -1.8,-0.4 -0.5,0 -1,0.1 -1.4,0.3 -0.4,0.2 -0.8,0.4 -1.2,0.7 -0.4,0.3 -0.7,0.6 -1,1 -0.3,0.4 -0.5,0.8 -0.7,1.2 v 3.9 c 0.1,0.4 0.2,0.8 0.5,1.2 0.3,0.4 0.6,0.7 1,1 0.4,0.3 0.8,0.5 1.3,0.6 0.3,0 0.7,0.1 1.2,0.1 z"
       class="st0" />
    <path
       style="fill:#3f3f3f"
       inkscape:connector-curvature="0"
       id="path79"
       d="m 212.3,222.2 c -0.9,0 -1.7,-0.2 -2.5,-0.5 -0.8,-0.3 -1.4,-0.8 -2,-1.4 -0.6,-0.6 -1,-1.3 -1.3,-2.1 -0.3,-0.8 -0.5,-1.6 -0.5,-2.5 0,-0.9 0.2,-1.7 0.5,-2.5 0.3,-0.8 0.7,-1.5 1.3,-2.1 0.6,-0.6 1.2,-1.1 2,-1.4 0.8,-0.3 1.6,-0.5 2.5,-0.5 0.9,0 1.7,0.2 2.5,0.5 0.8,0.3 1.4,0.8 2,1.4 0.6,0.6 1,1.3 1.3,2.1 0.3,0.8 0.5,1.6 0.5,2.5 0,0.9 -0.2,1.7 -0.5,2.5 -0.3,0.8 -0.7,1.5 -1.3,2.1 -0.6,0.6 -1.2,1.1 -2,1.4 -0.8,0.4 -1.6,0.5 -2.5,0.5 z m -4.6,-6.4 c 0,0.7 0.1,1.4 0.4,2 0.2,0.6 0.6,1.1 1,1.6 0.4,0.5 0.9,0.8 1.4,1.1 0.6,0.3 1.1,0.4 1.8,0.4 0.7,0 1.2,-0.1 1.8,-0.4 0.6,-0.3 1,-0.6 1.5,-1.1 0.4,-0.5 0.7,-1 1,-1.6 0.2,-0.6 0.4,-1.3 0.4,-2 0,-0.7 -0.1,-1.3 -0.4,-2 -0.2,-0.6 -0.6,-1.2 -1,-1.6 -0.4,-0.5 -0.9,-0.8 -1.5,-1.1 -0.6,-0.3 -1.1,-0.4 -1.8,-0.4 -0.7,0 -1.2,0.1 -1.8,0.4 -0.5,0.3 -1,0.6 -1.4,1.1 -0.4,0.5 -0.7,1 -1,1.6 -0.3,0.6 -0.4,1.3 -0.4,2 z"
       class="st0" />
    <path
       style="fill:#3f3f3f"
       inkscape:connector-curvature="0"
       id="path81"
       d="m 226.5,222.2 c -0.9,0 -1.7,-0.2 -2.5,-0.5 -0.8,-0.3 -1.4,-0.8 -2,-1.4 -0.6,-0.6 -1,-1.3 -1.3,-2.1 -0.3,-0.8 -0.5,-1.6 -0.5,-2.5 0,-0.9 0.2,-1.7 0.5,-2.5 0.3,-0.8 0.7,-1.5 1.3,-2.1 0.6,-0.6 1.2,-1.1 2,-1.4 0.8,-0.3 1.6,-0.5 2.5,-0.5 0.9,0 1.7,0.2 2.5,0.5 0.8,0.3 1.4,0.8 2,1.4 0.6,0.6 1,1.3 1.3,2.1 0.3,0.8 0.5,1.6 0.5,2.5 0,0.9 -0.2,1.7 -0.5,2.5 -0.3,0.8 -0.7,1.5 -1.3,2.1 -0.6,0.6 -1.2,1.1 -2,1.4 -0.7,0.4 -1.6,0.5 -2.5,0.5 z m -4.5,-6.4 c 0,0.7 0.1,1.4 0.4,2 0.2,0.6 0.6,1.1 1,1.6 0.4,0.5 0.9,0.8 1.4,1.1 0.6,0.3 1.1,0.4 1.8,0.4 0.7,0 1.2,-0.1 1.8,-0.4 0.6,-0.3 1,-0.6 1.5,-1.1 0.4,-0.5 0.7,-1 1,-1.6 0.2,-0.6 0.4,-1.3 0.4,-2 0,-0.7 -0.1,-1.3 -0.4,-2 -0.2,-0.6 -0.6,-1.2 -1,-1.6 -0.4,-0.5 -0.9,-0.8 -1.5,-1.1 -0.6,-0.3 -1.1,-0.4 -1.8,-0.4 -0.7,0 -1.2,0.1 -1.8,0.4 -0.5,0.3 -1,0.6 -1.4,1.1 -0.4,0.5 -0.7,1 -1,1.6 -0.3,0.6 -0.4,1.3 -0.4,2 z"
       class="st0" />
    <path
       style="fill:#3f3f3f"
       inkscape:connector-curvature="0"
       id="path83"
       d="m 244.4,222 -4.6,-6.4 -2.7,2.5 v 3.9 h -1.6 v -17.5 h 1.6 v 11.9 l 7,-6.9 h 1.8 l -5.1,5.1 5.3,7.4 z"
       class="st0" />
  </g>
  <g
     id="g101"
     transform="matrix(0.06346925,0,0,0.06346925,5.27764,13.205622)">
    <path
       style="fill:#3f3f3f"
       inkscape:connector-curvature="0"
       id="path87"
       d="m 152.2,308.4 h -6.1 V 324 h -1.7 v -15.6 h -6.1 V 307 h 13.8 v 1.4 z"
       class="st0" />
    <path
       style="fill:#3f3f3f"
       inkscape:connector-curvature="0"
       id="path89"
       d="m 168.3,311.5 h 1.6 l -5.4,12.5 h -1.3 l -2.7,-6.4 -2.7,6.4 h -1.3 l -5.4,-12.5 h 1.6 l 4.6,10.8 2.4,-5.7 -2.1,-5.1 h 1.4 l 1.6,4.1 1.6,-4.1 h 1.4 l -2.1,5.1 2.4,5.7 z"
       class="st0" />
    <path
       style="fill:#3f3f3f"
       inkscape:connector-curvature="0"
       id="path91"
       d="m 172.1,308.9 v -2.4 h 1.6 v 2.4 z m 0,15.1 v -12.5 h 1.6 V 324 Z"
       class="st0" />
    <path
       style="fill:#3f3f3f"
       inkscape:connector-curvature="0"
       id="path93"
       d="m 183.3,323.4 c -0.1,0 -0.2,0.1 -0.4,0.2 -0.2,0.1 -0.4,0.2 -0.6,0.2 -0.2,0.1 -0.5,0.2 -0.8,0.2 -0.3,0.1 -0.6,0.1 -1,0.1 -0.4,0 -0.7,0 -1,-0.1 -0.3,-0.1 -0.6,-0.2 -0.8,-0.4 -0.2,-0.2 -0.4,-0.5 -0.6,-0.8 -0.1,-0.3 -0.2,-0.7 -0.2,-1.1 v -9 h -1.7 v -1.3 h 1.7 v -4.2 h 1.6 v 4.2 h 2.9 v 1.3 h -2.9 v 8.5 c 0,0.5 0.2,0.8 0.5,1 0.3,0.2 0.6,0.3 1,0.3 0.5,0 0.9,-0.1 1.2,-0.2 0.4,-0.2 0.6,-0.3 0.7,-0.3 z"
       class="st0" />
    <path
       style="fill:#3f3f3f"
       inkscape:connector-curvature="0"
       id="path95"
       d="m 191.4,323.4 c -0.1,0 -0.2,0.1 -0.4,0.2 -0.2,0.1 -0.4,0.2 -0.6,0.2 -0.2,0.1 -0.5,0.2 -0.8,0.2 -0.3,0.1 -0.6,0.1 -1,0.1 -0.4,0 -0.7,0 -1,-0.1 -0.3,-0.1 -0.6,-0.2 -0.8,-0.4 -0.2,-0.2 -0.4,-0.5 -0.6,-0.8 -0.1,-0.3 -0.2,-0.7 -0.2,-1.1 v -9 h -1.7 v -1.3 h 1.7 v -4.2 h 1.6 v 4.2 h 2.9 v 1.3 h -2.9 v 8.5 c 0,0.5 0.2,0.8 0.5,1 0.3,0.2 0.6,0.3 1,0.3 0.5,0 0.9,-0.1 1.2,-0.2 0.4,-0.2 0.6,-0.3 0.7,-0.3 z"
       class="st0" />
    <path
       style="fill:#3f3f3f"
       inkscape:connector-curvature="0"
       id="path97"
       d="m 198.5,324.2 c -0.9,0 -1.7,-0.2 -2.5,-0.5 -0.8,-0.3 -1.4,-0.8 -2,-1.4 -0.6,-0.6 -1,-1.3 -1.3,-2.1 -0.3,-0.8 -0.5,-1.6 -0.5,-2.5 0,-0.9 0.2,-1.7 0.5,-2.5 0.3,-0.8 0.7,-1.5 1.3,-2 0.6,-0.6 1.2,-1 2,-1.4 0.8,-0.3 1.6,-0.5 2.5,-0.5 0.9,0 1.7,0.2 2.5,0.5 0.8,0.3 1.4,0.8 2,1.4 0.5,0.6 1,1.3 1.3,2 0.3,0.8 0.5,1.6 0.5,2.4 0,0.1 0,0.3 0,0.4 0,0.1 0,0.2 0,0.3 h -10.7 c 0,0.7 0.2,1.3 0.5,1.9 0.3,0.6 0.6,1.1 1,1.5 0.4,0.4 0.9,0.7 1.4,1 0.5,0.2 1.1,0.3 1.7,0.3 0.4,0 0.8,-0.1 1.2,-0.2 0.4,-0.1 0.8,-0.3 1.1,-0.5 0.3,-0.2 0.6,-0.4 0.9,-0.7 0.3,-0.3 0.5,-0.6 0.6,-0.9 l 1.4,0.4 c -0.2,0.5 -0.5,0.9 -0.8,1.3 -0.4,0.4 -0.8,0.7 -1.2,1 -0.5,0.3 -1,0.5 -1.5,0.6 -0.7,0.2 -1.3,0.2 -1.9,0.2 z m 4.6,-7.1 c 0,-0.7 -0.2,-1.3 -0.5,-1.8 -0.3,-0.6 -0.6,-1 -1,-1.4 -0.4,-0.4 -0.9,-0.7 -1.4,-0.9 -0.5,-0.2 -1.1,-0.3 -1.7,-0.3 -0.6,0 -1.2,0.1 -1.7,0.3 -0.5,0.2 -1,0.5 -1.4,0.9 -0.4,0.4 -0.7,0.9 -1,1.4 -0.2,0.6 -0.4,1.2 -0.4,1.8 z"
       class="st0" />
    <path
       style="fill:#3f3f3f"
       inkscape:connector-curvature="0"
       id="path99"
       d="m 213.4,312.9 c -1.1,0 -2.1,0.3 -2.9,0.9 -0.8,0.6 -1.4,1.4 -1.7,2.4 v 7.8 h -1.6 v -12.5 h 1.5 v 3 c 0.5,-1 1.1,-1.7 1.9,-2.3 0.8,-0.5 1.6,-0.8 2.5,-0.8 0.1,0 0.2,0 0.3,0 z"
       class="st0" />
  </g>
  <g
     id="g121"
     transform="matrix(0.06346925,0,0,0.06346925,5.27764,13.205622)">
    <path
       style="fill:#3f3f3f"
       inkscape:connector-curvature="0"
       id="path103"
       d="m 140.1,427 v -17 h 1.7 v 17 z"
       class="st0" />
    <path
       style="fill:#3f3f3f"
       inkscape:connector-curvature="0"
       id="path105"
       d="m 156.3,427 h -1.6 v -7 c 0,-1.5 -0.2,-2.6 -0.7,-3.2 -0.4,-0.7 -1.1,-1 -2,-1 -0.5,0 -1,0.1 -1.4,0.3 -0.5,0.2 -0.9,0.4 -1.3,0.7 -0.4,0.3 -0.8,0.7 -1.1,1.1 -0.3,0.4 -0.6,0.9 -0.7,1.4 v 7.7 h -1.6 v -12.5 h 1.5 v 2.8 c 0.5,-0.9 1.2,-1.6 2.2,-2.2 1,-0.6 2,-0.8 3.1,-0.8 0.7,0 1.3,0.1 1.8,0.4 0.5,0.3 0.9,0.6 1.2,1.1 0.3,0.5 0.5,1 0.6,1.7 0.1,0.7 0.2,1.4 0.2,2.2 v 7.3 z"
       class="st0" />
    <path
       style="fill:#3f3f3f"
       inkscape:connector-curvature="0"
       id="path107"
       d="m 163.9,427.2 c -1,0 -1.9,-0.2 -2.9,-0.5 -0.9,-0.3 -1.7,-0.8 -2.4,-1.4 l 0.7,-1.1 c 0.7,0.6 1.4,1 2.1,1.3 0.7,0.3 1.5,0.4 2.3,0.4 1,0 1.8,-0.2 2.4,-0.6 0.6,-0.4 0.9,-1 0.9,-1.7 0,-0.4 -0.1,-0.6 -0.2,-0.9 -0.2,-0.2 -0.4,-0.4 -0.7,-0.6 -0.3,-0.2 -0.7,-0.3 -1.2,-0.5 -0.5,-0.1 -1,-0.3 -1.6,-0.4 -0.7,-0.2 -1.3,-0.4 -1.9,-0.5 -0.5,-0.2 -1,-0.4 -1.3,-0.6 -0.3,-0.2 -0.6,-0.5 -0.8,-0.8 -0.2,-0.3 -0.3,-0.7 -0.3,-1.2 0,-0.6 0.1,-1.2 0.4,-1.7 0.2,-0.5 0.6,-0.9 1,-1.2 0.4,-0.3 0.9,-0.5 1.5,-0.7 0.6,-0.2 1.2,-0.2 1.8,-0.2 1,0 1.8,0.2 2.6,0.5 0.8,0.3 1.4,0.7 1.9,1.2 l -0.8,1 c -0.5,-0.5 -1,-0.8 -1.7,-1.1 -0.7,-0.2 -1.4,-0.4 -2.1,-0.4 -0.4,0 -0.8,0 -1.2,0.1 -0.4,0.1 -0.7,0.2 -1,0.4 -0.3,0.2 -0.5,0.4 -0.7,0.7 -0.2,0.3 -0.2,0.6 -0.2,1 0,0.3 0.1,0.6 0.2,0.8 0.1,0.2 0.3,0.4 0.6,0.5 0.3,0.2 0.6,0.3 1,0.4 0.4,0.1 0.9,0.2 1.4,0.4 0.8,0.2 1.5,0.4 2.1,0.6 0.6,0.2 1.1,0.4 1.5,0.7 0.4,0.3 0.7,0.6 0.9,0.9 0.2,0.4 0.3,0.8 0.3,1.3 0,1.2 -0.4,2.1 -1.3,2.7 -0.9,0.6 -1.8,1.2 -3.3,1.2 z"
       class="st0" />
    <path
       style="fill:#3f3f3f"
       inkscape:connector-curvature="0"
       id="path109"
       d="m 177.4,426.4 c -0.1,0 -0.2,0.1 -0.4,0.2 -0.2,0.1 -0.4,0.2 -0.6,0.2 -0.2,0.1 -0.5,0.2 -0.8,0.2 -0.3,0.1 -0.6,0.1 -1,0.1 -0.4,0 -0.7,0 -1,-0.1 -0.3,-0.1 -0.6,-0.2 -0.8,-0.4 -0.2,-0.2 -0.4,-0.5 -0.6,-0.8 -0.1,-0.3 -0.2,-0.7 -0.2,-1.1 v -9 h -1.7 v -1.3 h 1.7 v -4.2 h 1.6 v 4.2 h 2.9 v 1.3 h -2.9 v 8.5 c 0,0.5 0.2,0.8 0.5,1 0.3,0.2 0.6,0.3 1,0.3 0.5,0 0.9,-0.1 1.2,-0.2 0.4,-0.2 0.6,-0.3 0.7,-0.3 z"
       class="st0" />
    <path
       style="fill:#3f3f3f"
       inkscape:connector-curvature="0"
       id="path111"
       d="m 182.6,427.2 c -0.6,0 -1.1,-0.1 -1.6,-0.3 -0.5,-0.2 -0.9,-0.5 -1.3,-0.8 -0.4,-0.4 -0.7,-0.8 -0.9,-1.2 -0.2,-0.5 -0.3,-1 -0.3,-1.5 0,-0.5 0.1,-1 0.4,-1.5 0.3,-0.5 0.6,-0.9 1.1,-1.2 0.5,-0.3 1,-0.6 1.7,-0.8 0.6,-0.2 1.3,-0.3 2.1,-0.3 0.6,0 1.3,0.1 1.9,0.2 0.7,0.1 1.2,0.3 1.8,0.5 v -1.1 c 0,-1.1 -0.3,-2 -0.9,-2.6 -0.6,-0.6 -1.5,-1 -2.6,-1 -0.6,0 -1.3,0.1 -2,0.4 -0.7,0.3 -1.4,0.6 -2,1.1 l -0.6,-1.1 c 1.6,-1.1 3.2,-1.6 4.7,-1.6 1.6,0 2.8,0.4 3.7,1.3 0.9,0.9 1.3,2.1 1.3,3.6 v 5.6 c 0,0.4 0.2,0.7 0.6,0.7 v 1.4 c -0.3,0 -0.5,0.1 -0.6,0.1 -0.4,0 -0.7,-0.1 -1,-0.3 -0.2,-0.2 -0.4,-0.5 -0.4,-0.9 v -1 c -0.6,0.8 -1.3,1.3 -2.2,1.7 -0.9,0.4 -1.9,0.6 -2.9,0.6 z M 183,426 c 0.8,0 1.6,-0.2 2.3,-0.5 0.7,-0.3 1.3,-0.7 1.6,-1.3 0.1,-0.1 0.3,-0.3 0.3,-0.5 0.1,-0.2 0.1,-0.3 0.1,-0.5 v -2 c -0.5,-0.2 -1.1,-0.4 -1.7,-0.5 -0.6,-0.1 -1.2,-0.2 -1.8,-0.2 -1.2,0 -2.1,0.2 -2.8,0.7 -0.7,0.5 -1.1,1.1 -1.1,1.9 0,0.4 0.1,0.7 0.2,1.1 0.2,0.3 0.4,0.6 0.6,0.9 0.3,0.2 0.6,0.4 0.9,0.6 0.3,0.2 1,0.3 1.4,0.3 z"
       class="st0" />
    <path
       style="fill:#3f3f3f"
       inkscape:connector-curvature="0"
       id="path113"
       d="m 197.6,427.2 c -0.9,0 -1.7,-0.2 -2.4,-0.5 -0.7,-0.4 -1.3,-0.8 -1.8,-1.4 -0.5,-0.6 -0.9,-1.3 -1.2,-2 -0.3,-0.7 -0.4,-1.6 -0.4,-2.4 0,-0.9 0.1,-1.7 0.4,-2.5 0.3,-0.8 0.7,-1.5 1.2,-2.1 0.5,-0.6 1.1,-1.1 1.8,-1.4 0.7,-0.3 1.5,-0.5 2.4,-0.5 1.1,0 2,0.3 2.8,0.8 0.8,0.5 1.5,1.2 2,2 v -2.6 h 1.5 V 427 c 0,0.9 -0.2,1.6 -0.5,2.3 -0.3,0.7 -0.8,1.2 -1.3,1.7 -0.6,0.4 -1.2,0.8 -1.9,1 -0.7,0.2 -1.5,0.3 -2.4,0.3 -1.4,0 -2.6,-0.3 -3.5,-0.8 -0.9,-0.5 -1.6,-1.2 -2.1,-2.1 l 1,-0.8 c 0.5,0.8 1.2,1.4 2,1.8 0.8,0.4 1.7,0.6 2.6,0.6 0.6,0 1.2,-0.1 1.7,-0.3 0.5,-0.2 1,-0.4 1.4,-0.7 0.4,-0.3 0.7,-0.7 1,-1.2 0.2,-0.5 0.4,-1.1 0.4,-1.8 v -2.5 c -0.5,0.8 -1.1,1.4 -2,1.9 -0.9,0.5 -1.8,0.8 -2.7,0.8 z m 0.4,-1.4 c 0.5,0 1,-0.1 1.4,-0.3 0.5,-0.2 0.9,-0.4 1.3,-0.7 0.4,-0.3 0.7,-0.6 0.9,-1 0.3,-0.4 0.4,-0.7 0.5,-1.1 v -3.9 c -0.2,-0.4 -0.4,-0.9 -0.7,-1.2 -0.3,-0.4 -0.6,-0.7 -1,-1 -0.4,-0.3 -0.8,-0.5 -1.2,-0.6 -0.4,-0.2 -0.9,-0.2 -1.3,-0.2 -0.7,0 -1.3,0.1 -1.9,0.4 -0.6,0.3 -1,0.7 -1.4,1.2 -0.4,0.5 -0.7,1 -0.9,1.6 -0.2,0.6 -0.3,1.2 -0.3,1.8 0,0.7 0.1,1.3 0.4,1.9 0.2,0.6 0.6,1.1 1,1.6 0.4,0.5 0.9,0.8 1.5,1.1 0.5,0.3 1.1,0.4 1.7,0.4 z"
       class="st0" />
    <path
       style="fill:#3f3f3f"
       inkscape:connector-curvature="0"
       id="path115"
       d="m 213.6,415.9 c -1.1,0 -2.1,0.3 -2.9,0.9 -0.8,0.6 -1.4,1.4 -1.7,2.4 v 7.8 h -1.6 v -12.5 h 1.5 v 3 c 0.5,-1 1.1,-1.7 1.9,-2.3 0.8,-0.5 1.6,-0.8 2.5,-0.8 0.1,0 0.2,0 0.3,0 z"
       class="st0" />
    <path
       style="fill:#3f3f3f"
       inkscape:connector-curvature="0"
       id="path117"
       d="m 218.8,427.2 c -0.6,0 -1.1,-0.1 -1.6,-0.3 -0.5,-0.2 -0.9,-0.5 -1.3,-0.8 -0.4,-0.4 -0.7,-0.8 -0.9,-1.2 -0.2,-0.5 -0.3,-1 -0.3,-1.5 0,-0.5 0.1,-1 0.4,-1.5 0.3,-0.5 0.6,-0.9 1.1,-1.2 0.5,-0.3 1,-0.6 1.7,-0.8 0.6,-0.2 1.3,-0.3 2.1,-0.3 0.6,0 1.3,0.1 1.9,0.2 0.7,0.1 1.2,0.3 1.8,0.5 v -1.1 c 0,-1.1 -0.3,-2 -0.9,-2.6 -0.6,-0.6 -1.5,-1 -2.6,-1 -0.6,0 -1.3,0.1 -2,0.4 -0.7,0.3 -1.4,0.6 -2,1.1 l -0.6,-1.1 c 1.6,-1.1 3.2,-1.6 4.7,-1.6 1.6,0 2.8,0.4 3.7,1.3 0.9,0.9 1.3,2.1 1.3,3.6 v 5.6 c 0,0.4 0.2,0.7 0.6,0.7 v 1.4 c -0.3,0 -0.5,0.1 -0.6,0.1 -0.4,0 -0.7,-0.1 -1,-0.3 -0.2,-0.2 -0.4,-0.5 -0.4,-0.9 v -1 c -0.6,0.8 -1.3,1.3 -2.2,1.7 -1,0.4 -1.9,0.6 -2.9,0.6 z m 0.4,-1.2 c 0.8,0 1.6,-0.2 2.3,-0.5 0.7,-0.3 1.3,-0.7 1.6,-1.3 0.1,-0.1 0.3,-0.3 0.3,-0.5 0.1,-0.2 0.1,-0.3 0.1,-0.5 v -2 c -0.5,-0.2 -1.1,-0.4 -1.7,-0.5 -0.6,-0.1 -1.2,-0.2 -1.8,-0.2 -1.2,0 -2.1,0.2 -2.8,0.7 -0.7,0.5 -1.1,1.1 -1.1,1.9 0,0.4 0.1,0.7 0.2,1.1 0.2,0.3 0.4,0.6 0.6,0.9 0.3,0.2 0.6,0.4 0.9,0.6 0.3,0.2 1,0.3 1.4,0.3 z"
       class="st0" />
    <path
       style="fill:#3f3f3f"
       inkscape:connector-curvature="0"
       id="path119"
       d="m 247.3,427 h -1.6 v -7 c 0,-1.5 -0.2,-2.5 -0.7,-3.2 -0.5,-0.7 -1.2,-1 -2.1,-1 -0.5,0 -0.9,0.1 -1.4,0.3 -0.4,0.2 -0.8,0.4 -1.2,0.7 -0.4,0.3 -0.7,0.7 -0.9,1.1 -0.3,0.4 -0.5,0.9 -0.6,1.5 v 7.6 h -1.6 v -7 c 0,-1.5 -0.2,-2.6 -0.7,-3.2 -0.4,-0.7 -1.1,-1 -2.1,-1 -0.9,0 -1.8,0.3 -2.5,1 -0.7,0.7 -1.3,1.5 -1.6,2.6 v 7.7 h -1.6 v -12.5 h 1.5 v 2.8 c 0.5,-1 1.2,-1.7 2,-2.2 0.8,-0.5 1.8,-0.8 2.8,-0.8 1.1,0 1.9,0.3 2.5,0.9 0.6,0.6 1,1.4 1.2,2.3 1.2,-2.1 2.8,-3.2 4.8,-3.2 0.7,0 1.3,0.1 1.8,0.4 0.5,0.3 0.9,0.6 1.2,1.1 0.3,0.5 0.5,1 0.6,1.7 0.1,0.7 0.2,1.4 0.2,2.2 z"
       class="st0" />
  </g>
  <g
     id="g143"
     transform="matrix(0.06346925,0,0,0.06346925,5.27764,13.205622)">
    <path
       style="fill:#3f3f3f"
       inkscape:connector-curvature="0"
       id="path123"
       d="m 152.4,527.5 c -1.6,1.7 -3.4,2.6 -5.5,2.6 -1.2,0 -2.2,-0.2 -3.2,-0.7 -1,-0.5 -1.8,-1.2 -2.5,-2 -0.7,-0.8 -1.3,-1.7 -1.7,-2.8 -0.4,-1 -0.6,-2.1 -0.6,-3.2 0,-1.1 0.2,-2.2 0.6,-3.3 0.4,-1 0.9,-2 1.6,-2.7 0.7,-0.8 1.5,-1.4 2.5,-1.9 1,-0.5 2,-0.7 3.1,-0.7 0.8,0 1.6,0.1 2.3,0.3 0.7,0.2 1.3,0.4 1.8,0.8 0.5,0.3 1,0.7 1.4,1.2 0.4,0.5 0.7,1 1,1.5 l -1.3,0.9 c -0.6,-1.1 -1.3,-1.8 -2.2,-2.3 -0.9,-0.5 -1.9,-0.7 -3,-0.7 -0.9,0 -1.8,0.2 -2.6,0.6 -0.8,0.4 -1.4,0.9 -1.9,1.6 -0.5,0.7 -0.9,1.4 -1.2,2.3 -0.3,0.9 -0.4,1.7 -0.4,2.7 0,1 0.2,1.9 0.5,2.7 0.3,0.9 0.8,1.6 1.4,2.3 0.6,0.6 1.3,1.2 2,1.5 0.8,0.4 1.6,0.6 2.5,0.6 1,0 1.9,-0.2 2.8,-0.7 0.9,-0.5 1.7,-1.2 2.6,-2.2 v -2.8 h -3.8 v -1.3 h 5.2 v 8.4 h -1.4 z"
       class="st0" />
    <path
       style="fill:#3f3f3f"
       inkscape:connector-curvature="0"
       id="path125"
       d="m 162.3,530.2 c -0.9,0 -1.7,-0.2 -2.5,-0.5 -0.8,-0.3 -1.4,-0.8 -2,-1.4 -0.6,-0.6 -1,-1.3 -1.3,-2.1 -0.3,-0.8 -0.5,-1.6 -0.5,-2.5 0,-0.9 0.2,-1.7 0.5,-2.5 0.3,-0.8 0.7,-1.5 1.3,-2.1 0.6,-0.6 1.2,-1.1 2,-1.4 0.8,-0.3 1.6,-0.5 2.5,-0.5 0.9,0 1.7,0.2 2.5,0.5 0.8,0.3 1.4,0.8 2,1.4 0.6,0.6 1,1.3 1.3,2.1 0.3,0.8 0.5,1.6 0.5,2.5 0,0.9 -0.2,1.7 -0.5,2.5 -0.3,0.8 -0.7,1.5 -1.3,2.1 -0.6,0.6 -1.2,1.1 -2,1.4 -0.7,0.4 -1.6,0.5 -2.5,0.5 z m -4.5,-6.4 c 0,0.7 0.1,1.4 0.4,2 0.2,0.6 0.6,1.1 1,1.6 0.4,0.5 0.9,0.8 1.4,1.1 0.6,0.3 1.1,0.4 1.8,0.4 0.7,0 1.2,-0.1 1.8,-0.4 0.6,-0.3 1,-0.6 1.5,-1.1 0.4,-0.5 0.7,-1 1,-1.6 0.2,-0.6 0.4,-1.3 0.4,-2 0,-0.7 -0.1,-1.3 -0.4,-2 -0.2,-0.6 -0.6,-1.2 -1,-1.6 -0.4,-0.5 -0.9,-0.8 -1.5,-1.1 -0.6,-0.3 -1.1,-0.4 -1.8,-0.4 -0.7,0 -1.2,0.1 -1.8,0.4 -0.5,0.3 -1,0.6 -1.4,1.1 -0.4,0.5 -0.7,1 -1,1.6 -0.3,0.6 -0.4,1.3 -0.4,2 z"
       class="st0" />
    <path
       style="fill:#3f3f3f"
       inkscape:connector-curvature="0"
       id="path127"
       d="m 176.6,530.2 c -0.9,0 -1.7,-0.2 -2.5,-0.5 -0.8,-0.3 -1.4,-0.8 -2,-1.4 -0.6,-0.6 -1,-1.3 -1.3,-2.1 -0.3,-0.8 -0.5,-1.6 -0.5,-2.5 0,-0.9 0.2,-1.7 0.5,-2.5 0.3,-0.8 0.7,-1.5 1.3,-2.1 0.6,-0.6 1.2,-1.1 2,-1.4 0.8,-0.3 1.6,-0.5 2.5,-0.5 0.9,0 1.7,0.2 2.5,0.5 0.8,0.3 1.4,0.8 2,1.4 0.6,0.6 1,1.3 1.3,2.1 0.3,0.8 0.5,1.6 0.5,2.5 0,0.9 -0.2,1.7 -0.5,2.5 -0.3,0.8 -0.7,1.5 -1.3,2.1 -0.6,0.6 -1.2,1.1 -2,1.4 -0.8,0.4 -1.6,0.5 -2.5,0.5 z m -4.5,-6.4 c 0,0.7 0.1,1.4 0.4,2 0.2,0.6 0.6,1.1 1,1.6 0.4,0.5 0.9,0.8 1.4,1.1 0.6,0.3 1.1,0.4 1.8,0.4 0.7,0 1.2,-0.1 1.8,-0.4 0.6,-0.3 1,-0.6 1.5,-1.1 0.4,-0.5 0.7,-1 1,-1.6 0.2,-0.6 0.4,-1.3 0.4,-2 0,-0.7 -0.1,-1.3 -0.4,-2 -0.2,-0.6 -0.6,-1.2 -1,-1.6 -0.4,-0.5 -0.9,-0.8 -1.5,-1.1 -0.6,-0.3 -1.1,-0.4 -1.8,-0.4 -0.7,0 -1.2,0.1 -1.8,0.4 -0.5,0.3 -1,0.6 -1.4,1.1 -0.4,0.5 -0.7,1 -1,1.6 -0.3,0.6 -0.4,1.3 -0.4,2 z"
       class="st0" />
    <path
       style="fill:#3f3f3f"
       inkscape:connector-curvature="0"
       id="path129"
       d="m 190.6,530.2 c -0.9,0 -1.7,-0.2 -2.4,-0.5 -0.7,-0.4 -1.3,-0.8 -1.8,-1.4 -0.5,-0.6 -0.9,-1.3 -1.2,-2 -0.3,-0.7 -0.4,-1.6 -0.4,-2.4 0,-0.9 0.1,-1.7 0.4,-2.5 0.3,-0.8 0.7,-1.5 1.2,-2.1 0.5,-0.6 1.1,-1.1 1.8,-1.4 0.7,-0.3 1.5,-0.5 2.4,-0.5 1.1,0 2,0.3 2.8,0.8 0.8,0.5 1.5,1.2 2,2 v -2.6 h 1.5 V 530 c 0,0.9 -0.2,1.6 -0.5,2.3 -0.3,0.7 -0.8,1.2 -1.3,1.7 -0.6,0.4 -1.2,0.8 -1.9,1 -0.7,0.2 -1.5,0.3 -2.4,0.3 -1.4,0 -2.6,-0.3 -3.5,-0.8 -0.9,-0.5 -1.6,-1.2 -2.1,-2.1 l 1,-0.8 c 0.5,0.8 1.2,1.4 2,1.8 0.8,0.4 1.7,0.6 2.6,0.6 0.6,0 1.2,-0.1 1.7,-0.3 0.5,-0.2 1,-0.4 1.4,-0.7 0.4,-0.3 0.7,-0.7 1,-1.2 0.2,-0.5 0.4,-1.1 0.4,-1.8 v -2.5 c -0.5,0.8 -1.1,1.4 -2,1.9 -1,0.5 -1.8,0.8 -2.7,0.8 z m 0.4,-1.4 c 0.5,0 1,-0.1 1.4,-0.3 0.5,-0.2 0.9,-0.4 1.3,-0.7 0.4,-0.3 0.7,-0.6 0.9,-1 0.3,-0.4 0.4,-0.7 0.5,-1.1 v -3.9 c -0.2,-0.4 -0.4,-0.9 -0.7,-1.2 -0.3,-0.4 -0.6,-0.7 -1,-1 -0.4,-0.3 -0.8,-0.5 -1.2,-0.6 -0.4,-0.2 -0.9,-0.2 -1.3,-0.2 -0.7,0 -1.3,0.1 -1.9,0.4 -0.6,0.3 -1,0.7 -1.4,1.2 -0.4,0.5 -0.7,1 -0.9,1.6 -0.2,0.6 -0.3,1.2 -0.3,1.8 0,0.7 0.1,1.3 0.4,1.9 0.2,0.6 0.6,1.1 1,1.6 0.4,0.5 0.9,0.8 1.5,1.1 0.5,0.3 1.1,0.4 1.7,0.4 z"
       class="st0" />
    <path
       style="fill:#3f3f3f"
       inkscape:connector-curvature="0"
       id="path131"
       d="m 200.4,512.5 h 1.6 v 14.7 c 0,0.5 0.1,0.8 0.4,1.1 0.3,0.3 0.6,0.4 1.1,0.4 0.2,0 0.4,0 0.6,-0.1 0.2,0 0.5,-0.1 0.7,-0.2 l 0.3,1.3 c -0.3,0.1 -0.7,0.2 -1.1,0.3 -0.4,0.1 -0.8,0.1 -1.1,0.1 -0.8,0 -1.3,-0.2 -1.8,-0.6 -0.4,-0.4 -0.6,-1 -0.6,-1.8 v -15.2 z"
       class="st0" />
    <path
       style="fill:#3f3f3f"
       inkscape:connector-curvature="0"
       id="path133"
       d="m 212.3,530.2 c -0.9,0 -1.7,-0.2 -2.5,-0.5 -0.8,-0.3 -1.4,-0.8 -2,-1.4 -0.6,-0.6 -1,-1.3 -1.3,-2.1 -0.3,-0.8 -0.5,-1.6 -0.5,-2.5 0,-0.9 0.2,-1.7 0.5,-2.5 0.3,-0.8 0.7,-1.5 1.3,-2 0.6,-0.6 1.2,-1 2,-1.4 0.8,-0.3 1.6,-0.5 2.5,-0.5 0.9,0 1.7,0.2 2.5,0.5 0.8,0.3 1.4,0.8 2,1.4 0.5,0.6 1,1.3 1.3,2 0.3,0.8 0.5,1.6 0.5,2.4 0,0.1 0,0.3 0,0.4 0,0.1 0,0.2 0,0.3 h -10.7 c 0,0.7 0.2,1.3 0.5,1.9 0.3,0.6 0.6,1.1 1,1.5 0.4,0.4 0.9,0.7 1.4,1 0.5,0.2 1.1,0.3 1.7,0.3 0.4,0 0.8,-0.1 1.2,-0.2 0.4,-0.1 0.8,-0.3 1.1,-0.5 0.3,-0.2 0.6,-0.4 0.9,-0.7 0.3,-0.3 0.5,-0.6 0.6,-0.9 l 1.4,0.4 c -0.2,0.5 -0.5,0.9 -0.8,1.3 -0.4,0.4 -0.8,0.7 -1.2,1 -0.5,0.3 -1,0.5 -1.5,0.6 -0.7,0.2 -1.3,0.2 -1.9,0.2 z m 4.6,-7.1 c 0,-0.7 -0.2,-1.3 -0.5,-1.8 -0.3,-0.6 -0.6,-1 -1,-1.4 -0.4,-0.4 -0.9,-0.7 -1.4,-0.9 -0.5,-0.2 -1.1,-0.3 -1.7,-0.3 -0.6,0 -1.2,0.1 -1.7,0.3 -0.5,0.2 -1,0.5 -1.4,0.9 -0.4,0.4 -0.7,0.9 -1,1.4 -0.2,0.6 -0.4,1.2 -0.4,1.8 z"
       class="st0" />
    <path
       style="fill:#3f3f3f"
       inkscape:connector-curvature="0"
       id="path135"
       d="m 227.4,530 v -17 h 7.1 c 0.7,0 1.4,0.2 2,0.5 0.6,0.3 1.1,0.7 1.6,1.2 0.4,0.5 0.8,1.1 1.1,1.7 0.3,0.6 0.4,1.3 0.4,1.9 0,0.7 -0.1,1.4 -0.4,2 -0.3,0.6 -0.6,1.2 -1,1.7 -0.4,0.5 -0.9,0.9 -1.5,1.2 -0.6,0.3 -1.3,0.5 -2,0.5 h -5.5 v 6.3 z m 1.7,-7.8 h 5.4 c 0.5,0 0.9,-0.1 1.4,-0.3 0.4,-0.2 0.8,-0.5 1,-0.9 0.3,-0.4 0.5,-0.8 0.7,-1.2 0.2,-0.5 0.2,-1 0.2,-1.5 0,-0.5 -0.1,-1 -0.3,-1.5 -0.2,-0.5 -0.4,-0.9 -0.7,-1.2 -0.3,-0.3 -0.7,-0.6 -1.1,-0.8 -0.4,-0.2 -0.9,-0.3 -1.3,-0.3 h -5.3 z"
       class="st0" />
    <path
       style="fill:#3f3f3f"
       inkscape:connector-curvature="0"
       id="path137"
       d="m 246,530.2 c -1.4,0 -2.4,-0.5 -3,-1.4 -0.7,-0.9 -1,-2.3 -1,-4 v -7.3 h 1.6 v 7.1 c 0,2.8 1,4.2 2.9,4.2 0.5,0 1,-0.1 1.4,-0.2 0.5,-0.2 0.9,-0.4 1.3,-0.7 0.4,-0.3 0.7,-0.7 1.1,-1.1 0.4,-0.4 0.6,-0.9 0.8,-1.4 v -7.9 h 1.6 v 10.4 c 0,0.4 0.2,0.7 0.6,0.7 v 1.4 c -0.2,0 -0.3,0 -0.5,0 -0.1,0 -0.2,0 -0.3,0 -0.4,0 -0.7,-0.2 -0.9,-0.4 -0.2,-0.3 -0.4,-0.6 -0.4,-1 v -1.4 c -0.5,1 -1.3,1.7 -2.2,2.3 -0.9,0.6 -2,0.7 -3,0.7 z"
       class="st0" />
    <path
       style="fill:#3f3f3f"
       inkscape:connector-curvature="0"
       id="path139"
       d="m 256.4,512.5 h 1.6 v 14.7 c 0,0.5 0.1,0.8 0.4,1.1 0.3,0.3 0.6,0.4 1.1,0.4 0.2,0 0.4,0 0.6,-0.1 0.2,0 0.5,-0.1 0.7,-0.2 l 0.3,1.3 c -0.3,0.1 -0.7,0.2 -1.1,0.3 -0.4,0.1 -0.8,0.1 -1.1,0.1 -0.8,0 -1.3,-0.2 -1.8,-0.6 -0.4,-0.4 -0.6,-1 -0.6,-1.8 v -15.2 z"
       class="st0" />
    <path
       style="fill:#3f3f3f"
       inkscape:connector-curvature="0"
       id="path141"
       d="m 267,530.2 c -1,0 -1.9,-0.2 -2.9,-0.5 -0.9,-0.3 -1.7,-0.8 -2.4,-1.4 l 0.7,-1.1 c 0.7,0.6 1.4,1 2.1,1.3 0.7,0.3 1.5,0.4 2.3,0.4 1,0 1.8,-0.2 2.4,-0.6 0.6,-0.4 0.9,-1 0.9,-1.7 0,-0.4 -0.1,-0.6 -0.2,-0.9 -0.1,-0.3 -0.4,-0.4 -0.7,-0.6 -0.3,-0.2 -0.7,-0.3 -1.2,-0.5 -0.5,-0.1 -1,-0.3 -1.6,-0.4 -0.7,-0.2 -1.3,-0.4 -1.9,-0.5 -0.5,-0.2 -1,-0.4 -1.3,-0.6 -0.3,-0.2 -0.6,-0.5 -0.8,-0.8 -0.2,-0.3 -0.3,-0.7 -0.3,-1.2 0,-0.6 0.1,-1.2 0.4,-1.7 0.2,-0.5 0.6,-0.9 1,-1.2 0.4,-0.3 0.9,-0.5 1.5,-0.7 0.6,-0.2 1.2,-0.2 1.8,-0.2 1,0 1.8,0.2 2.6,0.5 0.8,0.3 1.4,0.7 1.9,1.2 l -0.8,1 c -0.5,-0.5 -1,-0.8 -1.7,-1.1 -0.7,-0.2 -1.4,-0.4 -2.1,-0.4 -0.4,0 -0.8,0 -1.2,0.1 -0.4,0.1 -0.7,0.2 -1,0.4 -0.3,0.2 -0.5,0.4 -0.7,0.7 -0.2,0.3 -0.2,0.6 -0.2,1 0,0.3 0.1,0.6 0.2,0.8 0.1,0.2 0.3,0.4 0.6,0.5 0.3,0.2 0.6,0.3 1,0.4 0.4,0.1 0.9,0.2 1.4,0.4 0.8,0.2 1.5,0.4 2.1,0.6 0.6,0.2 1.1,0.4 1.5,0.7 0.4,0.3 0.7,0.6 0.9,0.9 0.2,0.4 0.3,0.8 0.3,1.3 0,1.2 -0.4,2.1 -1.3,2.7 -0.7,0.9 -1.8,1.2 -3.3,1.2 z"
       class="st0" />
  </g>
  <g
     id="g147"
     transform="matrix(0.06346925,0,0,0.06346925,5.27764,13.205622)">
    <path
       style="fill:#3f3f3f"
       inkscape:connector-curvature="0"
       id="path145"
       d="m 648.3,199.2 c 2.8,2.2 5.4,4.5 8,6.9 2.6,2.4 5.1,4.8 7.6,7.3 l 0.7,0.7 -0.7,0.7 c -2.5,2.5 -5,4.9 -7.6,7.3 -2.6,2.4 -5.2,4.7 -8,6.9 2.2,-2.8 4.5,-5.4 6.9,-8 2.4,-2.6 4.8,-5.1 7.3,-7.6 v 1.4 c -2.5,-2.5 -4.9,-5 -7.3,-7.6 -2.4,-2.7 -4.8,-5.3 -6.9,-8 z"
       class="st0" />
  </g>
  <g
     id="g151"
     transform="matrix(0.06346925,0,0,0.06346925,5.27764,13.205622)">
    <path
       style="fill:#3f3f3f"
       inkscape:connector-curvature="0"
       id="path149"
       d="m 648.3,301.2 c 2.8,2.2 5.4,4.5 8,6.9 2.6,2.4 5.1,4.8 7.6,7.3 l 0.7,0.7 -0.7,0.7 c -2.5,2.5 -5,4.9 -7.6,7.3 -2.6,2.4 -5.2,4.7 -8,6.9 2.2,-2.8 4.5,-5.4 6.9,-8 2.4,-2.6 4.8,-5.1 7.3,-7.6 v 1.4 c -2.5,-2.5 -4.9,-5 -7.3,-7.6 -2.4,-2.7 -4.8,-5.3 -6.9,-8 z"
       class="st0" />
  </g>
  <g
     id="g155"
     transform="matrix(0.06346925,0,0,0.06346925,5.27764,13.205622)">
    <path
       style="fill:#3f3f3f"
       inkscape:connector-curvature="0"
       id="path153"
       d="m 648.3,507.2 c 2.8,2.2 5.4,4.5 8,6.9 2.6,2.4 5.1,4.8 7.6,7.3 l 0.7,0.7 -0.7,0.7 c -2.5,2.5 -5,4.9 -7.6,7.3 -2.6,2.4 -5.2,4.7 -8,6.9 2.2,-2.8 4.5,-5.4 6.9,-8 2.4,-2.6 4.8,-5.1 7.3,-7.6 v 1.4 c -2.5,-2.5 -4.9,-5 -7.3,-7.6 -2.4,-2.7 -4.8,-5.3 -6.9,-8 z"
       class="st0" />
  </g>
  <g
     id="g159"
     transform="matrix(0.06346925,0,0,0.06346925,5.27764,13.205622)">
    <path
       style="fill:#3f3f3f"
       inkscape:connector-curvature="0"
       id="path157"
       d="m 648.3,404.2 c 2.8,2.2 5.4,4.5 8,6.9 2.6,2.4 5.1,4.8 7.6,7.3 l 0.7,0.7 -0.7,0.7 c -2.5,2.5 -5,4.9 -7.6,7.3 -2.6,2.4 -5.2,4.7 -8,6.9 2.2,-2.8 4.5,-5.4 6.9,-8 2.4,-2.6 4.8,-5.1 7.3,-7.6 v 1.4 c -2.5,-2.5 -4.9,-5 -7.3,-7.6 -2.4,-2.7 -4.8,-5.3 -6.9,-8 z"
       class="st0" />
  </g>
  <rect
     style="opacity:1;vector-effect:none;fill:none;fill-opacity:1;stroke:#d8c7ce;stroke-width:0.15849513;stroke-linecap:butt;stroke-linejoin:miter;stroke-miterlimit:4;stroke-dasharray:none;stroke-dashoffset:0;stroke-opacity:1"
     id="rect4587"
     width="47.751461"
     height="84.509491"
     x="5.3568912"
     y="13.284869" />
</svg>
