<?xml version="1.0" encoding="UTF-8" standalone="no"?>
<svg
   xmlns:dc="http://purl.org/dc/elements/1.1/"
   xmlns:cc="http://creativecommons.org/ns#"
   xmlns:rdf="http://www.w3.org/1999/02/22-rdf-syntax-ns#"
   xmlns:svg="http://www.w3.org/2000/svg"
   xmlns="http://www.w3.org/2000/svg"
   xmlns:xlink="http://www.w3.org/1999/xlink"
   xmlns:sodipodi="http://sodipodi.sourceforge.net/DTD/sodipodi-0.dtd"
   xmlns:inkscape="http://www.inkscape.org/namespaces/inkscape"
   id="svg5231"
   version="1.1"
   viewBox="0 0 58.208333 111.125"
   height="420"
   width="220"
   sodipodi:docname="screen-performance-metrics.svg"
   inkscape:version="0.92.1 r15371">
  <sodipodi:namedview
     pagecolor="#ffffff"
     bordercolor="#666666"
     borderopacity="1"
     objecttolerance="10"
     gridtolerance="10"
     guidetolerance="10"
     inkscape:pageopacity="0"
     inkscape:pageshadow="2"
     inkscape:window-width="1920"
     inkscape:window-height="1028"
     id="namedview6601"
     showgrid="false"
     inkscape:zoom="2.2476191"
     inkscape:cx="183.55798"
     inkscape:cy="200.31423"
     inkscape:window-x="0"
     inkscape:window-y="0"
     inkscape:window-maximized="1"
     inkscape:current-layer="svg5231" />
  <defs
     id="defs5225">
    <linearGradient
       id="linearGradient7211">
      <stop
         style="stop-color:#33445f;stop-opacity:0.12987013"
         offset="0"
         id="stop7207" />
      <stop
         id="stop7213"
         offset="0.47223946"
         style="stop-color:#424750;stop-opacity:0.7019608" />
      <stop
         style="stop-color:#33445f;stop-opacity:0;"
         offset="1"
         id="stop7209" />
    </linearGradient>
    <filter
       height="1.007207"
       y="-0.0036034775"
       width="1.0143723"
       x="-0.0071861306"
       id="filter4908-6"
       style="color-interpolation-filters:sRGB">
      <feGaussianBlur
         id="feGaussianBlur4910-3"
         stdDeviation="0.16452951" />
    </filter>
    <filter
       height="1.0178903"
       y="-0.0089451401"
       width="1.036447"
       x="-0.018223526"
       id="filter4577-7"
       style="color-interpolation-filters:sRGB">
      <feGaussianBlur
         id="feGaussianBlur4579-7"
         stdDeviation="0.4001667" />
    </filter>
    <filter
       height="1.0056283"
       y="-0.0028141416"
       width="1.0099896"
       x="-0.0049948203"
       id="filter4916-1"
       style="color-interpolation-filters:sRGB">
      <feGaussianBlur
         id="feGaussianBlur4918-3"
         stdDeviation="0.098722652" />
    </filter>
    <filter
       height="1.024"
       y="-0.012"
       width="1.024"
       x="-0.012"
       id="filter5039-1"
       style="color-interpolation-filters:sRGB">
      <feGaussianBlur
         id="feGaussianBlur5041-0"
         stdDeviation="0.0078818125" />
    </filter>
    <filter
       height="1.024"
       y="-0.012"
       width="1.024"
       x="-0.012"
       id="filter5015-7"
       style="color-interpolation-filters:sRGB">
      <feGaussianBlur
         id="feGaussianBlur5017-2"
         stdDeviation="0.0060729522" />
    </filter>
    <filter
       height="1.2869353"
       y="-0.14346766"
       width="1.0237398"
       x="-0.01186988"
       id="filter4963-9"
       style="color-interpolation-filters:sRGB">
      <feGaussianBlur
         id="feGaussianBlur4965-6"
         stdDeviation="0.04889952" />
    </filter>
    <filter
       height="1.0129493"
       y="-0.0064747045"
       width="1.1636733"
       x="-0.081836641"
       id="filter4863-4"
       style="color-interpolation-filters:sRGB">
      <feGaussianBlur
         id="feGaussianBlur4865-4"
         stdDeviation="0.26543101" />
    </filter>
    <linearGradient
       gradientUnits="userSpaceOnUse"
       y2="183.7554"
       x2="-730.53308"
       y1="159.70114"
       x1="-730.80035"
       id="linearGradient4902-3"
       xlink:href="#linearGradient4900" />
    <linearGradient
       id="linearGradient4900">
      <stop
         id="stop4896"
         offset="0"
         style="stop-color:#33445f;stop-opacity:1;" />
      <stop
         id="stop4898"
         offset="1"
         style="stop-color:#33445f;stop-opacity:0;" />
    </linearGradient>
    <filter
       height="1.0129493"
       y="-0.0064747045"
       width="1.1636733"
       x="-0.081836641"
       id="filter4863-5-7"
       style="color-interpolation-filters:sRGB">
      <feGaussianBlur
         id="feGaussianBlur4865-8-5"
         stdDeviation="0.26543101" />
    </filter>
    <linearGradient
       gradientUnits="userSpaceOnUse"
       y2="183.7554"
       x2="-730.53308"
       y1="159.70114"
       x1="-730.80035"
       id="linearGradient4902-3-2"
       xlink:href="#linearGradient4900" />
  </defs>
  <metadata
     id="metadata5228">
    <rdf:RDF>
      <cc:Work
         rdf:about="">
        <dc:format>image/svg+xml</dc:format>
        <dc:type
           rdf:resource="http://purl.org/dc/dcmitype/StillImage" />
        <dc:title />
      </cc:Work>
    </rdf:RDF>
  </metadata>
  <g
     id="g6042"
     transform="translate(-75.465459,1.0543944)">
    <rect
       y="22.433247"
       class="st0"
       width="47.909958"
       height="71.212502"
       id="rect5"
       x="80.743103"
       style="fill:#ffffff;stroke-width:0.06367426" />
    <rect
       class="st1"
       width="47.909958"
       height="10.28202"
       id="rect7"
       x="80.743103"
       y="12.151227"
       style="fill:#3f3f3f;stroke-width:0.06367426" />
    <g
       transform="matrix(0.06346925,0,0,0.06346925,80.743106,12.151227)"
       id="g15">
      <rect
         x="60.299999"
         y="66"
         class="st0"
         width="35.700001"
         height="2"
         id="rect9"
         style="fill:#ffffff" />
      <rect
         x="60.299999"
         y="94"
         class="st0"
         width="35.700001"
         height="2"
         id="rect11"
         style="fill:#ffffff" />
      <rect
         x="60.299999"
         y="80"
         class="st0"
         width="35.700001"
         height="2"
         id="rect13"
         style="fill:#ffffff" />
    </g>
    <g
       transform="matrix(0.06346925,0,0,0.06346925,80.743106,12.151227)"
       id="g53">
      <path
         class="st0"
         d="M 140.3,96.1 V 66.3 h 12.3 c 1.3,0 2.5,0.3 3.5,0.8 1.1,0.5 2,1.3 2.8,2.1 0.8,0.9 1.4,1.9 1.8,3 0.4,1.1 0.7,2.3 0.7,3.4 0,1.2 -0.2,2.4 -0.6,3.5 -0.4,1.1 -1,2.1 -1.8,3 -0.8,0.9 -1.7,1.6 -2.7,2.1 -1.1,0.5 -2.2,0.8 -3.5,0.8 h -9.7 v 11 h -2.8 z m 3,-13.6 h 9.5 c 0.9,0 1.7,-0.2 2.4,-0.6 0.7,-0.4 1.3,-0.9 1.8,-1.5 0.5,-0.6 0.9,-1.4 1.2,-2.2 0.3,-0.8 0.4,-1.7 0.4,-2.6 0,-0.9 -0.2,-1.8 -0.5,-2.6 -0.3,-0.8 -0.8,-1.5 -1.3,-2.2 -0.5,-0.6 -1.2,-1.1 -1.9,-1.4 -0.7,-0.4 -1.5,-0.5 -2.3,-0.5 h -9.3 z"
         id="path17"
         inkscape:connector-curvature="0"
         style="fill:#ffffff" />
      <path
         class="st0"
         d="m 174.9,96.5 c -1.6,0 -3.1,-0.3 -4.4,-0.9 -1.3,-0.6 -2.5,-1.4 -3.5,-2.5 -1,-1.1 -1.7,-2.3 -2.3,-3.6 -0.5,-1.4 -0.8,-2.8 -0.8,-4.4 0,-1.5 0.3,-3 0.8,-4.3 0.5,-1.4 1.3,-2.5 2.3,-3.6 1,-1 2.1,-1.8 3.5,-2.4 1.3,-0.6 2.8,-0.9 4.4,-0.9 1.6,0 3.1,0.3 4.4,0.9 1.3,0.6 2.5,1.4 3.4,2.5 1,1 1.7,2.2 2.2,3.6 0.5,1.3 0.8,2.8 0.8,4.3 0,0.2 0,0.4 0,0.7 0,0.2 0,0.4 0,0.5 H 167 c 0.1,1.2 0.4,2.3 0.8,3.3 0.5,1 1.1,1.9 1.8,2.6 0.7,0.7 1.6,1.3 2.5,1.7 0.9,0.4 1.9,0.6 3,0.6 0.7,0 1.4,-0.1 2.1,-0.3 0.7,-0.2 1.3,-0.5 1.9,-0.8 0.6,-0.3 1.1,-0.7 1.6,-1.2 0.5,-0.5 0.8,-1 1.1,-1.6 l 2.5,0.7 c -0.3,0.8 -0.8,1.5 -1.4,2.2 -0.6,0.7 -1.3,1.2 -2.1,1.7 -0.8,0.5 -1.7,0.9 -2.7,1.1 -1.1,0 -2.1,0.1 -3.2,0.1 z M 183,84 c -0.1,-1.2 -0.4,-2.2 -0.8,-3.2 -0.5,-1 -1.1,-1.8 -1.8,-2.5 -0.7,-0.7 -1.5,-1.2 -2.5,-1.6 -0.9,-0.4 -1.9,-0.6 -3,-0.6 -1.1,0 -2.1,0.2 -3,0.6 -1,0.4 -1.8,0.9 -2.5,1.6 -0.7,0.7 -1.3,1.5 -1.7,2.5 -0.4,1 -0.7,2 -0.8,3.2 z"
         id="path19"
         inkscape:connector-curvature="0"
         style="fill:#ffffff" />
      <path
         class="st0"
         d="m 201.1,76.8 c -1.9,0.1 -3.6,0.6 -5,1.6 -1.4,1 -2.4,2.4 -3,4.2 v 13.6 h -2.9 v -22 h 2.7 v 5.3 c 0.8,-1.7 1.9,-3 3.3,-3.9 1.4,-1 2.8,-1.4 4.4,-1.4 0.2,0 0.4,0 0.5,0 z"
         id="path21"
         inkscape:connector-curvature="0"
         style="fill:#ffffff" />
      <path
         class="st0"
         d="M 205.9,96.1 V 76.5 h -3 v -2.3 h 3 v -0.6 c 0,-2.7 0.6,-4.8 1.7,-6.3 1.1,-1.5 2.7,-2.3 4.7,-2.3 0.9,0 1.7,0.1 2.5,0.4 0.8,0.3 1.5,0.6 2.1,1 l -0.9,2.1 c -0.4,-0.3 -0.9,-0.5 -1.4,-0.7 -0.6,-0.2 -1.2,-0.3 -1.7,-0.3 -1.3,0 -2.4,0.5 -3.1,1.6 -0.7,1 -1,2.5 -1,4.5 v 0.7 h 6 v 2.3 h -6 v 19.6 h -2.9 z"
         id="path23"
         inkscape:connector-curvature="0"
         style="fill:#ffffff" />
      <path
         class="st0"
         d="m 227,96.5 c -1.6,0 -3.1,-0.3 -4.4,-0.9 -1.3,-0.6 -2.5,-1.4 -3.4,-2.5 -1,-1 -1.7,-2.2 -2.2,-3.6 -0.5,-1.4 -0.8,-2.8 -0.8,-4.3 0,-1.5 0.3,-3 0.8,-4.4 0.5,-1.4 1.3,-2.6 2.3,-3.6 1,-1 2.1,-1.9 3.4,-2.5 1.3,-0.6 2.8,-0.9 4.3,-0.9 1.6,0 3,0.3 4.3,0.9 1.3,0.6 2.5,1.4 3.4,2.5 1,1 1.7,2.2 2.3,3.6 0.5,1.4 0.8,2.8 0.8,4.4 0,1.5 -0.3,3 -0.8,4.3 -0.5,1.4 -1.3,2.6 -2.2,3.6 -1,1 -2.1,1.9 -3.4,2.5 -1.4,0.6 -2.8,0.9 -4.4,0.9 z m -8,-11.2 c 0,1.2 0.2,2.4 0.6,3.4 0.4,1.1 1,2 1.7,2.8 0.7,0.8 1.6,1.4 2.5,1.9 1,0.4 2,0.7 3.1,0.7 1.1,0 2.1,-0.2 3.1,-0.7 1,-0.5 1.8,-1.1 2.5,-1.9 0.7,-0.8 1.3,-1.7 1.7,-2.8 0.4,-1.1 0.6,-2.2 0.6,-3.4 0,-1.2 -0.2,-2.3 -0.6,-3.4 -0.4,-1.1 -1,-2 -1.7,-2.8 -0.7,-0.8 -1.6,-1.4 -2.5,-1.9 -1,-0.5 -2,-0.7 -3.1,-0.7 -1.1,0 -2.1,0.2 -3.1,0.7 -1,0.5 -1.8,1.1 -2.5,1.9 -0.7,0.8 -1.3,1.8 -1.7,2.8 -0.4,1 -0.6,2.1 -0.6,3.4 z"
         id="path25"
         inkscape:connector-curvature="0"
         style="fill:#ffffff" />
      <path
         class="st0"
         d="m 253.6,76.8 c -1.9,0.1 -3.6,0.6 -5,1.6 -1.4,1 -2.4,2.4 -3,4.2 v 13.6 h -2.9 v -22 h 2.7 v 5.3 c 0.8,-1.7 1.9,-3 3.3,-3.9 1.4,-1 2.8,-1.4 4.4,-1.4 0.2,0 0.4,0 0.5,0 z"
         id="path27"
         inkscape:connector-curvature="0"
         style="fill:#ffffff" />
      <path
         class="st0"
         d="M 289.9,96.1 H 287 V 83.9 c 0,-2.5 -0.4,-4.4 -1.2,-5.6 -0.8,-1.2 -2,-1.8 -3.6,-1.8 -0.8,0 -1.6,0.2 -2.4,0.5 -0.8,0.3 -1.4,0.7 -2.1,1.3 -0.6,0.6 -1.2,1.2 -1.7,2 -0.5,0.8 -0.8,1.6 -1.1,2.5 V 96.2 H 272 V 83.9 c 0,-2.6 -0.4,-4.5 -1.2,-5.7 -0.8,-1.2 -2,-1.8 -3.6,-1.8 -1.7,0 -3.1,0.6 -4.4,1.7 -1.3,1.1 -2.2,2.7 -2.8,4.5 V 96 h -2.9 V 74.2 h 2.6 v 5 c 0.9,-1.7 2.1,-3 3.5,-3.9 1.5,-0.9 3.1,-1.4 4.8,-1.4 1.8,0 3.3,0.5 4.4,1.6 1.1,1 1.8,2.4 2,4.1 2,-3.8 4.9,-5.6 8.4,-5.6 1.2,0 2.3,0.2 3.1,0.7 0.9,0.4 1.5,1.1 2.1,1.9 0.5,0.8 0.9,1.8 1.1,3 0.2,1.2 0.4,2.5 0.4,3.9 v 12.6 z"
         id="path29"
         inkscape:connector-curvature="0"
         style="fill:#ffffff" />
      <path
         class="st0"
         d="m 301.5,96.5 c -1,0 -2,-0.2 -2.9,-0.5 -0.9,-0.3 -1.7,-0.8 -2.3,-1.4 -0.7,-0.6 -1.2,-1.3 -1.5,-2.2 -0.4,-0.8 -0.5,-1.7 -0.5,-2.7 0,-1 0.2,-1.8 0.7,-2.6 0.5,-0.8 1.1,-1.5 1.9,-2.1 0.8,-0.6 1.8,-1 2.9,-1.4 1.1,-0.3 2.4,-0.5 3.7,-0.5 1.1,0 2.3,0.1 3.4,0.3 1.1,0.2 2.2,0.5 3.1,0.8 v -2 c 0,-1.9 -0.5,-3.5 -1.6,-4.6 -1.1,-1.1 -2.6,-1.7 -4.5,-1.7 -1.1,0 -2.3,0.2 -3.4,0.7 -1.2,0.4 -2.4,1.1 -3.6,1.9 l -1,-1.9 c 2.8,-1.9 5.6,-2.9 8.2,-2.9 2.7,0 4.9,0.8 6.5,2.3 1.6,1.5 2.4,3.7 2.4,6.4 v 9.9 c 0,0.8 0.3,1.2 1,1.2 V 96 c -0.5,0.1 -0.8,0.1 -1.1,0.1 -0.7,0 -1.3,-0.2 -1.7,-0.5 -0.4,-0.4 -0.6,-0.9 -0.7,-1.5 l -0.1,-1.7 c -1,1.3 -2.3,2.3 -3.8,3 -1.7,0.8 -3.4,1.1 -5.1,1.1 z m 0.7,-2.1 c 1.5,0 2.8,-0.3 4.1,-0.8 1.2,-0.6 2.2,-1.3 2.8,-2.2 0.3,-0.3 0.4,-0.5 0.6,-0.8 0.2,-0.3 0.2,-0.6 0.2,-0.8 v -3.6 c -1,-0.4 -1.9,-0.6 -3,-0.8 -1,-0.2 -2.1,-0.3 -3.1,-0.3 -2,0 -3.7,0.4 -4.9,1.3 -1.3,0.8 -1.9,1.9 -1.9,3.3 0,0.7 0.1,1.3 0.4,1.9 0.3,0.6 0.6,1.1 1.1,1.5 0.5,0.4 1,0.8 1.7,1 0.7,0.2 1.2,0.3 2,0.3 z"
         id="path31"
         inkscape:connector-curvature="0"
         style="fill:#ffffff" />
      <path
         class="st0"
         d="m 337.3,96.1 h -2.9 V 83.9 c 0,-2.6 -0.4,-4.5 -1.2,-5.7 -0.8,-1.2 -2,-1.8 -3.5,-1.8 -0.8,0 -1.7,0.2 -2.5,0.5 -0.8,0.3 -1.6,0.7 -2.3,1.3 -0.7,0.6 -1.4,1.2 -1.9,2 -0.6,0.8 -1,1.6 -1.2,2.5 v 13.4 h -2.9 V 74.2 h 2.6 v 5 c 0.9,-1.6 2.2,-2.9 3.8,-3.9 1.7,-1 3.5,-1.5 5.4,-1.5 1.2,0 2.2,0.2 3.1,0.7 0.8,0.4 1.5,1.1 2,1.9 0.5,0.8 0.9,1.8 1.1,3 0.2,1.2 0.3,2.5 0.3,3.9 v 12.8 z"
         id="path33"
         inkscape:connector-curvature="0"
         style="fill:#ffffff" />
      <path
         class="st0"
         d="m 341.8,85.1 c 0,-1.5 0.3,-3 0.8,-4.4 0.5,-1.4 1.3,-2.6 2.2,-3.6 1,-1 2.1,-1.8 3.5,-2.4 1.3,-0.6 2.8,-0.9 4.5,-0.9 2.1,0 3.9,0.5 5.4,1.4 1.5,0.9 2.7,2.2 3.5,3.8 l -2.8,0.9 c -0.6,-1.1 -1.5,-2 -2.6,-2.6 -1.1,-0.6 -2.3,-0.9 -3.7,-0.9 -1.1,0 -2.2,0.2 -3.1,0.7 -1,0.4 -1.8,1.1 -2.5,1.8 -0.7,0.8 -1.3,1.7 -1.7,2.8 -0.4,1.1 -0.6,2.2 -0.6,3.5 0,1.2 0.2,2.4 0.6,3.5 0.4,1.1 1,2 1.7,2.8 0.7,0.8 1.6,1.4 2.5,1.9 0.9,0.5 2,0.7 3.1,0.7 0.7,0 1.4,-0.1 2.1,-0.3 0.7,-0.2 1.3,-0.5 1.9,-0.8 0.6,-0.3 1.1,-0.7 1.5,-1.2 0.4,-0.4 0.7,-0.9 0.9,-1.4 l 2.8,0.8 c -0.3,0.8 -0.8,1.5 -1.3,2.2 -0.6,0.7 -1.3,1.2 -2.1,1.7 -0.8,0.5 -1.7,0.9 -2.6,1.1 -1,0.3 -2,0.4 -3,0.4 -1.6,0 -3.1,-0.3 -4.4,-0.9 -1.3,-0.6 -2.5,-1.4 -3.5,-2.5 -1,-1.1 -1.7,-2.3 -2.3,-3.6 -0.5,-1.4 -0.8,-2.9 -0.8,-4.5 z"
         id="path35"
         inkscape:connector-curvature="0"
         style="fill:#ffffff" />
      <path
         class="st0"
         d="m 375.7,96.5 c -1.6,0 -3.1,-0.3 -4.4,-0.9 -1.3,-0.6 -2.5,-1.4 -3.5,-2.5 -1,-1.1 -1.7,-2.3 -2.3,-3.6 -0.5,-1.4 -0.8,-2.8 -0.8,-4.4 0,-1.5 0.3,-3 0.8,-4.3 0.5,-1.4 1.3,-2.5 2.3,-3.6 1,-1 2.1,-1.8 3.5,-2.4 1.3,-0.6 2.8,-0.9 4.4,-0.9 1.6,0 3.1,0.3 4.4,0.9 1.3,0.6 2.5,1.4 3.4,2.5 1,1 1.7,2.2 2.2,3.6 0.5,1.3 0.8,2.8 0.8,4.3 0,0.2 0,0.4 0,0.7 0,0.2 0,0.4 0,0.5 h -18.7 c 0.1,1.2 0.4,2.3 0.8,3.3 0.5,1 1.1,1.9 1.8,2.6 0.7,0.7 1.6,1.3 2.5,1.7 0.9,0.4 1.9,0.6 3,0.6 0.7,0 1.4,-0.1 2.1,-0.3 0.7,-0.2 1.3,-0.5 1.9,-0.8 0.6,-0.3 1.1,-0.7 1.6,-1.2 0.5,-0.5 0.8,-1 1.1,-1.6 l 2.5,0.7 c -0.3,0.8 -0.8,1.5 -1.4,2.2 -0.6,0.7 -1.3,1.2 -2.1,1.7 -0.8,0.5 -1.7,0.9 -2.7,1.1 -1.2,0 -2.2,0.1 -3.2,0.1 z m 8,-12.5 c -0.1,-1.2 -0.4,-2.2 -0.8,-3.2 -0.5,-1 -1,-1.8 -1.8,-2.5 -0.7,-0.7 -1.5,-1.2 -2.5,-1.6 -0.9,-0.4 -1.9,-0.6 -3,-0.6 -1.1,0 -2.1,0.2 -3,0.6 -1,0.4 -1.8,0.9 -2.5,1.6 -0.7,0.7 -1.3,1.5 -1.7,2.5 -0.4,1 -0.7,2 -0.8,3.2 z"
         id="path37"
         inkscape:connector-curvature="0"
         style="fill:#ffffff" />
      <path
         class="st0"
         d="M 428.6,96.1 V 71.6 L 417.7,90.5 H 416 L 405.1,71.6 v 24.5 h -2.9 V 66.3 h 3 l 11.6,20.4 11.7,-20.4 h 3 v 29.8 z"
         id="path39"
         inkscape:connector-curvature="0"
         style="fill:#ffffff" />
      <path
         class="st0"
         d="m 447.6,96.5 c -1.6,0 -3.1,-0.3 -4.4,-0.9 -1.3,-0.6 -2.5,-1.4 -3.5,-2.5 -1,-1.1 -1.7,-2.3 -2.3,-3.6 -0.5,-1.4 -0.8,-2.8 -0.8,-4.4 0,-1.5 0.3,-3 0.8,-4.3 0.5,-1.4 1.3,-2.5 2.3,-3.6 1,-1 2.1,-1.8 3.5,-2.4 1.3,-0.6 2.8,-0.9 4.4,-0.9 1.6,0 3.1,0.3 4.4,0.9 1.3,0.6 2.5,1.4 3.4,2.5 1,1 1.7,2.2 2.2,3.6 0.5,1.3 0.8,2.8 0.8,4.3 0,0.2 0,0.4 0,0.7 0,0.2 0,0.4 0,0.5 h -18.7 c 0.1,1.2 0.4,2.3 0.8,3.3 0.5,1 1.1,1.9 1.8,2.6 0.7,0.7 1.6,1.3 2.5,1.7 0.9,0.4 1.9,0.6 3,0.6 0.7,0 1.4,-0.1 2.1,-0.3 0.7,-0.2 1.3,-0.5 1.9,-0.8 0.6,-0.3 1.1,-0.7 1.6,-1.2 0.5,-0.5 0.8,-1 1.1,-1.6 l 2.5,0.7 c -0.3,0.8 -0.8,1.5 -1.4,2.2 -0.6,0.7 -1.3,1.2 -2.1,1.7 -0.8,0.5 -1.7,0.9 -2.7,1.1 -1.2,0 -2.2,0.1 -3.2,0.1 z m 8,-12.5 c -0.1,-1.2 -0.4,-2.2 -0.8,-3.2 -0.5,-1 -1,-1.8 -1.8,-2.5 -0.7,-0.7 -1.5,-1.2 -2.5,-1.6 -0.9,-0.4 -1.9,-0.6 -3,-0.6 -1.1,0 -2.1,0.2 -3,0.6 -1,0.4 -1.8,0.9 -2.5,1.6 -0.7,0.7 -1.3,1.5 -1.7,2.5 -0.4,1 -0.7,2 -0.8,3.2 z"
         id="path41"
         inkscape:connector-curvature="0"
         style="fill:#ffffff" />
      <path
         class="st0"
         d="m 473.1,95.1 c -0.2,0.1 -0.4,0.2 -0.7,0.3 -0.3,0.1 -0.7,0.3 -1.1,0.4 -0.4,0.1 -0.9,0.3 -1.4,0.4 -0.5,0.1 -1.1,0.2 -1.7,0.2 -0.6,0 -1.2,-0.1 -1.8,-0.3 -0.6,-0.2 -1,-0.4 -1.5,-0.8 -0.5,-0.4 -0.8,-0.8 -1,-1.3 -0.3,-0.5 -0.4,-1.1 -0.4,-1.8 V 76.5 h -3 v -2.3 h 3 v -7.4 h 2.9 v 7.4 h 5 v 2.3 h -5 v 14.9 c 0.1,0.8 0.3,1.4 0.9,1.8 0.5,0.4 1.1,0.6 1.8,0.6 0.8,0 1.5,-0.1 2.1,-0.4 0.6,-0.3 1,-0.5 1.2,-0.6 z"
         id="path43"
         inkscape:connector-curvature="0"
         style="fill:#ffffff" />
      <path
         class="st0"
         d="m 487.6,76.8 c -1.9,0.1 -3.6,0.6 -5,1.6 -1.4,1 -2.4,2.4 -3,4.2 v 13.6 h -2.9 v -22 h 2.7 v 5.3 c 0.8,-1.7 1.9,-3 3.3,-3.9 1.4,-1 2.8,-1.4 4.4,-1.4 0.2,0 0.4,0 0.5,0 z"
         id="path45"
         inkscape:connector-curvature="0"
         style="fill:#ffffff" />
      <path
         class="st0"
         d="m 491.4,69.7 v -4.2 h 2.9 v 4.2 z m 0,26.4 V 74.2 h 2.9 v 21.9 z"
         id="path47"
         inkscape:connector-curvature="0"
         style="fill:#ffffff" />
      <path
         class="st0"
         d="m 499,85.1 c 0,-1.5 0.3,-3 0.8,-4.4 0.5,-1.4 1.3,-2.6 2.2,-3.6 1,-1 2.1,-1.8 3.5,-2.4 1.3,-0.6 2.8,-0.9 4.5,-0.9 2.1,0 3.9,0.5 5.4,1.4 1.5,0.9 2.7,2.2 3.5,3.8 l -2.8,0.9 c -0.6,-1.1 -1.5,-2 -2.6,-2.6 -1.1,-0.6 -2.3,-0.9 -3.7,-0.9 -1.1,0 -2.2,0.2 -3.1,0.7 -1,0.4 -1.8,1.1 -2.5,1.8 -0.7,0.8 -1.3,1.7 -1.7,2.8 -0.4,1.1 -0.6,2.2 -0.6,3.5 0,1.2 0.2,2.4 0.6,3.5 0.4,1.1 1,2 1.7,2.8 0.7,0.8 1.6,1.4 2.5,1.9 0.9,0.5 2,0.7 3.1,0.7 0.7,0 1.4,-0.1 2.1,-0.3 0.7,-0.2 1.3,-0.5 1.9,-0.8 0.6,-0.3 1.1,-0.7 1.5,-1.2 0.4,-0.4 0.7,-0.9 0.9,-1.4 l 2.8,0.8 c -0.3,0.8 -0.8,1.5 -1.3,2.2 -0.6,0.7 -1.3,1.2 -2.1,1.7 -0.8,0.5 -1.7,0.9 -2.6,1.1 -1,0.3 -2,0.4 -3,0.4 -1.6,0 -3.1,-0.3 -4.4,-0.9 -1.3,-0.6 -2.5,-1.4 -3.5,-2.5 -1,-1.1 -1.7,-2.3 -2.3,-3.6 -0.5,-1.4 -0.8,-2.9 -0.8,-4.5 z"
         id="path49"
         inkscape:connector-curvature="0"
         style="fill:#ffffff" />
      <path
         class="st0"
         d="m 530.9,96.5 c -1.7,0 -3.4,-0.3 -5,-0.8 -1.6,-0.6 -3,-1.4 -4.2,-2.4 l 1.3,-1.9 c 1.2,1 2.5,1.8 3.8,2.3 1.3,0.5 2.6,0.8 4.1,0.8 1.8,0 3.2,-0.4 4.2,-1.1 1,-0.7 1.6,-1.7 1.6,-3 0,-0.6 -0.1,-1.1 -0.4,-1.5 -0.3,-0.4 -0.7,-0.8 -1.2,-1.1 -0.5,-0.3 -1.2,-0.6 -2.1,-0.8 -0.8,-0.2 -1.8,-0.5 -2.9,-0.7 -1.3,-0.3 -2.4,-0.6 -3.3,-0.9 -0.9,-0.3 -1.7,-0.7 -2.3,-1.1 -0.6,-0.4 -1,-0.9 -1.3,-1.4 -0.3,-0.6 -0.4,-1.3 -0.4,-2.2 0,-1.1 0.2,-2.1 0.7,-2.9 0.4,-0.8 1,-1.5 1.8,-2.1 0.8,-0.6 1.6,-1 2.6,-1.2 1,-0.3 2.1,-0.4 3.2,-0.4 1.7,0 3.2,0.3 4.6,0.8 1.4,0.5 2.5,1.3 3.3,2.2 l -1.4,1.7 c -0.8,-0.8 -1.8,-1.5 -3,-1.9 -1.2,-0.4 -2.4,-0.6 -3.6,-0.6 -0.8,0 -1.5,0.1 -2.1,0.2 -0.6,0.2 -1.2,0.4 -1.7,0.7 -0.5,0.3 -0.9,0.8 -1.2,1.3 -0.3,0.5 -0.4,1.1 -0.4,1.8 0,0.6 0.1,1.1 0.3,1.4 0.2,0.4 0.5,0.7 1,0.9 0.4,0.3 1,0.5 1.7,0.7 0.7,0.2 1.5,0.4 2.5,0.7 1.4,0.3 2.6,0.7 3.7,1 1.1,0.3 2,0.7 2.7,1.2 0.7,0.4 1.3,1 1.6,1.6 0.4,0.6 0.5,1.4 0.5,2.4 0,2 -0.8,3.6 -2.3,4.8 -1.7,0.9 -3.8,1.5 -6.4,1.5 z"
         id="path51"
         inkscape:connector-curvature="0"
         style="fill:#ffffff" />
    </g>
    <rect
       y="93.645752"
       class="st1"
       width="47.909958"
       height="3.1734629"
       id="rect55"
       x="80.743103"
       style="fill:#3f3f3f;stroke-width:0.06367426" />
    <g
       transform="matrix(0.06346925,0,0,0.06346925,80.743106,12.151227)"
       id="g73">
      <path
         class="st1"
         d="m 81.4,257 c 0,1 -0.2,1.8 -0.6,2.6 -0.4,0.8 -0.9,1.5 -1.5,2.1 -0.6,0.6 -1.4,1 -2.3,1.4 -0.9,0.3 -1.8,0.5 -2.8,0.5 h -12 V 238 h 12.3 c 0.9,0 1.7,0.2 2.4,0.6 0.7,0.4 1.3,0.9 1.8,1.5 0.5,0.6 0.9,1.3 1.2,2.1 0.3,0.8 0.4,1.6 0.4,2.4 0,1.3 -0.3,2.5 -1,3.5 -0.6,1.1 -1.5,1.9 -2.7,2.4 1.5,0.4 2.6,1.2 3.5,2.4 0.9,1.2 1.3,2.6 1.3,4.1 z M 64.7,240.3 v 9.4 h 8.8 c 0.6,0 1.2,-0.1 1.7,-0.4 0.5,-0.3 1,-0.6 1.4,-1 0.4,-0.4 0.7,-0.9 0.9,-1.5 0.2,-0.6 0.3,-1.2 0.3,-1.8 0,-0.6 -0.1,-1.3 -0.3,-1.8 -0.2,-0.6 -0.5,-1.1 -0.9,-1.5 -0.4,-0.4 -0.8,-0.8 -1.3,-1 -0.5,-0.2 -1.1,-0.4 -1.7,-0.4 z m 14.2,16.3 c 0,-0.6 -0.1,-1.2 -0.3,-1.8 -0.2,-0.6 -0.5,-1.1 -0.9,-1.5 -0.4,-0.4 -0.9,-0.8 -1.4,-1.1 -0.5,-0.3 -1.1,-0.4 -1.7,-0.4 h -9.8 v 9.7 h 9.5 c 0.6,0 1.3,-0.1 1.8,-0.4 0.6,-0.3 1.1,-0.6 1.5,-1.1 0.4,-0.4 0.7,-1 1,-1.5 0.2,-0.7 0.3,-1.3 0.3,-1.9 z"
         id="path57"
         inkscape:connector-curvature="0"
         style="fill:#3f3f3f" />
      <path
         class="st1"
         d="m 93.7,264 c -1.4,0 -2.6,-0.3 -3.7,-0.8 -1.1,-0.5 -2.1,-1.2 -2.9,-2.1 -0.8,-0.9 -1.5,-1.9 -1.9,-3.1 -0.5,-1.2 -0.7,-2.4 -0.7,-3.7 0,-1.3 0.2,-2.6 0.7,-3.7 0.5,-1.2 1.1,-2.2 1.9,-3.1 0.8,-0.9 1.8,-1.6 2.9,-2.1 1.1,-0.5 2.4,-0.8 3.7,-0.8 1.3,0 2.6,0.3 3.7,0.8 1.1,0.5 2.1,1.2 3,2.1 0.8,0.9 1.5,1.9 1.9,3.1 0.5,1.2 0.7,2.4 0.7,3.7 0,1.3 -0.2,2.5 -0.7,3.7 -0.5,1.2 -1.1,2.2 -1.9,3.1 -0.8,0.9 -1.8,1.6 -3,2.1 -1.1,0.5 -2.4,0.8 -3.7,0.8 z m -6.8,-9.7 c 0,1.1 0.2,2 0.5,2.9 0.4,0.9 0.8,1.7 1.5,2.4 0.6,0.7 1.3,1.2 2.2,1.6 0.8,0.4 1.7,0.6 2.6,0.6 0.9,0 1.8,-0.2 2.6,-0.6 0.8,-0.4 1.6,-0.9 2.2,-1.6 0.6,-0.7 1.1,-1.5 1.5,-2.4 0.4,-0.9 0.5,-1.9 0.5,-3 0,-1 -0.2,-2 -0.5,-2.9 -0.4,-0.9 -0.9,-1.7 -1.5,-2.4 -0.6,-0.7 -1.4,-1.2 -2.2,-1.6 -0.8,-0.4 -1.7,-0.6 -2.6,-0.6 -0.9,0 -1.8,0.2 -2.6,0.6 -0.8,0.4 -1.5,0.9 -2.2,1.6 -0.6,0.7 -1.1,1.5 -1.5,2.4 -0.4,1 -0.5,2 -0.5,3 z"
         id="path59"
         inkscape:connector-curvature="0"
         style="fill:#3f3f3f" />
      <path
         class="st1"
         d="m 115.1,264 c -1.4,0 -2.6,-0.3 -3.7,-0.8 -1.1,-0.5 -2.1,-1.2 -2.9,-2.1 -0.8,-0.9 -1.5,-1.9 -1.9,-3.1 -0.5,-1.2 -0.7,-2.4 -0.7,-3.7 0,-1.3 0.2,-2.6 0.7,-3.7 0.5,-1.2 1.1,-2.2 1.9,-3.1 0.8,-0.9 1.8,-1.6 2.9,-2.1 1.1,-0.5 2.4,-0.8 3.7,-0.8 1.3,0 2.6,0.3 3.7,0.8 1.1,0.5 2.1,1.2 3,2.1 0.8,0.9 1.5,1.9 1.9,3.1 0.5,1.2 0.7,2.4 0.7,3.7 0,1.3 -0.2,2.5 -0.7,3.7 -0.5,1.2 -1.1,2.2 -1.9,3.1 -0.8,0.9 -1.8,1.6 -3,2.1 -1.1,0.5 -2.3,0.8 -3.7,0.8 z m -6.8,-9.7 c 0,1.1 0.2,2 0.5,2.9 0.4,0.9 0.8,1.7 1.5,2.4 0.6,0.7 1.3,1.2 2.2,1.6 0.8,0.4 1.7,0.6 2.6,0.6 0.9,0 1.8,-0.2 2.6,-0.6 0.8,-0.4 1.6,-0.9 2.2,-1.6 0.6,-0.7 1.1,-1.5 1.5,-2.4 0.4,-0.9 0.5,-1.9 0.5,-3 0,-1 -0.2,-2 -0.5,-2.9 -0.4,-0.9 -0.9,-1.7 -1.5,-2.4 -0.6,-0.7 -1.4,-1.2 -2.2,-1.6 -0.8,-0.4 -1.7,-0.6 -2.6,-0.6 -0.9,0 -1.8,0.2 -2.6,0.6 -0.8,0.4 -1.5,0.9 -2.2,1.6 -0.6,0.7 -1.1,1.5 -1.5,2.4 -0.3,1 -0.5,2 -0.5,3 z"
         id="path61"
         inkscape:connector-curvature="0"
         style="fill:#3f3f3f" />
      <path
         class="st1"
         d="m 141.9,263.6 -6.9,-9.6 -4,3.7 v 5.9 h -2.4 v -26.3 h 2.4 v 17.9 l 10.5,-10.3 h 2.8 l -7.7,7.7 8,11.1 h -2.7 z"
         id="path63"
         inkscape:connector-curvature="0"
         style="fill:#3f3f3f" />
      <path
         class="st1"
         d="m 147.6,241 v -3.6 h 2.4 v 3.6 z m 0,22.6 v -18.8 h 2.4 v 18.8 z"
         id="path65"
         inkscape:connector-curvature="0"
         style="fill:#3f3f3f" />
      <path
         class="st1"
         d="m 171.2,263.6 h -2.4 v -10.5 c 0,-2.2 -0.3,-3.9 -1,-4.9 -0.7,-1 -1.7,-1.5 -3,-1.5 -0.7,0 -1.4,0.1 -2.2,0.4 -0.7,0.3 -1.4,0.6 -2,1.1 -0.6,0.5 -1.2,1.1 -1.6,1.7 -0.5,0.7 -0.8,1.4 -1,2.1 v 11.5 h -2.4 v -18.8 h 2.2 v 4.2 c 0.8,-1.4 1.9,-2.5 3.3,-3.3 1.4,-0.8 3,-1.3 4.7,-1.3 1,0 1.9,0.2 2.6,0.6 0.7,0.4 1.3,0.9 1.7,1.6 0.4,0.7 0.7,1.5 0.9,2.6 0.2,1 0.3,2.1 0.3,3.3 v 11.2 z"
         id="path67"
         inkscape:connector-curvature="0"
         style="fill:#3f3f3f" />
      <path
         class="st1"
         d="m 184,263.9 c -1.3,0 -2.5,-0.3 -3.5,-0.8 -1.1,-0.5 -2,-1.3 -2.8,-2.1 -0.8,-0.9 -1.4,-1.9 -1.8,-3.1 -0.4,-1.2 -0.6,-2.3 -0.6,-3.6 0,-1.3 0.2,-2.5 0.6,-3.7 0.4,-1.2 1,-2.2 1.8,-3.1 0.8,-0.9 1.7,-1.6 2.8,-2.1 1.1,-0.5 2.3,-0.8 3.5,-0.8 1.6,0 3,0.4 4.2,1.2 1.2,0.8 2.2,1.8 3,3 v -3.9 h 2.2 v 18.8 c 0,1.3 -0.2,2.4 -0.7,3.4 -0.5,1 -1.2,1.8 -2,2.5 -0.8,0.7 -1.8,1.2 -2.9,1.5 -1.1,0.3 -2.3,0.5 -3.5,0.5 -2.2,0 -3.9,-0.4 -5.2,-1.2 -1.3,-0.8 -2.4,-1.8 -3.2,-3.1 l 1.5,-1.2 c 0.7,1.2 1.7,2.1 3,2.6 1.2,0.6 2.5,0.8 4,0.8 0.9,0 1.8,-0.1 2.6,-0.4 0.8,-0.3 1.5,-0.6 2.1,-1.1 0.6,-0.5 1.1,-1.1 1.5,-1.9 0.4,-0.8 0.5,-1.6 0.5,-2.6 V 260 c -0.7,1.2 -1.7,2.1 -3,2.8 -1.5,0.7 -2.8,1.1 -4.1,1.1 z m 0.6,-2.1 c 0.7,0 1.4,-0.1 2.1,-0.4 0.7,-0.3 1.3,-0.6 1.9,-1.1 0.6,-0.4 1,-0.9 1.4,-1.5 0.4,-0.6 0.6,-1.1 0.8,-1.7 v -5.8 c -0.3,-0.7 -0.6,-1.3 -1.1,-1.9 -0.5,-0.6 -1,-1.1 -1.5,-1.5 -0.6,-0.4 -1.2,-0.7 -1.9,-1 -0.7,-0.2 -1.3,-0.4 -2,-0.4 -1.1,0 -2,0.2 -2.8,0.7 -0.8,0.4 -1.5,1 -2.1,1.7 -0.6,0.7 -1,1.5 -1.3,2.4 -0.3,0.9 -0.5,1.8 -0.5,2.8 0,1 0.2,2 0.5,2.9 0.4,0.9 0.9,1.7 1.5,2.4 0.6,0.7 1.4,1.2 2.2,1.6 0.9,0.6 1.9,0.8 2.8,0.8 z"
         id="path69"
         inkscape:connector-curvature="0"
         style="fill:#3f3f3f" />
      <path
         class="st1"
         d="m 204.9,264 c -1.5,0 -2.9,-0.2 -4.3,-0.7 -1.4,-0.5 -2.6,-1.2 -3.6,-2.1 l 1.1,-1.7 c 1.1,0.9 2.1,1.5 3.2,1.9 1.1,0.4 2.3,0.6 3.5,0.6 1.5,0 2.7,-0.3 3.6,-0.9 0.9,-0.6 1.4,-1.5 1.4,-2.6 0,-0.5 -0.1,-1 -0.4,-1.3 -0.2,-0.3 -0.6,-0.7 -1.1,-0.9 -0.5,-0.3 -1.1,-0.5 -1.8,-0.7 -0.7,-0.2 -1.5,-0.4 -2.5,-0.6 -1.1,-0.3 -2,-0.5 -2.8,-0.8 -0.8,-0.3 -1.4,-0.6 -2,-0.9 -0.5,-0.3 -0.9,-0.8 -1.2,-1.2 -0.3,-0.5 -0.4,-1.1 -0.4,-1.9 0,-0.9 0.2,-1.8 0.6,-2.5 0.4,-0.7 0.9,-1.3 1.5,-1.8 0.6,-0.5 1.4,-0.8 2.2,-1.1 0.9,-0.2 1.8,-0.4 2.7,-0.4 1.4,0 2.7,0.2 3.9,0.7 1.2,0.5 2.1,1.1 2.8,1.9 l -1.2,1.4 c -0.7,-0.7 -1.5,-1.3 -2.5,-1.6 -1,-0.4 -2,-0.5 -3.1,-0.5 -0.6,0 -1.2,0.1 -1.8,0.2 -0.6,0.1 -1,0.3 -1.5,0.6 -0.4,0.3 -0.8,0.7 -1,1.1 -0.2,0.4 -0.4,1 -0.4,1.6 0,0.5 0.1,0.9 0.3,1.2 0.2,0.3 0.4,0.6 0.8,0.8 0.4,0.2 0.9,0.4 1.5,0.6 0.6,0.2 1.3,0.4 2.1,0.6 1.2,0.3 2.3,0.6 3.2,0.9 0.9,0.3 1.7,0.6 2.3,1 0.6,0.4 1.1,0.9 1.4,1.4 0.3,0.6 0.5,1.2 0.5,2 0,1.7 -0.7,3.1 -2,4.1 -1,1.1 -2.8,1.6 -5,1.6 z"
         id="path71"
         inkscape:connector-curvature="0"
         style="fill:#3f3f3f" />
    </g>
    <circle
       class="st2"
       cx="113.55671"
       cy="28.145479"
       r="3.5860128"
       id="circle75"
       style="fill:#ffffff;stroke:#438bc9;stroke-width:0.69816178;stroke-miterlimit:10" />
    <g
       transform="matrix(0.06346925,0,0,0.06346925,80.743106,12.151227)"
       id="g87">
      <path
         class="st1"
         d="m 78.1,370.9 c -0.7,-0.8 -1.7,-1.5 -2.9,-2 -1.2,-0.5 -2.6,-0.8 -4.1,-0.8 -2.3,0 -3.9,0.4 -4.9,1.3 -1,0.9 -1.5,2 -1.5,3.5 0,0.8 0.1,1.4 0.4,1.9 0.3,0.5 0.7,0.9 1.3,1.3 0.6,0.4 1.3,0.7 2.2,0.9 0.9,0.2 2,0.5 3.2,0.8 1.4,0.3 2.6,0.6 3.7,1 1.1,0.4 2,0.8 2.8,1.4 0.8,0.5 1.4,1.2 1.8,2 0.4,0.8 0.6,1.7 0.6,2.9 0,1.2 -0.2,2.2 -0.7,3.1 -0.5,0.9 -1.1,1.6 -1.9,2.2 -0.8,0.6 -1.8,1 -2.9,1.3 -1.1,0.3 -2.4,0.4 -3.7,0.4 -4,0 -7.4,-1.2 -10.3,-3.7 l 1.3,-2.1 c 0.5,0.5 1,0.9 1.6,1.4 0.6,0.4 1.3,0.8 2.1,1.1 0.8,0.3 1.6,0.6 2.5,0.8 0.9,0.2 1.8,0.3 2.8,0.3 2,0 3.6,-0.4 4.8,-1.1 1.1,-0.7 1.7,-1.8 1.7,-3.3 0,-0.8 -0.2,-1.5 -0.5,-2 -0.3,-0.5 -0.8,-1 -1.5,-1.4 -0.7,-0.4 -1.5,-0.7 -2.4,-1 -1,-0.3 -2.1,-0.6 -3.3,-0.9 -1.3,-0.3 -2.5,-0.6 -3.5,-1 -1,-0.3 -1.9,-0.8 -2.6,-1.3 -0.7,-0.5 -1.2,-1.1 -1.6,-1.8 -0.3,-0.7 -0.5,-1.6 -0.5,-2.6 0,-1.2 0.2,-2.2 0.7,-3.1 0.4,-0.9 1.1,-1.7 1.9,-2.3 0.8,-0.6 1.8,-1.1 2.9,-1.4 1.1,-0.3 2.3,-0.5 3.7,-0.5 1.7,0 3.2,0.3 4.6,0.8 1.4,0.5 2.5,1.2 3.6,2.2 z"
         id="path77"
         inkscape:connector-curvature="0"
         style="fill:#3f3f3f" />
      <path
         class="st1"
         d="m 89.3,392 c -0.9,0 -1.7,-0.1 -2.5,-0.4 -0.8,-0.3 -1.4,-0.7 -2,-1.2 -0.6,-0.5 -1,-1.1 -1.3,-1.9 -0.3,-0.7 -0.5,-1.5 -0.5,-2.3 0,-0.8 0.2,-1.6 0.6,-2.3 0.4,-0.7 0.9,-1.3 1.6,-1.8 0.7,-0.5 1.5,-0.9 2.5,-1.2 1,-0.3 2,-0.4 3.2,-0.4 1,0 1.9,0.1 2.9,0.3 1,0.2 1.9,0.4 2.6,0.7 v -1.7 c 0,-1.7 -0.5,-3 -1.4,-3.9 -0.9,-1 -2.2,-1.5 -3.9,-1.5 -1,0 -1.9,0.2 -3,0.6 -1,0.4 -2,0.9 -3.1,1.7 l -0.9,-1.6 c 2.4,-1.6 4.8,-2.4 7.1,-2.4 2.4,0 4.2,0.7 5.5,2 1.3,1.3 2,3.1 2,5.5 v 8.5 c 0,0.7 0.3,1 0.9,1 v 2.2 c -0.4,0.1 -0.7,0.1 -0.9,0.1 -0.6,0 -1.1,-0.2 -1.5,-0.5 -0.3,-0.3 -0.5,-0.7 -0.6,-1.3 l -0.1,-1.5 c -0.9,1.1 -2,2 -3.3,2.6 -1,0.4 -2.4,0.7 -3.9,0.7 z m 0.5,-1.9 c 1.3,0 2.4,-0.2 3.5,-0.7 1.1,-0.5 1.9,-1.1 2.4,-1.9 0.2,-0.2 0.4,-0.4 0.5,-0.7 0.1,-0.3 0.2,-0.5 0.2,-0.7 V 383 c -0.8,-0.3 -1.7,-0.6 -2.5,-0.7 -0.9,-0.2 -1.8,-0.3 -2.7,-0.3 -1.7,0 -3.1,0.4 -4.2,1.1 -1.1,0.7 -1.6,1.7 -1.6,2.8 0,0.6 0.1,1.1 0.3,1.6 0.2,0.5 0.5,0.9 0.9,1.3 0.4,0.4 0.9,0.7 1.4,0.9 0.6,0.3 1.2,0.4 1.8,0.4 z"
         id="path79"
         inkscape:connector-curvature="0"
         style="fill:#3f3f3f" />
      <path
         class="st1"
         d="m 104.3,365.4 h 2.4 v 22 c 0,0.7 0.2,1.2 0.6,1.6 0.4,0.4 0.9,0.6 1.6,0.6 0.3,0 0.6,0 0.9,-0.1 0.4,-0.1 0.7,-0.2 1,-0.3 l 0.4,2 c -0.5,0.2 -1,0.3 -1.7,0.5 -0.7,0.1 -1.2,0.2 -1.7,0.2 -1.1,0 -2,-0.3 -2.7,-1 -0.6,-0.6 -1,-1.5 -1,-2.7 v -22.8 z"
         id="path81"
         inkscape:connector-curvature="0"
         style="fill:#3f3f3f" />
      <path
         class="st1"
         d="m 122.1,392 c -1.4,0 -2.6,-0.3 -3.8,-0.8 -1.1,-0.5 -2.1,-1.2 -3,-2.1 -0.8,-0.9 -1.5,-1.9 -2,-3.1 -0.5,-1.2 -0.7,-2.4 -0.7,-3.8 0,-1.3 0.2,-2.6 0.7,-3.7 0.5,-1.2 1.1,-2.2 1.9,-3.1 0.8,-0.9 1.8,-1.6 3,-2.1 1.2,-0.5 2.4,-0.8 3.7,-0.8 1.4,0 2.6,0.3 3.8,0.8 1.1,0.5 2.1,1.2 2.9,2.1 0.8,0.9 1.5,1.9 1.9,3.1 0.5,1.2 0.7,2.4 0.7,3.7 0,0.2 0,0.4 0,0.6 0,0.2 0,0.3 0,0.4 h -16.1 c 0.1,1 0.3,1.9 0.7,2.8 0.4,0.9 0.9,1.6 1.5,2.2 0.6,0.6 1.3,1.1 2.1,1.5 0.8,0.3 1.7,0.5 2.6,0.5 0.6,0 1.2,-0.1 1.8,-0.3 0.6,-0.2 1.2,-0.4 1.7,-0.7 0.5,-0.3 1,-0.6 1.4,-1.1 0.4,-0.4 0.7,-0.9 0.9,-1.4 l 2.1,0.6 c -0.3,0.7 -0.7,1.3 -1.2,1.9 -0.5,0.6 -1.1,1.1 -1.8,1.5 -0.7,0.4 -1.5,0.7 -2.3,1 -0.7,0.2 -1.6,0.3 -2.5,0.3 z m 6.9,-10.7 c -0.1,-1 -0.3,-1.9 -0.7,-2.8 -0.4,-0.9 -0.9,-1.5 -1.5,-2.1 -0.6,-0.6 -1.3,-1.1 -2.1,-1.4 -0.8,-0.3 -1.7,-0.5 -2.6,-0.5 -0.9,0 -1.8,0.2 -2.6,0.5 -0.8,0.3 -1.5,0.8 -2.1,1.4 -0.6,0.6 -1.1,1.3 -1.5,2.2 -0.4,0.8 -0.6,1.8 -0.7,2.7 z"
         id="path83"
         inkscape:connector-curvature="0"
         style="fill:#3f3f3f" />
      <path
         class="st1"
         d="m 141.3,392 c -1.5,0 -2.9,-0.2 -4.3,-0.7 -1.4,-0.5 -2.6,-1.2 -3.6,-2.1 l 1.1,-1.7 c 1.1,0.9 2.1,1.5 3.2,1.9 1.1,0.4 2.3,0.6 3.5,0.6 1.5,0 2.7,-0.3 3.6,-0.9 0.9,-0.6 1.4,-1.5 1.4,-2.6 0,-0.5 -0.1,-1 -0.4,-1.3 -0.2,-0.3 -0.6,-0.7 -1.1,-0.9 -0.5,-0.3 -1.1,-0.5 -1.8,-0.7 -0.7,-0.2 -1.5,-0.4 -2.5,-0.6 -1.1,-0.3 -2,-0.5 -2.8,-0.8 -0.8,-0.3 -1.4,-0.6 -2,-0.9 -0.5,-0.3 -0.9,-0.8 -1.2,-1.2 -0.3,-0.5 -0.4,-1.1 -0.4,-1.9 0,-0.9 0.2,-1.8 0.6,-2.5 0.4,-0.7 0.9,-1.3 1.5,-1.8 0.6,-0.5 1.4,-0.8 2.2,-1.1 0.9,-0.2 1.8,-0.4 2.7,-0.4 1.4,0 2.7,0.2 3.9,0.7 1.2,0.5 2.1,1.1 2.8,1.9 l -1.2,1.4 c -0.7,-0.7 -1.5,-1.3 -2.5,-1.6 -1,-0.4 -2,-0.5 -3.1,-0.5 -0.6,0 -1.2,0.1 -1.8,0.2 -0.6,0.1 -1,0.3 -1.5,0.6 -0.4,0.3 -0.8,0.7 -1,1.1 -0.2,0.4 -0.4,1 -0.4,1.6 0,0.5 0.1,0.9 0.3,1.2 0.2,0.3 0.4,0.6 0.8,0.8 0.4,0.2 0.9,0.4 1.5,0.6 0.6,0.2 1.3,0.4 2.1,0.6 1.2,0.3 2.3,0.6 3.2,0.9 0.9,0.3 1.7,0.6 2.3,1 0.6,0.4 1.1,0.9 1.4,1.4 0.3,0.6 0.5,1.2 0.5,2 0,1.7 -0.7,3.1 -2,4.1 -1,1.1 -2.7,1.6 -5,1.6 z"
         id="path85"
         inkscape:connector-curvature="0"
         style="fill:#3f3f3f" />
    </g>
    <g
       transform="matrix(0.06346925,0,0,0.06346925,80.743106,12.151227)"
       id="g121">
      <path
         class="st1"
         d="m 64.7,491.8 v 20.9 h -2.5 v -25.6 h 1.9 L 81,508.4 v -21.2 h 2.5 v 25.5 h -2.2 z"
         id="path89"
         inkscape:connector-curvature="0"
         style="fill:#3f3f3f" />
      <path
         class="st1"
         d="m 97.2,513 c -1.4,0 -2.6,-0.3 -3.7,-0.8 -1.1,-0.5 -2.1,-1.2 -2.9,-2.1 -0.8,-0.9 -1.5,-1.9 -1.9,-3.1 -0.5,-1.2 -0.7,-2.4 -0.7,-3.7 0,-1.3 0.2,-2.6 0.7,-3.7 0.5,-1.2 1.1,-2.2 1.9,-3.1 0.8,-0.9 1.8,-1.6 2.9,-2.1 1.1,-0.5 2.4,-0.8 3.7,-0.8 1.3,0 2.6,0.3 3.7,0.8 1.1,0.5 2.1,1.2 3,2.1 0.8,0.9 1.5,1.9 1.9,3.1 0.5,1.2 0.7,2.4 0.7,3.7 0,1.3 -0.2,2.5 -0.7,3.7 -0.5,1.2 -1.1,2.2 -1.9,3.1 -0.8,0.9 -1.8,1.6 -3,2.1 -1,0.5 -2.3,0.8 -3.7,0.8 z m -6.8,-9.7 c 0,1.1 0.2,2 0.5,2.9 0.4,0.9 0.8,1.7 1.5,2.4 0.6,0.7 1.3,1.2 2.2,1.6 0.8,0.4 1.7,0.6 2.6,0.6 0.9,0 1.8,-0.2 2.6,-0.6 0.8,-0.4 1.6,-0.9 2.2,-1.6 0.6,-0.7 1.1,-1.5 1.5,-2.4 0.4,-0.9 0.5,-1.9 0.5,-3 0,-1 -0.2,-2 -0.5,-2.9 -0.4,-0.9 -0.9,-1.7 -1.5,-2.4 -0.6,-0.7 -1.4,-1.2 -2.2,-1.6 -0.8,-0.4 -1.7,-0.6 -2.6,-0.6 -0.9,0 -1.8,0.2 -2.6,0.6 -0.8,0.4 -1.5,0.9 -2.2,1.6 -0.6,0.7 -1.1,1.5 -1.5,2.4 -0.3,1 -0.5,2 -0.5,3 z"
         id="path91"
         inkscape:connector-curvature="0"
         style="fill:#3f3f3f" />
      <path
         class="st1"
         d="m 127.8,513 c -1.4,0 -2.6,-0.3 -3.7,-0.8 -1.1,-0.5 -2.1,-1.2 -2.9,-2.1 -0.8,-0.9 -1.5,-1.9 -1.9,-3.1 -0.5,-1.2 -0.7,-2.4 -0.7,-3.7 0,-1.3 0.2,-2.6 0.7,-3.7 0.5,-1.2 1.1,-2.2 1.9,-3.1 0.8,-0.9 1.8,-1.6 2.9,-2.1 1.1,-0.5 2.4,-0.8 3.7,-0.8 1.3,0 2.6,0.3 3.7,0.8 1.1,0.5 2.1,1.2 3,2.1 0.8,0.9 1.5,1.9 1.9,3.1 0.5,1.2 0.7,2.4 0.7,3.7 0,1.3 -0.2,2.5 -0.7,3.7 -0.5,1.2 -1.1,2.2 -1.9,3.1 -0.8,0.9 -1.8,1.6 -3,2.1 -1,0.5 -2.3,0.8 -3.7,0.8 z m -6.8,-9.7 c 0,1.1 0.2,2 0.5,2.9 0.4,0.9 0.8,1.7 1.5,2.4 0.6,0.7 1.3,1.2 2.2,1.6 0.8,0.4 1.7,0.6 2.6,0.6 0.9,0 1.8,-0.2 2.6,-0.6 0.8,-0.4 1.6,-0.9 2.2,-1.6 0.6,-0.7 1.1,-1.5 1.5,-2.4 0.4,-0.9 0.5,-1.9 0.5,-3 0,-1 -0.2,-2 -0.5,-2.9 -0.4,-0.9 -0.9,-1.7 -1.5,-2.4 -0.6,-0.7 -1.4,-1.2 -2.2,-1.6 -0.8,-0.4 -1.7,-0.6 -2.6,-0.6 -0.9,0 -1.8,0.2 -2.6,0.6 -0.8,0.4 -1.5,0.9 -2.2,1.6 -0.6,0.7 -1.1,1.5 -1.5,2.4 -0.3,1 -0.5,2 -0.5,3 z"
         id="path93"
         inkscape:connector-curvature="0"
         style="fill:#3f3f3f" />
      <path
         class="st1"
         d="m 141.9,512.6 v -16.8 h -2.6 v -1.9 h 2.6 v -0.5 c 0,-2.3 0.5,-4.1 1.5,-5.4 1,-1.3 2.3,-2 4,-2 0.7,0 1.5,0.1 2.2,0.3 0.7,0.2 1.3,0.5 1.8,0.9 l -0.8,1.8 c -0.3,-0.3 -0.8,-0.5 -1.2,-0.6 -0.5,-0.1 -1,-0.2 -1.5,-0.2 -1.2,0 -2,0.4 -2.6,1.3 -0.6,0.9 -0.9,2.2 -0.9,3.9 v 0.6 h 5.2 v 1.9 h -5.2 v 16.8 h -2.5 z"
         id="path95"
         inkscape:connector-curvature="0"
         style="fill:#3f3f3f" />
      <path
         class="st1"
         d="m 160,503.2 c 0,-1.3 0.2,-2.6 0.7,-3.7 0.5,-1.2 1.1,-2.2 1.9,-3.1 0.8,-0.9 1.8,-1.6 3,-2.1 1.2,-0.5 2.4,-0.8 3.8,-0.8 1.8,0 3.3,0.4 4.6,1.2 1.3,0.8 2.3,1.9 3,3.3 l -2.4,0.8 c -0.5,-1 -1.3,-1.7 -2.2,-2.3 -0.9,-0.6 -2,-0.8 -3.1,-0.8 -1,0 -1.9,0.2 -2.7,0.6 -0.8,0.4 -1.5,0.9 -2.2,1.6 -0.6,0.7 -1.1,1.4 -1.4,2.4 -0.3,0.9 -0.5,1.9 -0.5,3 0,1.1 0.2,2.1 0.5,3 0.4,0.9 0.9,1.7 1.5,2.4 0.6,0.7 1.4,1.2 2.2,1.6 0.8,0.4 1.7,0.6 2.6,0.6 0.6,0 1.2,-0.1 1.8,-0.3 0.6,-0.2 1.1,-0.4 1.6,-0.7 0.5,-0.3 0.9,-0.6 1.3,-1 0.4,-0.4 0.6,-0.8 0.8,-1.2 l 2.4,0.7 c -0.3,0.7 -0.6,1.3 -1.2,1.9 -0.5,0.6 -1.1,1.1 -1.8,1.5 -0.7,0.4 -1.4,0.7 -2.3,1 -0.8,0.2 -1.7,0.3 -2.6,0.3 -1.4,0 -2.6,-0.3 -3.8,-0.8 -1.2,-0.5 -2.1,-1.2 -3,-2.1 -0.8,-0.9 -1.5,-1.9 -2,-3.1 -0.3,-1.3 -0.5,-2.6 -0.5,-3.9 z"
         id="path97"
         inkscape:connector-curvature="0"
         style="fill:#3f3f3f" />
      <path
         class="st1"
         d="m 185.8,513 c -0.9,0 -1.7,-0.1 -2.5,-0.4 -0.8,-0.3 -1.4,-0.7 -2,-1.2 -0.6,-0.5 -1,-1.1 -1.3,-1.9 -0.3,-0.7 -0.5,-1.5 -0.5,-2.3 0,-0.8 0.2,-1.6 0.6,-2.3 0.4,-0.7 0.9,-1.3 1.6,-1.8 0.7,-0.5 1.5,-0.9 2.5,-1.2 1,-0.3 2,-0.4 3.2,-0.4 1,0 1.9,0.1 2.9,0.3 1,0.2 1.9,0.4 2.6,0.7 v -1.7 c 0,-1.7 -0.5,-3 -1.4,-3.9 -0.9,-1 -2.2,-1.5 -3.9,-1.5 -1,0 -1.9,0.2 -3,0.6 -1,0.4 -2,0.9 -3.1,1.7 l -0.9,-1.6 c 2.4,-1.6 4.8,-2.4 7.1,-2.4 2.4,0 4.2,0.7 5.5,2 1.3,1.3 2,3.1 2,5.5 v 8.5 c 0,0.7 0.3,1 0.9,1 v 2.2 c -0.4,0.1 -0.7,0.1 -0.9,0.1 -0.6,0 -1.1,-0.2 -1.5,-0.5 -0.3,-0.3 -0.5,-0.7 -0.6,-1.3 l -0.1,-1.5 c -0.9,1.1 -2,2 -3.3,2.6 -1,0.4 -2.4,0.7 -3.9,0.7 z m 0.5,-1.9 c 1.3,0 2.4,-0.2 3.5,-0.7 1.1,-0.5 1.9,-1.1 2.4,-1.9 0.2,-0.2 0.4,-0.4 0.5,-0.7 0.1,-0.3 0.2,-0.5 0.2,-0.7 V 504 c -0.8,-0.3 -1.7,-0.6 -2.5,-0.7 -0.9,-0.2 -1.8,-0.3 -2.7,-0.3 -1.7,0 -3.1,0.4 -4.2,1.1 -1.1,0.7 -1.6,1.7 -1.6,2.8 0,0.6 0.1,1.1 0.3,1.6 0.2,0.5 0.5,0.9 0.9,1.3 0.4,0.4 0.9,0.7 1.4,0.9 0.6,0.3 1.2,0.4 1.8,0.4 z"
         id="path99"
         inkscape:connector-curvature="0"
         style="fill:#3f3f3f" />
      <path
         class="st1"
         d="M 216.4,512.6 H 214 v -10.5 c 0,-2.2 -0.3,-3.9 -1,-4.9 -0.7,-1 -1.7,-1.5 -3,-1.5 -0.7,0 -1.4,0.1 -2.2,0.4 -0.7,0.3 -1.4,0.6 -2,1.1 -0.6,0.5 -1.2,1.1 -1.6,1.7 -0.5,0.7 -0.8,1.4 -1,2.1 v 11.5 h -2.4 v -18.8 h 2.2 v 4.2 c 0.8,-1.4 1.9,-2.5 3.3,-3.3 1.4,-0.8 3,-1.3 4.7,-1.3 1,0 1.9,0.2 2.6,0.6 0.7,0.4 1.3,0.9 1.7,1.6 0.4,0.7 0.7,1.5 0.9,2.6 0.2,1 0.3,2.1 0.3,3.3 v 11.2 z"
         id="path101"
         inkscape:connector-curvature="0"
         style="fill:#3f3f3f" />
      <path
         class="st1"
         d="m 220.3,503.2 c 0,-1.3 0.2,-2.6 0.7,-3.7 0.5,-1.2 1.1,-2.2 1.9,-3.1 0.8,-0.9 1.8,-1.6 3,-2.1 1.2,-0.5 2.4,-0.8 3.8,-0.8 1.8,0 3.3,0.4 4.6,1.2 1.3,0.8 2.3,1.9 3,3.3 l -2.4,0.8 c -0.5,-1 -1.3,-1.7 -2.2,-2.3 -0.9,-0.6 -2,-0.8 -3.1,-0.8 -1,0 -1.9,0.2 -2.7,0.6 -0.8,0.4 -1.5,0.9 -2.2,1.6 -0.6,0.7 -1.1,1.4 -1.4,2.4 -0.3,0.9 -0.5,1.9 -0.5,3 0,1.1 0.2,2.1 0.5,3 0.4,0.9 0.9,1.7 1.5,2.4 0.6,0.7 1.4,1.2 2.2,1.6 0.8,0.4 1.7,0.6 2.6,0.6 0.6,0 1.2,-0.1 1.8,-0.3 0.6,-0.2 1.1,-0.4 1.6,-0.7 0.5,-0.3 0.9,-0.6 1.3,-1 0.4,-0.4 0.6,-0.8 0.8,-1.2 l 2.4,0.7 c -0.3,0.7 -0.6,1.3 -1.2,1.9 -0.5,0.6 -1.1,1.1 -1.8,1.5 -0.7,0.4 -1.4,0.7 -2.3,1 -0.8,0.2 -1.7,0.3 -2.6,0.3 -1.4,0 -2.6,-0.3 -3.8,-0.8 -1.2,-0.5 -2.1,-1.2 -3,-2.1 -0.8,-0.9 -1.5,-1.9 -2,-3.1 -0.2,-1.3 -0.5,-2.6 -0.5,-3.9 z"
         id="path103"
         inkscape:connector-curvature="0"
         style="fill:#3f3f3f" />
      <path
         class="st1"
         d="m 249.3,513 c -1.4,0 -2.6,-0.3 -3.8,-0.8 -1.1,-0.5 -2.1,-1.2 -3,-2.1 -0.8,-0.9 -1.5,-1.9 -2,-3.1 -0.5,-1.2 -0.7,-2.4 -0.7,-3.8 0,-1.3 0.2,-2.6 0.7,-3.7 0.5,-1.2 1.1,-2.2 1.9,-3.1 0.8,-0.9 1.8,-1.6 3,-2.1 1.2,-0.5 2.4,-0.8 3.7,-0.8 1.4,0 2.6,0.3 3.8,0.8 1.1,0.5 2.1,1.2 2.9,2.1 0.8,0.9 1.5,1.9 1.9,3.1 0.5,1.2 0.7,2.4 0.7,3.7 0,0.2 0,0.4 0,0.6 0,0.2 0,0.3 0,0.4 h -16.1 c 0.1,1 0.3,1.9 0.7,2.8 0.4,0.9 0.9,1.6 1.5,2.2 0.6,0.6 1.3,1.1 2.1,1.5 0.8,0.3 1.7,0.5 2.6,0.5 0.6,0 1.2,-0.1 1.8,-0.3 0.6,-0.2 1.2,-0.4 1.7,-0.7 0.5,-0.3 1,-0.6 1.4,-1.1 0.4,-0.4 0.7,-0.9 0.9,-1.4 l 2.1,0.6 c -0.3,0.7 -0.7,1.3 -1.2,1.9 -0.5,0.6 -1.1,1.1 -1.8,1.5 -0.7,0.4 -1.5,0.7 -2.3,1 -0.7,0.2 -1.6,0.3 -2.5,0.3 z m 6.9,-10.7 c -0.1,-1 -0.3,-1.9 -0.7,-2.8 -0.4,-0.9 -0.9,-1.5 -1.5,-2.1 -0.6,-0.6 -1.3,-1.1 -2.1,-1.4 -0.8,-0.3 -1.7,-0.5 -2.6,-0.5 -0.9,0 -1.8,0.2 -2.6,0.5 -0.8,0.3 -1.5,0.8 -2.1,1.4 -0.6,0.6 -1.1,1.3 -1.5,2.2 -0.4,0.8 -0.6,1.8 -0.7,2.7 z"
         id="path105"
         inkscape:connector-curvature="0"
         style="fill:#3f3f3f" />
      <path
         class="st1"
         d="m 262.5,486.4 h 2.4 v 22 c 0,0.7 0.2,1.2 0.6,1.6 0.4,0.4 0.9,0.6 1.6,0.6 0.3,0 0.6,0 0.9,-0.1 0.4,-0.1 0.7,-0.2 1,-0.3 l 0.4,2 c -0.5,0.2 -1,0.3 -1.7,0.5 -0.7,0.1 -1.2,0.2 -1.7,0.2 -1.1,0 -2,-0.3 -2.7,-1 -0.6,-0.6 -1,-1.5 -1,-2.7 v -22.8 z"
         id="path107"
         inkscape:connector-curvature="0"
         style="fill:#3f3f3f" />
      <path
         class="st1"
         d="m 272.3,486.4 h 2.4 v 22 c 0,0.7 0.2,1.2 0.6,1.6 0.4,0.4 0.9,0.6 1.6,0.6 0.3,0 0.6,0 0.9,-0.1 0.4,-0.1 0.7,-0.2 1,-0.3 l 0.4,2 c -0.5,0.2 -1,0.3 -1.7,0.5 -0.7,0.1 -1.2,0.2 -1.7,0.2 -1.1,0 -2,-0.3 -2.7,-1 -0.6,-0.6 -1,-1.5 -1,-2.7 v -22.8 z"
         id="path109"
         inkscape:connector-curvature="0"
         style="fill:#3f3f3f" />
      <path
         class="st1"
         d="m 286.7,513 c -0.9,0 -1.7,-0.1 -2.5,-0.4 -0.8,-0.3 -1.4,-0.7 -2,-1.2 -0.6,-0.5 -1,-1.1 -1.3,-1.9 -0.3,-0.7 -0.5,-1.5 -0.5,-2.3 0,-0.8 0.2,-1.6 0.6,-2.3 0.4,-0.7 0.9,-1.3 1.6,-1.8 0.7,-0.5 1.5,-0.9 2.5,-1.2 1,-0.3 2,-0.4 3.2,-0.4 1,0 1.9,0.1 2.9,0.3 1,0.2 1.9,0.4 2.6,0.7 v -1.7 c 0,-1.7 -0.5,-3 -1.4,-3.9 -0.9,-1 -2.2,-1.5 -3.9,-1.5 -1,0 -1.9,0.2 -3,0.6 -1,0.4 -2,0.9 -3.1,1.7 l -0.9,-1.6 c 2.4,-1.6 4.8,-2.4 7.1,-2.4 2.4,0 4.2,0.7 5.5,2 1.3,1.3 2,3.1 2,5.5 v 8.5 c 0,0.7 0.3,1 0.9,1 v 2.2 c -0.4,0.1 -0.7,0.1 -0.9,0.1 -0.6,0 -1.1,-0.2 -1.5,-0.5 -0.3,-0.3 -0.5,-0.7 -0.6,-1.3 l -0.1,-1.5 c -0.9,1.1 -2,2 -3.3,2.6 -1,0.4 -2.4,0.7 -3.9,0.7 z m 0.5,-1.9 c 1.3,0 2.4,-0.2 3.5,-0.7 1.1,-0.5 1.9,-1.1 2.4,-1.9 0.2,-0.2 0.4,-0.4 0.5,-0.7 0.1,-0.3 0.2,-0.5 0.2,-0.7 V 504 c -0.8,-0.3 -1.7,-0.6 -2.5,-0.7 -0.9,-0.2 -1.8,-0.3 -2.7,-0.3 -1.7,0 -3.1,0.4 -4.2,1.1 -1.1,0.7 -1.6,1.7 -1.6,2.8 0,0.6 0.1,1.1 0.3,1.6 0.2,0.5 0.5,0.9 0.9,1.3 0.4,0.4 0.9,0.7 1.4,0.9 0.6,0.3 1.2,0.4 1.8,0.4 z"
         id="path111"
         inkscape:connector-curvature="0"
         style="fill:#3f3f3f" />
      <path
         class="st1"
         d="m 310.4,511.7 c -0.1,0.1 -0.4,0.2 -0.6,0.3 -0.3,0.1 -0.6,0.2 -1,0.4 -0.4,0.1 -0.8,0.2 -1.2,0.3 -0.5,0.1 -0.9,0.1 -1.4,0.1 -0.5,0 -1,-0.1 -1.5,-0.2 -0.5,-0.1 -0.9,-0.4 -1.3,-0.7 -0.4,-0.3 -0.6,-0.7 -0.9,-1.1 -0.2,-0.5 -0.3,-1 -0.3,-1.6 v -13.4 h -2.6 v -1.9 h 2.6 v -6.3 h 2.4 v 6.3 h 4.3 v 1.9 h -4.3 v 12.7 c 0,0.7 0.3,1.2 0.7,1.5 0.4,0.3 1,0.5 1.5,0.5 0.7,0 1.3,-0.1 1.8,-0.3 0.5,-0.2 0.9,-0.4 1,-0.5 z"
         id="path113"
         inkscape:connector-curvature="0"
         style="fill:#3f3f3f" />
      <path
         class="st1"
         d="m 313.5,490 v -3.6 h 2.4 v 3.6 z m 0,22.6 v -18.8 h 2.4 v 18.8 z"
         id="path115"
         inkscape:connector-curvature="0"
         style="fill:#3f3f3f" />
      <path
         class="st1"
         d="m 329.3,513 c -1.4,0 -2.6,-0.3 -3.7,-0.8 -1.1,-0.5 -2.1,-1.2 -2.9,-2.1 -0.8,-0.9 -1.5,-1.9 -1.9,-3.1 -0.5,-1.2 -0.7,-2.4 -0.7,-3.7 0,-1.3 0.2,-2.6 0.7,-3.7 0.5,-1.2 1.1,-2.2 1.9,-3.1 0.8,-0.9 1.8,-1.6 2.9,-2.1 1.1,-0.5 2.4,-0.8 3.7,-0.8 1.3,0 2.6,0.3 3.7,0.8 1.1,0.5 2.1,1.2 3,2.1 0.8,0.9 1.5,1.9 1.9,3.1 0.5,1.2 0.7,2.4 0.7,3.7 0,1.3 -0.2,2.5 -0.7,3.7 -0.5,1.2 -1.1,2.2 -1.9,3.1 -0.8,0.9 -1.8,1.6 -3,2.1 -1.1,0.5 -2.3,0.8 -3.7,0.8 z m -6.8,-9.7 c 0,1.1 0.2,2 0.5,2.9 0.4,0.9 0.8,1.7 1.5,2.4 0.6,0.7 1.3,1.2 2.2,1.6 0.8,0.4 1.7,0.6 2.6,0.6 0.9,0 1.8,-0.2 2.6,-0.6 0.8,-0.4 1.6,-0.9 2.2,-1.6 0.6,-0.7 1.1,-1.5 1.5,-2.4 0.4,-0.9 0.5,-1.9 0.5,-3 0,-1 -0.2,-2 -0.5,-2.9 -0.4,-0.9 -0.9,-1.7 -1.5,-2.4 -0.6,-0.7 -1.3,-1.2 -2.2,-1.6 -0.9,-0.4 -1.7,-0.6 -2.6,-0.6 -0.9,0 -1.8,0.2 -2.6,0.6 -0.8,0.4 -1.5,0.9 -2.2,1.6 -0.6,0.7 -1.1,1.5 -1.5,2.4 -0.3,1 -0.5,2 -0.5,3 z"
         id="path117"
         inkscape:connector-curvature="0"
         style="fill:#3f3f3f" />
      <path
         class="st1"
         d="m 358.5,512.6 h -2.4 v -10.5 c 0,-2.2 -0.3,-3.9 -1,-4.9 -0.7,-1 -1.7,-1.5 -3,-1.5 -0.7,0 -1.4,0.1 -2.2,0.4 -0.7,0.3 -1.4,0.6 -2,1.1 -0.6,0.5 -1.2,1.1 -1.6,1.7 -0.5,0.7 -0.8,1.4 -1,2.1 v 11.5 h -2.4 v -18.8 h 2.2 v 4.2 c 0.8,-1.4 1.9,-2.5 3.3,-3.3 1.4,-0.8 3,-1.3 4.7,-1.3 1,0 1.9,0.2 2.6,0.6 0.7,0.4 1.3,0.9 1.7,1.6 0.4,0.7 0.7,1.5 0.9,2.6 0.2,1 0.3,2.1 0.3,3.3 v 11.2 z"
         id="path119"
         inkscape:connector-curvature="0"
         style="fill:#3f3f3f" />
    </g>
    <circle
       class="st2"
       cx="116.09548"
       cy="43.885857"
       r="3.5860128"
       id="circle123"
       style="fill:#ffffff;stroke:#438bc9;stroke-width:0.69816178;stroke-miterlimit:10" />
    <circle
       class="st2"
       cx="118.3169"
       cy="35.82526"
       r="5.9343753"
       id="circle125"
       style="fill:#ffffff;stroke:#438bc9;stroke-width:0.69816178;stroke-miterlimit:10" />
    <g
       transform="matrix(0.06346925,0,0,0.06346925,80.743106,12.151227)"
       id="g135">
      <path
         class="st1"
         d="m 497.3,258.1 v 2.9 h -12.9 v -2.9 h 5.1 v -14 c -0.2,0.3 -0.6,0.6 -1,0.9 -0.5,0.3 -1,0.6 -1.5,0.9 -0.6,0.3 -1.1,0.5 -1.7,0.7 -0.6,0.2 -1.1,0.3 -1.6,0.3 v -3 c 0.5,0 1.1,-0.1 1.8,-0.4 0.6,-0.3 1.3,-0.6 1.9,-1 0.6,-0.4 1.1,-0.8 1.5,-1.2 0.4,-0.4 0.7,-0.6 0.7,-0.8 h 3.2 v 17.7 h 4.5 z"
         id="path127"
         inkscape:connector-curvature="0"
         style="fill:#3f3f3f" />
      <path
         class="st1"
         d="M 512.3,242.9 H 499.2 V 240 h 18.1 l -12.9,25.6 h -3.6 z"
         id="path129"
         inkscape:connector-curvature="0"
         style="fill:#3f3f3f" />
      <path
         class="st1"
         d="m 518.8,249.3 c 0,-1.2 0.2,-2.4 0.7,-3.4 0.5,-1 1.1,-2 1.9,-2.8 0.8,-0.8 1.8,-1.4 2.9,-1.9 1.1,-0.5 2.3,-0.7 3.6,-0.7 1.4,0 2.6,0.3 3.8,0.8 1.1,0.5 2.1,1.2 2.9,2.2 0.8,0.9 1.4,2.1 1.9,3.5 0.4,1.4 0.7,2.9 0.7,4.6 0,2.5 -0.2,4.7 -0.7,6.6 -0.5,1.9 -1.1,3.5 -1.9,4.7 -0.8,1.3 -1.8,2.2 -3,2.8 -1.2,0.6 -2.5,0.9 -3.9,0.9 -1.7,0 -3.2,-0.4 -4.5,-1.2 -1.4,-0.8 -2.4,-1.9 -3.2,-3.3 l 1.9,-1.9 c 0.5,1.1 1.3,2 2.3,2.7 1,0.7 2.2,1 3.5,1 2,0 3.5,-0.9 4.7,-2.6 1.2,-1.8 1.8,-4.2 1.8,-7.4 -0.5,1.2 -1.4,2.2 -2.6,3 -1.2,0.7 -2.5,1.1 -4,1.1 -1.2,0 -2.4,-0.2 -3.5,-0.7 -1.1,-0.4 -2,-1 -2.8,-1.8 -0.8,-0.8 -1.4,-1.7 -1.9,-2.7 -0.4,-1.2 -0.6,-2.3 -0.6,-3.5 z m 9.1,-6.1 c -0.8,0 -1.6,0.2 -2.4,0.5 -0.7,0.3 -1.4,0.8 -1.9,1.3 -0.6,0.6 -1,1.2 -1.3,1.9 -0.3,0.7 -0.5,1.5 -0.5,2.4 0,0.8 0.2,1.6 0.5,2.4 0.3,0.7 0.8,1.4 1.3,1.9 0.6,0.5 1.2,1 1.9,1.3 0.7,0.3 1.5,0.5 2.4,0.5 0.8,0 1.6,-0.2 2.4,-0.5 0.7,-0.3 1.4,-0.8 1.9,-1.3 0.6,-0.5 1,-1.2 1.3,-1.9 0.3,-0.7 0.5,-1.5 0.5,-2.4 0,-0.8 -0.2,-1.6 -0.5,-2.3 -0.3,-0.7 -0.8,-1.4 -1.3,-1.9 -0.6,-0.6 -1.2,-1 -1.9,-1.3 -0.8,-0.5 -1.6,-0.6 -2.4,-0.6 z"
         id="path131"
         inkscape:connector-curvature="0"
         style="fill:#3f3f3f" />
      <path
         class="st1"
         d="m 551.6,252.5 c 1.5,0.3 2.8,1 3.7,2.1 0.9,1.1 1.3,2.6 1.3,4.3 0,1.1 -0.2,2.1 -0.6,3 -0.4,0.9 -1,1.7 -1.7,2.3 -0.7,0.6 -1.7,1.1 -2.7,1.5 -1.1,0.3 -2.2,0.5 -3.5,0.5 -1.8,0 -3.4,-0.3 -4.8,-1 -1.4,-0.7 -2.5,-1.7 -3.2,-2.9 l 2.1,-2.1 c 0.6,1 1.3,1.8 2.2,2.3 0.9,0.6 2.2,0.8 3.7,0.8 1.7,0 3,-0.4 3.9,-1.1 0.9,-0.7 1.4,-1.9 1.4,-3.4 0,-1.5 -0.5,-2.7 -1.5,-3.6 -1,-0.9 -2.5,-1.4 -4.4,-1.4 h -0.9 v -2.7 h 1 c 1.7,0 3.1,-0.4 4,-1.2 0.9,-0.8 1.4,-1.9 1.4,-3.1 0,-1.2 -0.4,-2.2 -1.3,-2.8 -0.9,-0.6 -2,-0.9 -3.3,-0.9 -1.3,0 -2.5,0.3 -3.5,0.8 -1,0.5 -1.8,1.4 -2.3,2.4 l -1.9,-2 c 0.3,-0.6 0.7,-1.1 1.3,-1.6 0.5,-0.5 1.2,-0.9 1.9,-1.3 0.7,-0.4 1.5,-0.6 2.3,-0.8 0.8,-0.2 1.7,-0.3 2.6,-0.3 1.1,0 2.2,0.2 3.1,0.5 0.9,0.3 1.8,0.7 2.4,1.3 0.7,0.6 1.2,1.2 1.6,2 0.4,0.8 0.6,1.7 0.6,2.6 0,0.7 -0.1,1.4 -0.3,2.1 -0.2,0.6 -0.5,1.2 -0.9,1.8 -0.4,0.5 -0.9,1 -1.4,1.3 -1,0.3 -1.7,0.5 -2.3,0.6 z"
         id="path133"
         inkscape:connector-curvature="0"
         style="fill:#3f3f3f" />
    </g>
    <g
       transform="matrix(0.06346925,0,0,0.06346925,80.743106,12.151227)"
       id="g151">
      <path
         class="st1"
         d="m 522.1,369.1 c 0.2,-1.4 0.7,-2.7 1.3,-3.9 0.6,-1.3 1.5,-2.4 2.5,-3.3 1,-1 2.2,-1.8 3.6,-2.3 1.4,-0.6 2.9,-0.9 4.6,-0.9 2.3,0 4.2,0.5 5.9,1.5 1.7,1 2.8,2.4 3.6,4 l -2.6,1.7 c -0.4,-0.8 -0.8,-1.5 -1.4,-2.1 -0.5,-0.6 -1.1,-1 -1.8,-1.3 -0.6,-0.3 -1.3,-0.6 -2,-0.7 -0.7,-0.1 -1.3,-0.2 -2,-0.2 -1.2,0 -2.3,0.2 -3.2,0.6 -0.9,0.4 -1.8,1 -2.5,1.7 -0.7,0.7 -1.3,1.5 -1.8,2.4 -0.5,0.9 -0.8,1.9 -1,2.9 h 11.3 l -0.8,1.9 H 525 v 0.5 c 0,0.6 0,1.1 0.1,1.6 h 10.2 l -0.8,1.9 h -9 c 0.3,0.9 0.7,1.8 1.3,2.6 0.5,0.8 1.2,1.5 1.9,2.1 0.7,0.6 1.5,1 2.4,1.4 0.9,0.3 1.8,0.5 2.8,0.5 0.7,0 1.4,-0.1 2.1,-0.3 0.7,-0.2 1.4,-0.4 2,-0.8 0.6,-0.4 1.3,-0.8 1.8,-1.4 0.6,-0.6 1,-1.2 1.4,-2 l 2.7,1.5 c -0.4,1 -1,1.8 -1.7,2.5 -0.7,0.7 -1.6,1.4 -2.5,1.9 -0.9,0.5 -1.9,0.9 -2.9,1.2 -1,0.3 -2,0.4 -3,0.4 -1.4,0 -2.8,-0.3 -4,-0.8 -1.2,-0.5 -2.3,-1.2 -3.3,-2.1 -1,-0.9 -1.8,-1.9 -2.5,-3 -0.7,-1.2 -1.2,-2.4 -1.6,-3.7 h -4 l 0.8,-1.9 h 2.8 c -0.1,-0.6 -0.1,-1.2 -0.1,-1.8 V 371 h -2.6 l 0.8,-1.9 z"
         id="path137"
         inkscape:connector-curvature="0"
         style="fill:#3f3f3f" />
      <path
         class="st1"
         d="m 570.3,381.5 v 2.9 h -12.9 v -2.9 h 5.1 v -14 c -0.2,0.3 -0.6,0.6 -1,0.9 -0.5,0.3 -1,0.6 -1.5,0.9 -0.6,0.3 -1.1,0.5 -1.7,0.7 -0.6,0.2 -1.1,0.3 -1.6,0.3 v -3 c 0.5,0 1.1,-0.1 1.8,-0.4 0.6,-0.3 1.3,-0.6 1.9,-1 0.6,-0.4 1.1,-0.8 1.5,-1.2 0.4,-0.4 0.7,-0.6 0.7,-0.8 h 3.2 v 17.7 h 4.5 z"
         id="path139"
         inkscape:connector-curvature="0"
         style="fill:#3f3f3f" />
      <path
         class="st1"
         d="m 591.3,373.8 c 0,1.6 -0.2,3 -0.7,4.4 -0.5,1.4 -1.1,2.5 -1.9,3.5 -0.8,1 -1.8,1.7 -2.9,2.3 -1.1,0.6 -2.3,0.8 -3.6,0.8 -1.3,0 -2.5,-0.3 -3.7,-0.8 -1.1,-0.5 -2.1,-1.3 -2.9,-2.3 -0.8,-1 -1.4,-2.1 -1.9,-3.5 -0.5,-1.4 -0.7,-2.8 -0.7,-4.4 0,-1.6 0.2,-3 0.7,-4.4 0.5,-1.4 1.1,-2.5 1.9,-3.5 0.8,-1 1.8,-1.7 2.9,-2.3 1.1,-0.6 2.3,-0.8 3.7,-0.8 1.3,0 2.5,0.3 3.6,0.8 1.1,0.6 2.1,1.3 2.9,2.3 0.8,1 1.5,2.1 1.9,3.5 0.4,1.4 0.7,2.8 0.7,4.4 z m -3.2,0 c 0,-1.2 -0.1,-2.3 -0.4,-3.2 -0.3,-1 -0.7,-1.8 -1.2,-2.5 -0.5,-0.7 -1.2,-1.3 -1.9,-1.6 -0.7,-0.4 -1.5,-0.6 -2.4,-0.6 -0.9,0 -1.7,0.2 -2.4,0.6 -0.7,0.4 -1.4,0.9 -1.9,1.6 -0.5,0.7 -0.9,1.6 -1.2,2.5 -0.3,1 -0.4,2.1 -0.4,3.2 0,1.2 0.1,2.3 0.4,3.3 0.3,1 0.7,1.8 1.2,2.5 0.5,0.7 1.1,1.2 1.9,1.6 0.7,0.4 1.5,0.6 2.4,0.6 0.9,0 1.7,-0.2 2.4,-0.6 0.7,-0.4 1.3,-0.9 1.9,-1.6 0.5,-0.7 0.9,-1.5 1.2,-2.5 0.2,-1 0.4,-2.1 0.4,-3.3 z"
         id="path141"
         inkscape:connector-curvature="0"
         style="fill:#3f3f3f" />
      <path
         class="st1"
         d="m 595.5,384.3 v -4 h 2.7 v 4 z"
         id="path143"
         inkscape:connector-curvature="0"
         style="fill:#3f3f3f" />
      <path
         class="st1"
         d="m 620.7,373.8 c 0,1.6 -0.2,3 -0.7,4.4 -0.5,1.4 -1.1,2.5 -1.9,3.5 -0.8,1 -1.8,1.7 -2.9,2.3 -1.1,0.6 -2.3,0.8 -3.6,0.8 -1.3,0 -2.5,-0.3 -3.7,-0.8 -1.1,-0.5 -2.1,-1.3 -2.9,-2.3 -0.8,-1 -1.4,-2.1 -1.9,-3.5 -0.5,-1.4 -0.7,-2.8 -0.7,-4.4 0,-1.6 0.2,-3 0.7,-4.4 0.5,-1.4 1.1,-2.5 1.9,-3.5 0.8,-1 1.8,-1.7 2.9,-2.3 1.1,-0.6 2.3,-0.8 3.7,-0.8 1.3,0 2.5,0.3 3.6,0.8 1.1,0.6 2.1,1.3 2.9,2.3 0.8,1 1.5,2.1 1.9,3.5 0.4,1.4 0.7,2.8 0.7,4.4 z m -3.2,0 c 0,-1.2 -0.1,-2.3 -0.4,-3.2 -0.3,-1 -0.7,-1.8 -1.2,-2.5 -0.5,-0.7 -1.2,-1.3 -1.9,-1.6 -0.7,-0.4 -1.5,-0.6 -2.4,-0.6 -0.9,0 -1.7,0.2 -2.4,0.6 -0.7,0.4 -1.4,0.9 -1.9,1.6 -0.5,0.7 -0.9,1.6 -1.2,2.5 -0.3,1 -0.4,2.1 -0.4,3.2 0,1.2 0.1,2.3 0.4,3.3 0.3,1 0.7,1.8 1.2,2.5 0.5,0.7 1.1,1.2 1.9,1.6 0.7,0.4 1.5,0.6 2.4,0.6 0.9,0 1.7,-0.2 2.4,-0.6 0.7,-0.4 1.3,-0.9 1.9,-1.6 0.5,-0.7 0.9,-1.5 1.2,-2.5 0.2,-1 0.4,-2.1 0.4,-3.3 z"
         id="path145"
         inkscape:connector-curvature="0"
         style="fill:#3f3f3f" />
      <path
         class="st1"
         d="m 642.8,373.8 c 0,1.6 -0.2,3 -0.7,4.4 -0.5,1.4 -1.1,2.5 -1.9,3.5 -0.8,1 -1.8,1.7 -2.9,2.3 -1.1,0.6 -2.3,0.8 -3.6,0.8 -1.3,0 -2.5,-0.3 -3.7,-0.8 -1.1,-0.5 -2.1,-1.3 -2.9,-2.3 -0.8,-1 -1.4,-2.1 -1.9,-3.5 -0.5,-1.4 -0.7,-2.8 -0.7,-4.4 0,-1.6 0.2,-3 0.7,-4.4 0.5,-1.4 1.1,-2.5 1.9,-3.5 0.8,-1 1.8,-1.7 2.9,-2.3 1.1,-0.6 2.3,-0.8 3.7,-0.8 1.3,0 2.5,0.3 3.6,0.8 1.1,0.6 2.1,1.3 2.9,2.3 0.8,1 1.5,2.1 1.9,3.5 0.4,1.4 0.7,2.8 0.7,4.4 z m -3.2,0 c 0,-1.2 -0.1,-2.3 -0.4,-3.2 -0.3,-1 -0.7,-1.8 -1.2,-2.5 -0.5,-0.7 -1.2,-1.3 -1.9,-1.6 -0.7,-0.4 -1.5,-0.6 -2.4,-0.6 -0.9,0 -1.7,0.2 -2.4,0.6 -0.7,0.4 -1.4,0.9 -1.9,1.6 -0.5,0.7 -0.9,1.6 -1.2,2.5 -0.3,1 -0.4,2.1 -0.4,3.2 0,1.2 0.1,2.3 0.4,3.3 0.3,1 0.7,1.8 1.2,2.5 0.5,0.7 1.1,1.2 1.9,1.6 0.7,0.4 1.5,0.6 2.4,0.6 0.9,0 1.7,-0.2 2.4,-0.6 0.7,-0.4 1.3,-0.9 1.9,-1.6 0.5,-0.7 0.9,-1.5 1.2,-2.5 0.2,-1 0.4,-2.1 0.4,-3.3 z"
         id="path147"
         inkscape:connector-curvature="0"
         style="fill:#3f3f3f" />
      <path
         class="st1"
         d="m 664.9,373.8 c 0,1.6 -0.2,3 -0.7,4.4 -0.5,1.4 -1.1,2.5 -1.9,3.5 -0.8,1 -1.8,1.7 -2.9,2.3 -1.1,0.6 -2.3,0.8 -3.6,0.8 -1.3,0 -2.5,-0.3 -3.7,-0.8 -1.1,-0.5 -2.1,-1.3 -2.9,-2.3 -0.8,-1 -1.4,-2.1 -1.9,-3.5 -0.5,-1.4 -0.7,-2.8 -0.7,-4.4 0,-1.6 0.2,-3 0.7,-4.4 0.5,-1.4 1.1,-2.5 1.9,-3.5 0.8,-1 1.8,-1.7 2.9,-2.3 1.1,-0.6 2.3,-0.8 3.7,-0.8 1.3,0 2.5,0.3 3.6,0.8 1.1,0.6 2.1,1.3 2.9,2.3 0.8,1 1.5,2.1 1.9,3.5 0.4,1.4 0.7,2.8 0.7,4.4 z m -3.2,0 c 0,-1.2 -0.1,-2.3 -0.4,-3.2 -0.3,-1 -0.7,-1.8 -1.2,-2.5 -0.5,-0.7 -1.2,-1.3 -1.9,-1.6 -0.7,-0.4 -1.5,-0.6 -2.4,-0.6 -0.9,0 -1.7,0.2 -2.4,0.6 -0.7,0.4 -1.4,0.9 -1.9,1.6 -0.5,0.7 -0.9,1.6 -1.2,2.5 -0.3,1 -0.4,2.1 -0.4,3.2 0,1.2 0.1,2.3 0.4,3.3 0.3,1 0.7,1.8 1.2,2.5 0.5,0.7 1.1,1.2 1.9,1.6 0.7,0.4 1.5,0.6 2.4,0.6 0.9,0 1.7,-0.2 2.4,-0.6 0.7,-0.4 1.3,-0.9 1.9,-1.6 0.5,-0.7 0.9,-1.5 1.2,-2.5 0.2,-1 0.4,-2.1 0.4,-3.3 z"
         id="path149"
         inkscape:connector-curvature="0"
         style="fill:#3f3f3f" />
    </g>
    <g
       transform="matrix(0.06346925,0,0,0.06346925,80.743106,12.151227)"
       id="g157">
      <path
         class="st1"
         d="m 549.1,502.8 c 1.5,0.3 2.8,1 3.7,2.1 0.9,1.1 1.3,2.6 1.3,4.3 0,1.1 -0.2,2.1 -0.6,3 -0.4,0.9 -1,1.7 -1.7,2.3 -0.7,0.6 -1.7,1.1 -2.7,1.5 -1.1,0.3 -2.2,0.5 -3.5,0.5 -1.8,0 -3.4,-0.3 -4.8,-1 -1.4,-0.7 -2.5,-1.7 -3.2,-2.9 l 2.1,-2.1 c 0.6,1 1.3,1.8 2.2,2.3 0.9,0.6 2.2,0.8 3.7,0.8 1.7,0 3,-0.4 3.9,-1.1 0.9,-0.7 1.4,-1.9 1.4,-3.4 0,-1.5 -0.5,-2.7 -1.5,-3.6 -1,-0.9 -2.5,-1.4 -4.4,-1.4 h -0.9 v -2.7 h 1 c 1.7,0 3.1,-0.4 4,-1.2 0.9,-0.8 1.4,-1.9 1.4,-3.1 0,-1.2 -0.4,-2.2 -1.3,-2.8 -0.9,-0.6 -2,-0.9 -3.3,-0.9 -1.3,0 -2.5,0.3 -3.5,0.8 -1,0.5 -1.8,1.4 -2.3,2.4 l -1.9,-2 c 0.3,-0.6 0.7,-1.1 1.3,-1.6 0.5,-0.5 1.2,-0.9 1.9,-1.3 0.7,-0.4 1.5,-0.6 2.3,-0.8 0.8,-0.2 1.7,-0.3 2.6,-0.3 1.1,0 2.2,0.2 3.1,0.5 0.9,0.3 1.8,0.7 2.4,1.3 0.7,0.6 1.2,1.2 1.6,2 0.4,0.8 0.6,1.7 0.6,2.6 0,0.7 -0.1,1.4 -0.3,2.1 -0.2,0.6 -0.5,1.2 -0.9,1.8 -0.4,0.5 -0.9,1 -1.4,1.3 -1,0.3 -1.6,0.5 -2.3,0.6 z"
         id="path153"
         inkscape:connector-curvature="0"
         style="fill:#3f3f3f" />
      <path
         class="st1"
         d="m 575.8,500.8 c 0,1.6 -0.2,3 -0.7,4.4 -0.5,1.4 -1.1,2.5 -1.9,3.5 -0.8,1 -1.8,1.7 -2.9,2.3 -1.1,0.6 -2.3,0.8 -3.6,0.8 -1.3,0 -2.5,-0.3 -3.7,-0.8 -1.1,-0.5 -2.1,-1.3 -2.9,-2.3 -0.8,-1 -1.4,-2.1 -1.9,-3.5 -0.5,-1.4 -0.7,-2.8 -0.7,-4.4 0,-1.6 0.2,-3 0.7,-4.4 0.5,-1.4 1.1,-2.5 1.9,-3.5 0.8,-1 1.8,-1.7 2.9,-2.3 1.1,-0.6 2.3,-0.8 3.7,-0.8 1.3,0 2.5,0.3 3.6,0.8 1.1,0.6 2.1,1.3 2.9,2.3 0.8,1 1.5,2.1 1.9,3.5 0.4,1.4 0.7,2.8 0.7,4.4 z m -3.2,0 c 0,-1.2 -0.1,-2.3 -0.4,-3.2 -0.3,-1 -0.7,-1.8 -1.2,-2.5 -0.5,-0.7 -1.2,-1.3 -1.9,-1.6 -0.7,-0.4 -1.5,-0.6 -2.4,-0.6 -0.9,0 -1.7,0.2 -2.4,0.6 -0.7,0.4 -1.4,0.9 -1.9,1.6 -0.5,0.7 -0.9,1.6 -1.2,2.5 -0.3,1 -0.4,2.1 -0.4,3.2 0,1.2 0.1,2.3 0.4,3.3 0.3,1 0.7,1.8 1.2,2.5 0.5,0.7 1.1,1.2 1.9,1.6 0.7,0.4 1.5,0.6 2.4,0.6 0.9,0 1.7,-0.2 2.4,-0.6 0.7,-0.4 1.3,-0.9 1.9,-1.6 0.5,-0.7 0.9,-1.5 1.2,-2.5 0.3,-1 0.4,-2.1 0.4,-3.3 z"
         id="path155"
         inkscape:connector-curvature="0"
         style="fill:#3f3f3f" />
    </g>
  </g>
  <rect
     style="opacity:1;vector-effect:none;fill:none;fill-opacity:1;stroke:#d8c7ce;stroke-width:0.15849513;stroke-linecap:butt;stroke-linejoin:miter;stroke-miterlimit:4;stroke-dasharray:none;stroke-dashoffset:0;stroke-opacity:1"
     id="rect4587"
     width="47.751461"
     height="84.509491"
     x="5.3568912"
     y="13.284869" />
</svg>
