<?xml version="1.0" encoding="UTF-8" standalone="no"?>
<svg
   xmlns:dc="http://purl.org/dc/elements/1.1/"
   xmlns:cc="http://creativecommons.org/ns#"
   xmlns:rdf="http://www.w3.org/1999/02/22-rdf-syntax-ns#"
   xmlns:svg="http://www.w3.org/2000/svg"
   xmlns="http://www.w3.org/2000/svg"
   xmlns:xlink="http://www.w3.org/1999/xlink"
   width="220"
   height="420"
   viewBox="0 0 58.208333 111.125"
   version="1.1"
   id="svg5231">
  <defs
     id="defs5225">
    <linearGradient
       id="linearGradient7211">
      <stop
         id="stop7207"
         offset="0"
         style="stop-color:#33445f;stop-opacity:0.12987013" />
      <stop
         style="stop-color:#424750;stop-opacity:0.7019608"
         offset="0.47223946"
         id="stop7213" />
      <stop
         id="stop7209"
         offset="1"
         style="stop-color:#33445f;stop-opacity:0;" />
    </linearGradient>
    <filter
       style="color-interpolation-filters:sRGB"
       id="filter4908-6"
       x="-0.0071861306"
       width="1.0143723"
       y="-0.0036034775"
       height="1.007207">
      <feGaussianBlur
         stdDeviation="0.16452951"
         id="feGaussianBlur4910-3" />
    </filter>
    <filter
       style="color-interpolation-filters:sRGB"
       id="filter4577-7"
       x="-0.018223526"
       width="1.036447"
       y="-0.0089451401"
       height="1.0178903">
      <feGaussianBlur
         stdDeviation="0.4001667"
         id="feGaussianBlur4579-7" />
    </filter>
    <filter
       style="color-interpolation-filters:sRGB"
       id="filter4916-1"
       x="-0.0049948203"
       width="1.0099896"
       y="-0.0028141416"
       height="1.0056283">
      <feGaussianBlur
         stdDeviation="0.098722652"
         id="feGaussianBlur4918-3" />
    </filter>
    <filter
       style="color-interpolation-filters:sRGB"
       id="filter5039-1"
       x="-0.012"
       width="1.024"
       y="-0.012"
       height="1.024">
      <feGaussianBlur
         stdDeviation="0.0078818125"
         id="feGaussianBlur5041-0" />
    </filter>
    <filter
       style="color-interpolation-filters:sRGB"
       id="filter5015-7"
       x="-0.012"
       width="1.024"
       y="-0.012"
       height="1.024">
      <feGaussianBlur
         stdDeviation="0.0060729522"
         id="feGaussianBlur5017-2" />
    </filter>
    <filter
       style="color-interpolation-filters:sRGB"
       id="filter4963-9"
       x="-0.01186988"
       width="1.0237398"
       y="-0.14346766"
       height="1.2869353">
      <feGaussianBlur
         stdDeviation="0.04889952"
         id="feGaussianBlur4965-6" />
    </filter>
    <filter
       style="color-interpolation-filters:sRGB"
       id="filter4863-4"
       x="-0.081836641"
       width="1.1636733"
       y="-0.0064747045"
       height="1.0129493">
      <feGaussianBlur
         stdDeviation="0.26543101"
         id="feGaussianBlur4865-4" />
    </filter>
    <linearGradient
       xlink:href="#linearGradient4900"
       id="linearGradient4902-3"
       x1="-730.80035"
       y1="159.70114"
       x2="-730.53308"
       y2="183.7554"
       gradientUnits="userSpaceOnUse" />
    <linearGradient
       id="linearGradient4900">
      <stop
         style="stop-color:#33445f;stop-opacity:1;"
         offset="0"
         id="stop4896" />
      <stop
         style="stop-color:#33445f;stop-opacity:0;"
         offset="1"
         id="stop4898" />
    </linearGradient>
    <filter
       style="color-interpolation-filters:sRGB"
       id="filter4863-5-7"
       x="-0.081836641"
       width="1.1636733"
       y="-0.0064747045"
       height="1.0129493">
      <feGaussianBlur
         stdDeviation="0.26543101"
         id="feGaussianBlur4865-8-5" />
    </filter>
    <linearGradient
       xlink:href="#linearGradient4900"
       id="linearGradient4902-3-2"
       x1="-730.80035"
       y1="159.70114"
       x2="-730.53308"
       y2="183.7554"
       gradientUnits="userSpaceOnUse" />
    <filter
       style="color-interpolation-filters:sRGB"
       id="filter4916-1-8"
       x="-0.0049948203"
       width="1.0099896"
       y="-0.0028141416"
       height="1.0056283">
      <feGaussianBlur
         stdDeviation="0.098722652"
         id="feGaussianBlur4918-3-4" />
    </filter>
  </defs>
  <metadata
     id="metadata5228">
    <rdf:RDF>
      <cc:Work
         rdf:about="">
        <dc:format>image/svg+xml</dc:format>
        <dc:type
           rdf:resource="http://purl.org/dc/dcmitype/StillImage" />
        <dc:title></dc:title>
      </cc:Work>
    </rdf:RDF>
  </metadata>
  <rect
     ry="0"
     y="13.442458"
     x="5.5146384"
     height="84.194191"
     width="47.436012"
     id="rect4844-0"
     style="opacity:1;vector-effect:none;fill:#333333;fill-opacity:1;stroke:none;stroke-width:0.7921415;stroke-linecap:butt;stroke-linejoin:miter;stroke-miterlimit:4;stroke-dasharray:none;stroke-dashoffset:0;stroke-opacity:1;filter:url(#filter4916-1-8)" />
  <g
     transform="matrix(0.23807437,0,0,0.23807437,43.183796,39.491204)"
     id="g5819">
    <path
       style="opacity:0.3;fill:#ffffff;stroke-width:0.26458332"
       id="path7"
       d="m 24.21461,80.31987 h -165.62917 c -1.74625,0 -3.175,-1.42875 -3.175,-3.175 V 39.891537 c 0,-1.74625 1.42875,-3.175 3.175,-3.175 H 24.21461 c 1.74625,0 3.175,1.42875 3.175,3.175 V 77.14487 c 0,1.74625 -1.42875,3.175 -3.175,3.175 z"
       class="st0" />
    <path
       style="opacity:0.5;fill:#ffffff;stroke-width:0.26458332"
       id="path9"
       d="M 27.38961,54.205495 H -144.58956 V 39.891537 c 0,-1.74625 1.42875,-3.175 3.175,-3.175 H 24.21461 c 1.74625,0 3.175,1.42875 3.175,3.175 z"
       class="st1" />
    <g
       transform="matrix(0.26458333,0,0,0.26458333,-157.81873,-96.157213)"
       id="g25">
      <path
         style="fill:#3f3f3f"
         id="path11"
         d="m 127.4,528.9 h 2 l 7.2,18.9 h -1.9 l -2.2,-5.9 h -8.3 l -2.2,5.9 h -2 z m -2.8,11.5 h 7.2 l -3.5,-9.7 z"
         class="st2" />
      <path
         style="fill:#3f3f3f"
         id="path13"
         d="m 138.7,528.9 h 8.1 c 3.5,0.1 5.3,1.9 5.4,5.4 -0.1,3.6 -1.9,5.3 -5.4,5.4 h -6.4 v 8.1 h -1.7 z m 1.7,9.3 h 6 c 1.2,0 2.2,-0.3 2.9,-1 0.7,-0.6 1.1,-1.6 1.1,-2.9 0,-1.3 -0.4,-2.3 -1.1,-2.9 -0.7,-0.6 -1.7,-0.9 -2.9,-0.9 h -6 z"
         class="st2" />
      <path
         style="fill:#3f3f3f"
         id="path15"
         d="m 155.3,528.9 h 8.1 c 3.5,0.1 5.3,1.9 5.4,5.4 -0.1,3.6 -1.9,5.3 -5.4,5.4 H 157 v 8.1 h -1.7 z m 1.8,9.3 h 6 c 1.2,0 2.2,-0.3 2.9,-1 0.7,-0.6 1.1,-1.6 1.1,-2.9 0,-1.3 -0.4,-2.3 -1.1,-2.9 -0.7,-0.6 -1.7,-0.9 -2.9,-0.9 h -6 z"
         class="st2" />
      <path
         style="fill:#3f3f3f"
         id="path17"
         d="m 170.1,528.9 h 1.9 l 4.2,16.5 v 0 l 4.5,-16.5 h 2.2 l 4.5,16.5 h 0.1 l 4.2,-16.5 h 1.7 l -5,18.9 h -1.9 l -4.6,-16.9 h -0.1 l -4.6,16.9 h -1.9 z"
         class="st2" />
      <path
         style="fill:#3f3f3f"
         id="path19"
         d="m 200.8,528.9 h 2 l 7.2,18.9 h -1.9 l -2.2,-5.9 h -8.3 l -2.2,5.9 h -1.9 z m -2.7,11.5 h 7.2 l -3.5,-9.7 z"
         class="st2" />
      <path
         style="fill:#3f3f3f"
         id="path21"
         d="M 215.3,540.1 208.1,529 h 2.1 l 6,9.6 6,-9.6 h 2.1 l -7.2,11.1 v 7.8 h -1.7 v -7.8 z"
         class="st2" />
      <path
         style="fill:#3f3f3f"
         id="path23"
         d="m 226.3,528.9 h 8.4 c 1.5,0 2.9,0.4 3.9,1.2 1.1,0.8 1.6,2 1.6,3.8 0,1.2 -0.3,2.3 -0.9,3.1 -0.6,0.9 -1.5,1.4 -2.7,1.7 v 0.1 c 1.2,0.2 2,0.6 2.4,1.4 0.5,0.8 0.7,1.7 0.7,2.9 0,0.7 0.1,1.6 0.2,2.5 0.1,0.5 0.1,0.9 0.3,1.3 0.1,0.4 0.2,0.8 0.4,1 h -1.9 c -0.2,-0.4 -0.3,-0.9 -0.4,-1.5 -0.1,-0.5 -0.1,-1 -0.1,-1.4 0,-0.7 -0.1,-1.3 -0.1,-2 -0.1,-0.7 -0.3,-1.2 -0.5,-1.8 -0.2,-0.6 -0.6,-1 -1.1,-1.3 -0.5,-0.3 -1.1,-0.4 -2,-0.4 h -6.6 v 8.4 h -1.7 v -19 z m 1.8,9 h 6.5 c 1.1,0 2,-0.3 2.8,-1 0.8,-0.6 1.1,-1.6 1.2,-2.7 0,-2.5 -1.3,-3.7 -3.9,-3.8 h -6.5 v 7.5 z"
         class="st2" />
    </g>
    <g
       transform="matrix(0.26458333,0,0,0.26458333,-157.81873,-96.157213)"
       id="g31">
      <path
         style="clip-rule:evenodd;fill:#438bc9;fill-rule:evenodd"
         id="path27"
         d="M 98,552.2 H 75.2 c -2.3,0 -4.1,-1.9 -4.1,-4.1 v -22.6 c 0,-2.3 1.9,-4.1 4.1,-4.1 H 98 c 2.3,0 4.1,1.9 4.1,4.1 v 22.6 c 0,2.3 -1.8,4.1 -4.1,4.1 z"
         class="st3" />
      <path
         style="clip-rule:evenodd;fill:#ffffff;fill-rule:evenodd"
         id="path29"
         d="m 89.8,542.4 c 0.7,-0.1 1.3,0.5 1.3,1.3 0,1.7 -3.5,2 -4.5,2 -6.9,0 -12,-7.9 -6.8,-15.1 0.1,-0.1 0.2,-0.2 0.3,-0.3 6.8,-5.3 14.5,-1.1 15.3,5.5 v 0.6 c 0,0.2 0,0.3 0,0.5 v 0.1 l -0.1,7.6 c 0,0.8 -0.4,1.2 -1.1,1.2 -0.6,0 -1.2,-0.3 -1.2,-1.2 0,-0.8 0,-5.7 0,-7.7 0,-5.1 -5.8,-8.8 -11.3,-4.9 -4.3,5.4 -0.5,11.5 4.7,11.5 2,-0.2 2.9,-1 3.4,-1.1 z"
         class="st4" />
    </g>
    <g
       transform="matrix(0.26458333,0,0,0.26458333,-157.81873,-96.157213)"
       id="g39">
      <path
         style="fill:#3f3f3f"
         id="path33"
         d="m 657.6,529.8 h 0.9 v 1.4 0 c 0.2,-0.5 0.5,-0.9 1,-1.2 0.4,-0.3 0.9,-0.4 1.5,-0.4 1.1,0 1.8,0.3 2.2,0.8 0.4,0.5 0.6,1.3 0.6,2.3 v 5.1 h -0.9 v -5 c 0,-0.7 -0.1,-1.3 -0.4,-1.7 -0.3,-0.4 -0.8,-0.7 -1.6,-0.7 -0.8,0 -1.3,0.3 -1.8,0.8 -0.4,0.5 -0.7,1.2 -0.7,2 v 4.6 h -0.9 v -8 z"
         class="st2" />
      <path
         style="fill:#3f3f3f"
         id="path35"
         d="m 669.1,529.6 c 1.2,0 2.1,0.4 2.7,1.2 0.6,0.8 0.9,1.8 0.9,3 0,1.2 -0.3,2.2 -0.9,2.9 -0.6,0.8 -1.5,1.2 -2.7,1.3 -1.2,0 -2.1,-0.4 -2.7,-1.3 -0.6,-0.8 -0.9,-1.8 -0.9,-2.9 0,-1.2 0.3,-2.2 0.9,-3 0.7,-0.7 1.6,-1.2 2.7,-1.2 z m 0,0.8 c -0.9,0 -1.6,0.4 -2,1 -0.5,0.7 -0.7,1.5 -0.7,2.4 0,0.9 0.2,1.7 0.7,2.3 0.4,0.7 1.1,1 2,1.1 0.9,0 1.6,-0.4 2,-1.1 0.4,-0.7 0.7,-1.4 0.7,-2.3 0,-0.9 -0.2,-1.7 -0.7,-2.4 -0.4,-0.6 -1.1,-0.9 -2,-1 z"
         class="st2" />
      <path
         style="fill:#3f3f3f"
         id="path37"
         d="m 673.4,529.8 h 1 l 2,6.8 v 0 l 1.9,-6.8 h 1.1 l 1.9,6.8 v 0 l 2,-6.8 h 1 l -2.5,8 H 681 l -2,-6.7 v 0 l -1.9,6.7 H 676 Z"
         class="st2" />
    </g>
    <g
       transform="matrix(0.26458333,0,0,0.26458333,-157.81873,-96.157213)"
       id="g77">
      <path
         id="path41"
         d="m 72.6,587.7 h 9 c 1.7,0 3,0.4 4,1.2 1,0.8 1.5,2 1.5,3.6 0,2 -0.9,3.3 -2.7,4.1 v 0.1 c 2.3,0.6 3.5,2.2 3.5,5 0,1.5 -0.5,2.8 -1.6,3.8 -1.1,1 -2.9,1.6 -5.3,1.6 h -8.6 v -19.4 z m 3.2,8.1 h 5.3 c 0.8,0 1.5,-0.2 2,-0.7 0.5,-0.4 0.7,-1.1 0.8,-2 0,-1.8 -0.9,-2.7 -2.7,-2.6 h -5.3 v 5.3 z m 0,8.4 h 5.8 c 2.1,0 3.1,-1 3.1,-3.1 0,-2 -1.1,-3 -3.1,-3 h -5.8 z" />
      <path
         id="path43"
         d="m 97.3,607.4 c -2.2,0 -3.9,-0.7 -5,-2.1 -1.2,-1.3 -1.8,-3.1 -1.8,-5.2 0,-2.2 0.6,-3.9 1.8,-5.3 1.2,-1.3 2.8,-2 5,-2 2.2,0 3.9,0.7 5.1,2 1.2,1.3 1.8,3.1 1.8,5.3 0,2.2 -0.6,3.9 -1.8,5.2 -1.2,1.3 -2.9,2 -5.1,2.1 z m 0,-2.5 c 1.3,0 2.3,-0.5 2.9,-1.6 0.6,-1 0.9,-2.1 0.9,-3.3 0,-1.3 -0.3,-2.4 -0.9,-3.4 -0.6,-1 -1.6,-1.5 -2.9,-1.5 -1.3,0 -2.3,0.5 -2.9,1.5 -0.6,1 -0.9,2.1 -0.9,3.4 0,1.3 0.3,2.4 0.9,3.3 0.7,1.1 1.6,1.6 2.9,1.6 z" />
      <path
         id="path45"
         d="m 113.3,607.4 c -2.2,0 -3.9,-0.7 -5,-2.1 -1.2,-1.3 -1.8,-3.1 -1.8,-5.2 0,-2.2 0.6,-3.9 1.8,-5.3 1.2,-1.3 2.8,-2 5,-2 2.2,0 3.9,0.7 5.1,2 1.2,1.3 1.8,3.1 1.8,5.3 0,2.2 -0.6,3.9 -1.8,5.2 -1.2,1.3 -2.9,2 -5.1,2.1 z m 0,-2.5 c 1.3,0 2.3,-0.5 2.9,-1.6 0.6,-1 0.9,-2.1 0.9,-3.3 0,-1.3 -0.3,-2.4 -0.9,-3.4 -0.6,-1 -1.6,-1.5 -2.9,-1.5 -1.3,0 -2.3,0.5 -2.9,1.5 -0.6,1 -0.9,2.1 -0.9,3.4 0,1.3 0.3,2.4 0.9,3.3 0.7,1.1 1.6,1.6 2.9,1.6 z" />
      <path
         id="path47"
         d="m 123.2,587.7 h 3 v 11 l 5.4,-5.7 h 3.7 l -5.2,5.1 5.7,8.8 h -3.6 l -4.1,-6.8 -1.8,1.8 v 5 h -3 v -19.2 z" />
      <path
         id="path49"
         d="m 137.7,587.7 h 3 v 2.9 h -3 z m 0,5.3 h 3 v 14 h -3 z" />
      <path
         id="path51"
         d="m 144.2,593 h 2.8 v 2.1 l 0.1,0.1 c 1,-1.6 2.4,-2.4 4.2,-2.5 3.1,0 4.7,1.6 4.8,4.7 v 9.5 h -3 v -8.7 c 0,-2.1 -0.9,-3.1 -2.6,-3.1 -1,0 -1.8,0.4 -2.4,1.1 -0.6,0.7 -0.9,1.6 -0.9,2.6 v 8.2 h -3 z" />
      <path
         id="path53"
         d="m 172.2,606.3 c -0.1,4.2 -2.3,6.3 -6.6,6.3 -1.4,0 -2.7,-0.3 -3.9,-1 -1.2,-0.7 -1.9,-1.8 -2.1,-3.4 h 3 c 0.2,0.8 0.6,1.4 1.2,1.7 0.6,0.3 1.3,0.4 2,0.4 2.3,0 3.5,-1.2 3.5,-3.6 v -2.1 h -0.1 c -0.9,1.6 -2.3,2.4 -4.1,2.5 -2.1,0 -3.7,-0.7 -4.6,-2.2 -1,-1.4 -1.4,-3.1 -1.4,-5.1 0,-1.9 0.5,-3.6 1.6,-4.9 1.1,-1.3 2.6,-2 4.5,-2.1 0.9,0 1.7,0.2 2.4,0.5 0.7,0.4 1.2,1 1.6,1.8 h 0.1 V 593 h 3 v 13.3 z m -6.7,-1.7 c 1.3,0 2.3,-0.5 2.8,-1.5 0.5,-1 0.8,-2.1 0.8,-3.3 0,-1.3 -0.3,-2.3 -0.8,-3.2 -0.6,-0.9 -1.5,-1.3 -2.8,-1.4 -1.3,0 -2.2,0.5 -2.8,1.5 -0.6,1 -0.8,2.1 -0.8,3.3 0,1.2 0.3,2.2 0.9,3.1 0.6,1 1.5,1.4 2.7,1.5 z" />
      <path
         id="path55"
         d="M 183.6,587.7 H 197 v 2.9 h -10.2 v 5.1 h 9.4 v 2.7 h -9.4 v 5.7 h 10.4 v 2.9 h -13.6 z" />
      <path
         id="path57"
         d="m 200.2,593 h 2.8 v 2.1 l 0.1,0.1 c 1,-1.6 2.4,-2.4 4.2,-2.5 3.1,0 4.7,1.6 4.8,4.7 v 9.5 h -3 v -8.7 c 0,-2.1 -0.9,-3.1 -2.6,-3.1 -1,0 -1.8,0.4 -2.4,1.1 -0.6,0.7 -0.9,1.6 -0.9,2.6 v 8.2 h -3 z" />
      <path
         id="path59"
         d="m 228.2,606.3 c -0.1,4.2 -2.3,6.3 -6.6,6.3 -1.4,0 -2.7,-0.3 -3.9,-1 -1.2,-0.7 -1.9,-1.8 -2.1,-3.4 h 3 c 0.2,0.8 0.6,1.4 1.2,1.7 0.6,0.3 1.3,0.4 2,0.4 2.3,0 3.5,-1.2 3.5,-3.6 v -2.1 h -0.1 c -0.9,1.6 -2.3,2.4 -4.1,2.5 -2.1,0 -3.7,-0.7 -4.6,-2.2 -1,-1.4 -1.4,-3.1 -1.4,-5.1 0,-1.9 0.5,-3.6 1.6,-4.9 1.1,-1.3 2.6,-2 4.5,-2.1 0.9,0 1.7,0.2 2.4,0.5 0.7,0.4 1.2,1 1.6,1.8 h 0.1 V 593 h 3 v 13.3 z m -6.6,-1.7 c 1.3,0 2.3,-0.5 2.8,-1.5 0.5,-1 0.8,-2.1 0.8,-3.3 0,-1.3 -0.3,-2.3 -0.8,-3.2 -0.6,-0.9 -1.5,-1.3 -2.8,-1.4 -1.3,0 -2.2,0.5 -2.8,1.5 -0.6,1 -0.8,2.1 -0.8,3.3 0,1.2 0.3,2.2 0.9,3.1 0.5,1 1.4,1.4 2.7,1.5 z" />
      <path
         id="path61"
         d="m 243,603.9 c 0,0.7 0.2,1.1 0.7,1.1 0.2,0 0.4,0 0.7,-0.1 v 2.1 c -0.6,0.2 -1.2,0.3 -1.9,0.4 -0.6,0 -1.1,-0.1 -1.5,-0.4 -0.4,-0.3 -0.7,-0.7 -0.8,-1.3 -0.6,0.6 -1.3,1 -2.2,1.3 -0.9,0.3 -1.7,0.4 -2.5,0.4 -1.2,0 -2.3,-0.3 -3.2,-1 -0.9,-0.7 -1.4,-1.7 -1.4,-3.1 0,-0.9 0.2,-1.6 0.5,-2.1 0.3,-0.5 0.7,-1 1.2,-1.3 0.5,-0.3 1.1,-0.5 1.7,-0.7 0.6,-0.1 1.2,-0.2 1.9,-0.3 0.6,-0.1 1.1,-0.2 1.6,-0.3 0.5,-0.1 0.9,-0.1 1.3,-0.2 0.8,-0.2 1.2,-0.7 1.2,-1.5 0,-0.8 -0.3,-1.3 -0.9,-1.6 -0.6,-0.2 -1.2,-0.3 -1.9,-0.3 -0.9,0 -1.5,0.2 -2,0.5 -0.5,0.4 -0.9,0.9 -0.9,1.7 h -3 c 0.1,-0.9 0.3,-1.7 0.7,-2.3 0.4,-0.6 0.8,-1.1 1.4,-1.4 1.2,-0.6 2.5,-0.9 4.1,-0.9 1.4,0 2.6,0.3 3.7,0.9 1.1,0.6 1.7,1.7 1.7,3.2 v 7.2 z m -3,-3.9 c -0.5,0.3 -1,0.4 -1.7,0.5 -0.7,0.1 -1.3,0.2 -2,0.3 -0.6,0.1 -1.2,0.3 -1.7,0.6 -0.5,0.3 -0.8,0.9 -0.8,1.7 0,0.7 0.4,1.1 1,1.4 0.6,0.3 1.2,0.4 1.8,0.4 0.4,0 0.7,-0.1 1.1,-0.2 0.4,-0.1 0.7,-0.3 1.1,-0.5 0.4,-0.2 0.6,-0.5 0.9,-0.8 0.2,-0.3 0.3,-0.7 0.3,-1.2 z" />
      <path
         id="path63"
         d="m 259.4,607 h -2.8 v -1.9 h -0.1 c -0.4,0.8 -1,1.3 -1.7,1.7 -0.7,0.4 -1.6,0.6 -2.5,0.6 -2.1,0 -3.7,-0.8 -4.7,-2.2 -1.1,-1.4 -1.6,-3.1 -1.6,-5.3 0,-2.5 0.6,-4.3 1.8,-5.5 1.2,-1.1 2.5,-1.7 4,-1.7 0.9,0 1.8,0.2 2.6,0.5 0.8,0.3 1.5,0.9 1.9,1.7 h 0.1 v -7.2 h 3 z M 249,600.2 c 0,1.2 0.3,2.3 0.9,3.3 0.6,1 1.5,1.5 2.8,1.5 1.3,0 2.3,-0.5 2.9,-1.6 0.6,-1 0.9,-2.1 0.9,-3.3 -0.1,-3.2 -1.3,-4.8 -3.7,-4.9 -1.4,0 -2.3,0.6 -2.9,1.6 -0.6,0.9 -0.9,2.1 -0.9,3.4 z" />
      <path
         id="path65"
         d="m 275.7,606.3 c -0.1,4.2 -2.3,6.3 -6.6,6.3 -1.4,0 -2.7,-0.3 -3.9,-1 -1.2,-0.7 -1.9,-1.8 -2.1,-3.4 h 3 c 0.2,0.8 0.6,1.4 1.2,1.7 0.6,0.3 1.3,0.4 2,0.4 2.3,0 3.5,-1.2 3.5,-3.6 v -2.1 h -0.1 c -0.9,1.6 -2.3,2.4 -4.1,2.5 -2.1,0 -3.7,-0.7 -4.6,-2.2 -1,-1.4 -1.4,-3.1 -1.4,-5.1 0,-1.9 0.5,-3.6 1.6,-4.9 1.1,-1.3 2.6,-2 4.5,-2.1 0.9,0 1.7,0.2 2.4,0.5 0.7,0.4 1.2,1 1.6,1.8 h 0.1 V 593 h 3 v 13.3 z m -6.6,-1.7 c 1.3,0 2.3,-0.5 2.8,-1.5 0.5,-1 0.8,-2.1 0.8,-3.3 0,-1.3 -0.3,-2.3 -0.8,-3.2 -0.6,-0.9 -1.5,-1.3 -2.8,-1.4 -1.3,0 -2.2,0.5 -2.8,1.5 -0.6,1 -0.8,2.1 -0.8,3.3 0,1.2 0.3,2.2 0.9,3.1 0.5,1 1.4,1.4 2.7,1.5 z" />
      <path
         id="path67"
         d="m 281.5,600.8 c 0,1.1 0.3,2.1 0.9,2.9 0.6,0.8 1.5,1.3 2.7,1.3 1.7,0 2.8,-0.8 3.3,-2.3 h 2.8 c -0.3,1.5 -1.1,2.7 -2.2,3.5 -1.1,0.8 -2.4,1.2 -3.9,1.3 -2.1,0 -3.8,-0.7 -4.9,-2.1 -1.1,-1.3 -1.7,-3.1 -1.7,-5.2 0,-2 0.6,-3.8 1.8,-5.2 1.1,-1.4 2.7,-2.1 4.8,-2.2 2.2,0 3.8,0.9 5,2.5 1.2,1.6 1.6,3.4 1.4,5.6 h -10 z m 7,-2 c -0.1,-1 -0.4,-1.8 -1,-2.5 -0.6,-0.7 -1.4,-1.1 -2.4,-1.1 -1,0 -1.9,0.4 -2.5,1 -0.6,0.7 -1,1.5 -1,2.6 z" />
      <path
         id="path69"
         d="m 293.9,593 h 2.9 v 2 h 0.1 c 0.4,-0.7 1,-1.3 1.7,-1.7 0.7,-0.4 1.5,-0.6 2.6,-0.6 0.9,0 1.7,0.2 2.4,0.5 0.7,0.4 1.2,1 1.5,1.8 0.5,-0.7 1.1,-1.3 1.8,-1.7 0.7,-0.4 1.5,-0.6 2.5,-0.6 3.1,-0.1 4.6,1.5 4.7,4.7 v 9.6 h -3 v -8.1 c 0,-1.1 -0.1,-2 -0.3,-2.7 -0.2,-0.3 -0.4,-0.6 -0.8,-0.8 -0.3,-0.2 -0.8,-0.2 -1.5,-0.2 -2.1,0 -3.1,1.3 -3,3.7 v 8.1 h -3 v -8.9 c 0,-1 -0.2,-1.7 -0.5,-2.2 -0.4,-0.5 -1,-0.7 -2,-0.7 -0.8,0 -1.5,0.3 -2.2,0.9 -0.6,0.6 -0.9,1.5 -1,2.7 v 8.3 h -3 V 593 Z" />
      <path
         id="path71"
         d="m 320,600.8 c 0,1.1 0.3,2.1 0.9,2.9 0.6,0.8 1.5,1.3 2.7,1.3 1.7,0 2.8,-0.8 3.3,-2.3 h 2.8 c -0.3,1.5 -1.1,2.7 -2.2,3.5 -1.1,0.8 -2.4,1.2 -3.9,1.3 -2.1,0 -3.8,-0.7 -4.9,-2.1 -1.1,-1.3 -1.7,-3.1 -1.7,-5.2 0,-2 0.6,-3.8 1.8,-5.2 1.1,-1.4 2.7,-2.1 4.8,-2.2 2.2,0 3.8,0.9 5,2.5 1.2,1.6 1.6,3.4 1.4,5.6 h -10 z m 7,-2 c -0.1,-1 -0.4,-1.8 -1,-2.5 -0.6,-0.7 -1.4,-1.1 -2.4,-1.1 -1,0 -1.9,0.4 -2.5,1 -0.6,0.7 -1,1.5 -1,2.6 z" />
      <path
         id="path73"
         d="m 332.7,593 h 2.8 v 2.1 l 0.1,0.1 c 1,-1.6 2.4,-2.4 4.2,-2.5 3.1,0 4.7,1.6 4.8,4.7 v 9.5 h -3 v -8.7 c 0,-2.1 -0.9,-3.1 -2.6,-3.1 -1,0 -1.8,0.4 -2.4,1.1 -0.6,0.7 -0.9,1.6 -0.9,2.6 v 8.2 h -3 z" />
      <path
         id="path75"
         d="m 346.8,593 h 2.3 v -4.2 h 3 v 4.2 h 2.7 v 2.3 h -2.7 v 7.5 c 0,0.6 0.1,1.1 0.2,1.4 0.2,0.3 0.6,0.5 1.2,0.5 0.4,0 0.8,0 1.3,-0.1 v 2.4 c -0.6,0.1 -1.3,0.1 -1.9,0.2 -1.5,0 -2.5,-0.3 -3,-0.9 -0.5,-0.6 -0.8,-1.5 -0.7,-2.7 v -8.2 h -2.3 V 593 Z" />
    </g>
    <g
       transform="matrix(0.26458333,0,0,0.26458333,-157.81873,-96.157213)"
       id="g111">
      <path
         id="path79"
         d="M 73.3,628 H 75 v 16.4 h 9.7 v 1.4 H 73.3 Z" />
      <path
         id="path81"
         d="m 91.7,632.5 c 1.9,0 3.4,0.7 4.4,2 1,1.3 1.5,2.9 1.5,4.8 0,1.9 -0.5,3.5 -1.5,4.8 -1,1.3 -2.5,2 -4.4,2.1 -1.9,0 -3.4,-0.7 -4.4,-2.1 -1,-1.3 -1.5,-2.9 -1.5,-4.8 0,-1.9 0.5,-3.5 1.5,-4.8 1,-1.3 2.5,-1.9 4.4,-2 z m 0,1.4 c -1.5,0 -2.5,0.6 -3.3,1.7 -0.7,1.1 -1.1,2.4 -1.1,3.8 0,1.4 0.4,2.7 1.1,3.8 0.7,1.1 1.8,1.7 3.3,1.7 1.5,0 2.6,-0.6 3.3,-1.7 0.7,-1.1 1.1,-2.3 1.1,-3.8 0,-1.4 -0.4,-2.7 -1.1,-3.8 -0.7,-1.1 -1.8,-1.7 -3.3,-1.7 z" />
      <path
         id="path83"
         d="m 100.4,632.9 h 1.4 v 3 0 c 0.8,-2.1 2.4,-3.2 4.7,-3.2 v 1.6 c -1.4,0 -2.5,0.4 -3.3,1.2 -0.9,0.9 -1.3,2 -1.3,3.4 v 6.9 h -1.5 z" />
      <path
         id="path85"
         d="m 108.7,639.8 c 0,1.2 0.3,2.4 1,3.4 0.6,1.1 1.7,1.7 3.1,1.7 1.1,0 2,-0.3 2.6,-0.9 0.6,-0.6 1.1,-1.4 1.3,-2.4 h 1.5 c -0.6,3 -2.4,4.6 -5.4,4.6 -2,0 -3.4,-0.7 -4.3,-2.1 -0.9,-1.3 -1.3,-2.9 -1.3,-4.8 0,-1.8 0.4,-3.3 1.3,-4.7 0.9,-1.4 2.3,-2.1 4.3,-2.1 2,0 3.4,0.8 4.3,2.2 0.9,1.4 1.3,3.1 1.2,5 h -9.6 z m 8.1,-1.3 c 0,-1.3 -0.4,-2.3 -1.1,-3.2 -0.7,-0.9 -1.7,-1.4 -2.9,-1.4 -1.2,0 -2.2,0.5 -2.9,1.4 -0.7,0.9 -1.1,2 -1.2,3.2 z" />
      <path
         id="path87"
         d="m 120.5,632.9 h 1.4 v 2.2 h 0.1 c 0.8,-1.7 2.2,-2.5 4.2,-2.5 0.9,0 1.7,0.2 2.3,0.6 0.3,0.2 0.6,0.5 0.9,0.8 0.2,0.3 0.4,0.7 0.5,1.1 0.4,-0.8 1,-1.5 1.7,-1.9 0.7,-0.4 1.5,-0.6 2.4,-0.6 2.8,0 4.3,1.5 4.3,4.5 v 8.8 h -1.5 v -8.7 c 0,-1.1 -0.2,-1.9 -0.7,-2.4 -0.5,-0.6 -1.3,-0.8 -2.4,-0.8 -1.3,0 -2.3,0.5 -2.8,1.4 -0.5,0.9 -0.8,2 -0.8,3.2 v 7.3 h -1.5 v -8.8 c 0,-0.9 -0.2,-1.7 -0.6,-2.3 -0.4,-0.6 -1.1,-0.9 -2.1,-0.9 -1.3,0 -2.3,0.5 -2.9,1.4 -0.6,0.9 -0.9,2 -0.9,3.4 v 7.2 h -1.5 v -13 z" />
      <path
         id="path89"
         d="m 148.6,628 h 1.5 v 2.5 h -1.5 z m 0,4.9 h 1.5 v 12.9 h -1.5 z" />
      <path
         id="path91"
         d="m 153.2,632.9 h 1.4 v 2.5 0 c 0.4,-0.9 0.9,-1.6 1.7,-2.1 0.8,-0.5 1.7,-0.7 2.7,-0.7 1.9,0 3.3,0.7 4.3,2 0.9,1.3 1.4,2.9 1.4,4.8 0,1.9 -0.5,3.5 -1.4,4.8 -0.9,1.3 -2.4,2 -4.3,2.1 -1,0 -1.8,-0.2 -2.6,-0.7 -0.8,-0.5 -1.4,-1.2 -1.7,-2.1 v 0 7.2 h -1.5 z m 9.9,6.5 c 0,-1.4 -0.3,-2.7 -0.9,-3.8 -0.6,-1.1 -1.7,-1.7 -3.1,-1.7 -0.8,0 -1.5,0.1 -2.1,0.4 -0.6,0.3 -1,0.7 -1.4,1.2 -0.6,1.1 -1,2.4 -0.9,3.9 0,0.7 0.1,1.3 0.2,1.9 0.2,0.7 0.4,1.2 0.8,1.8 0.7,1.1 1.8,1.7 3.4,1.8 1.5,0 2.5,-0.6 3.1,-1.8 0.6,-1.1 0.9,-2.3 0.9,-3.7 z" />
      <path
         id="path93"
         d="m 175,636.7 c 0,-1 -0.4,-1.7 -1,-2.2 -0.6,-0.4 -1.4,-0.6 -2.3,-0.6 -0.3,0 -0.7,0 -1,0.1 -0.3,0.1 -0.7,0.2 -0.9,0.4 -0.3,0.2 -0.5,0.4 -0.7,0.7 -0.2,0.3 -0.3,0.7 -0.3,1.1 0,0.3 0.1,0.6 0.3,0.9 0.2,0.3 0.4,0.5 0.6,0.6 0.6,0.3 1.1,0.5 1.7,0.7 l 2,0.5 c 0.9,0.1 1.7,0.5 2.4,1 0.7,0.6 1.1,1.4 1.1,2.6 0,1.4 -0.6,2.4 -1.6,3 -1,0.6 -2.2,0.9 -3.4,0.9 -1.5,0 -2.7,-0.4 -3.5,-1.1 -0.9,-0.7 -1.4,-1.9 -1.6,-3.4 h 1.5 c 0.1,1 0.5,1.9 1.1,2.4 0.7,0.5 1.5,0.8 2.5,0.8 0.8,0 1.5,-0.2 2.2,-0.6 0.3,-0.2 0.6,-0.4 0.9,-0.7 0.2,-0.3 0.3,-0.7 0.3,-1.1 0,-0.4 -0.1,-0.7 -0.2,-1 -0.1,-0.3 -0.3,-0.5 -0.6,-0.7 -0.5,-0.3 -1.2,-0.6 -1.9,-0.7 l -2,-0.5 c -0.5,-0.1 -0.9,-0.3 -1.3,-0.5 -0.4,-0.2 -0.8,-0.4 -1.1,-0.6 -0.7,-0.5 -1,-1.3 -1,-2.3 0,-1.3 0.5,-2.3 1.5,-2.8 0.9,-0.5 2,-0.8 3.1,-0.8 1.3,0 2.3,0.3 3.2,1 0.8,0.7 1.3,1.7 1.4,3.1 H 175 Z" />
      <path
         id="path95"
         d="m 189.6,645.8 h -1.4 v -2.3 0 c -0.9,1.8 -2.3,2.7 -4.3,2.7 -3,-0.1 -4.4,-1.7 -4.4,-4.9 v -8.4 h 1.5 v 8.4 c 0,1.2 0.3,2 0.8,2.6 0.5,0.6 1.3,0.9 2.5,0.9 1.3,0 2.3,-0.6 2.9,-1.6 0.6,-1 0.9,-2.2 0.9,-3.6 v -6.8 h 1.5 z" />
      <path
         id="path97"
         d="m 192.7,632.9 h 1.4 v 2.2 h 0.1 c 0.8,-1.7 2.2,-2.5 4.2,-2.5 0.9,0 1.7,0.2 2.3,0.6 0.3,0.2 0.6,0.5 0.9,0.8 0.2,0.3 0.4,0.7 0.5,1.1 0.4,-0.8 1,-1.5 1.7,-1.9 0.7,-0.4 1.5,-0.6 2.4,-0.6 2.8,0 4.3,1.5 4.3,4.5 v 8.8 H 209 v -8.7 c 0,-1.1 -0.2,-1.9 -0.7,-2.4 -0.5,-0.6 -1.3,-0.8 -2.4,-0.8 -1.3,0 -2.3,0.5 -2.8,1.4 -0.5,0.9 -0.8,2 -0.8,3.2 v 7.3 h -1.5 v -8.8 c 0,-0.9 -0.2,-1.7 -0.6,-2.3 -0.4,-0.6 -1.1,-0.9 -2.1,-0.9 -1.3,0 -2.3,0.5 -2.9,1.4 -0.6,0.9 -0.9,2 -0.9,3.4 v 7.2 h -1.5 v -13 z" />
      <path
         id="path99"
         d="m 221.6,631.7 c 0.7,0 1.3,-0.1 1.8,-0.1 0.5,-0.1 1,-0.2 1.4,-0.4 0.4,-0.2 0.8,-0.6 1,-1 0.2,-0.4 0.4,-1.1 0.5,-1.8 h 1.2 v 17.5 H 226 v -13 h -4.5 v -1.2 z" />
      <path
         id="path101"
         d="m 239.9,628.2 c 1.2,0 2.2,0.3 3,0.8 0.8,0.5 1.4,1.2 1.8,2.1 0.4,0.9 0.7,1.8 0.9,2.9 0.1,1.1 0.2,2.1 0.2,3.1 0,1 -0.1,2.1 -0.2,3.1 -0.2,1 -0.5,2 -0.9,2.9 -0.4,0.9 -1,1.6 -1.8,2.1 -0.8,0.6 -1.8,0.8 -3,0.9 -1.2,0 -2.2,-0.3 -3,-0.9 -0.8,-0.5 -1.4,-1.3 -1.8,-2.1 -0.4,-0.9 -0.7,-1.9 -0.9,-2.9 -0.2,-1 -0.2,-2.1 -0.2,-3.1 0,-1 0.1,-2.1 0.2,-3.2 0.2,-1 0.5,-2 0.9,-2.9 0.4,-0.9 1,-1.6 1.8,-2.1 0.8,-0.5 1.8,-0.7 3,-0.7 z m 0,1.3 c -1,0 -1.7,0.3 -2.3,0.7 -0.6,0.5 -1,1.1 -1.3,1.9 -0.3,0.8 -0.5,1.6 -0.6,2.5 -0.1,0.9 -0.2,1.7 -0.2,2.5 0,0.8 0.1,1.6 0.2,2.5 0,0.4 0.1,0.8 0.2,1.3 0.1,0.4 0.2,0.8 0.4,1.2 0.3,0.8 0.8,1.4 1.3,1.9 0.6,0.5 1.3,0.8 2.3,0.8 1,0 1.8,-0.3 2.4,-0.8 0.6,-0.5 1,-1.1 1.3,-1.9 0.3,-0.8 0.5,-1.6 0.6,-2.5 0.1,-0.9 0.1,-1.7 0.1,-2.5 0,-0.8 0,-1.6 -0.1,-2.5 -0.1,-0.9 -0.3,-1.7 -0.6,-2.5 -0.2,-0.4 -0.3,-0.8 -0.5,-1.1 -0.2,-0.3 -0.5,-0.6 -0.8,-0.8 -0.7,-0.5 -1.4,-0.7 -2.4,-0.7 z" />
      <path
         id="path103"
         d="m 252.6,628.2 c 1.4,0 2.4,0.5 3,1.4 0.6,0.9 0.9,2 0.9,3.4 0,1.4 -0.3,2.5 -0.9,3.4 -0.6,0.9 -1.6,1.4 -3,1.4 -1.4,0 -2.3,-0.5 -2.9,-1.4 -0.6,-0.9 -0.9,-2 -0.9,-3.4 0,-1.4 0.3,-2.5 0.9,-3.4 0.6,-1 1.5,-1.4 2.9,-1.4 z m 0,1.1 c -1,0 -1.7,0.4 -2,1.2 -0.4,0.7 -0.6,1.6 -0.5,2.4 0,0.8 0.2,1.6 0.5,2.4 0.4,0.8 1.1,1.2 2,1.2 1,0 1.7,-0.4 2.1,-1.2 0.4,-0.7 0.5,-1.5 0.5,-2.4 0,-0.9 -0.2,-1.7 -0.5,-2.4 -0.4,-0.8 -1.1,-1.2 -2.1,-1.2 z m 10,-1.6 h 1.1 l -10.9,19 h -1.2 z m 0.6,9 c 1.4,0 2.4,0.5 3,1.3 0.6,0.9 0.9,2 0.9,3.4 0,1.4 -0.3,2.5 -0.9,3.3 -0.6,0.9 -1.6,1.4 -3,1.4 -1.4,0 -2.3,-0.5 -2.9,-1.4 -0.6,-0.9 -0.9,-2 -0.9,-3.3 0,-1.4 0.3,-2.5 0.9,-3.4 0.6,-0.8 1.6,-1.2 2.9,-1.3 z m 0,1.2 c -1,0 -1.7,0.4 -2,1.2 -0.4,0.7 -0.6,1.6 -0.5,2.4 0,0.8 0.2,1.6 0.5,2.4 0.4,0.8 1.1,1.2 2,1.2 1,0 1.7,-0.4 2.1,-1.2 0.4,-0.7 0.5,-1.5 0.5,-2.4 0,-0.9 -0.2,-1.7 -0.5,-2.4 -0.4,-0.8 -1.1,-1.2 -2.1,-1.2 z" />
      <path
         id="path105"
         d="m 283,632.5 c 1.9,0 3.4,0.7 4.4,2 1,1.3 1.5,2.9 1.5,4.8 0,1.9 -0.5,3.5 -1.5,4.8 -1,1.3 -2.5,2 -4.4,2.1 -1.9,0 -3.4,-0.7 -4.4,-2.1 -1,-1.3 -1.5,-2.9 -1.5,-4.8 0,-1.9 0.5,-3.5 1.5,-4.8 1,-1.3 2.5,-1.9 4.4,-2 z m 0,1.4 c -1.5,0 -2.5,0.6 -3.3,1.7 -0.7,1.1 -1.1,2.4 -1.1,3.8 0,1.4 0.4,2.7 1.1,3.8 0.7,1.1 1.8,1.7 3.3,1.7 1.5,0 2.6,-0.6 3.3,-1.7 0.7,-1.1 1.1,-2.3 1.1,-3.8 0,-1.4 -0.4,-2.7 -1.1,-3.8 -0.8,-1.1 -1.9,-1.7 -3.3,-1.7 z" />
      <path
         id="path107"
         d="m 296.4,634.2 h -2.5 v 11.6 h -1.5 v -11.6 h -2.1 v -1.3 h 2.1 v -1.2 c 0,-1.1 0.2,-2.1 0.6,-2.7 0.4,-0.7 1.2,-1 2.4,-1 0.4,0 0.8,0 1.3,0.1 v 1.4 c -0.4,-0.1 -0.8,-0.1 -1.1,-0.1 -0.8,0 -1.3,0.3 -1.5,0.7 -0.2,0.5 -0.2,1.1 -0.2,1.8 v 1.1 h 2.5 z" />
      <path
         id="path109"
         d="M 302.4,634.2 H 300 v 11.6 h -1.5 v -11.6 h -2.1 v -1.3 h 2.1 v -1.2 c 0,-1.1 0.2,-2.1 0.6,-2.7 0.4,-0.7 1.2,-1 2.4,-1 0.4,0 0.8,0 1.3,0.1 v 1.4 c -0.4,-0.1 -0.8,-0.1 -1.1,-0.1 -0.8,0 -1.3,0.3 -1.5,0.7 -0.2,0.5 -0.2,1.1 -0.2,1.8 v 1.1 h 2.5 v 1.2 z" />
    </g>
  </g>
</svg>
